<svg width="145" height="37" viewBox="0 0 145 37" fill="none" xmlns="http://www.w3.org/2000/svg">
<path fill-rule="evenodd" clip-rule="evenodd" d="M16.5262 0H29.2817C31.5122 0 33.5126 0.383101 35.2831 1.1493C37.0674 1.9155 38.4824 3.07165 39.5279 4.61773C40.5734 6.16382 41.0962 8.11353 41.0962 10.4669C41.0962 12.8065 40.5734 14.7904 39.5279 16.4186C38.4824 18.0331 37.0674 19.2645 35.2831 20.1128C33.5126 20.9474 31.5122 21.3647 29.2817 21.3647H24.5768L24.57 36.436H11.8145C9.58402 36.436 7.58358 36.0529 5.81315 35.2867C4.02878 34.5205 2.61383 33.3643 1.5683 31.8182C0.522765 30.2721 0 28.3224 0 25.9691C0 23.6295 0.522765 21.6455 1.5683 20.0174C2.61383 18.4029 4.02878 17.1715 5.81315 16.3232C7.58358 15.4886 9.58402 15.0713 11.8145 15.0713H16.5194V2.5726L16.5262 0ZM26.6888 15.0846H24.5768V6.30064H26.6888C27.6786 6.30064 28.6265 6.43062 29.5326 6.69058C30.4388 6.95054 31.1776 7.40205 31.7492 8.04512C32.3207 8.6745 32.6065 9.56384 32.6065 10.7131C32.6065 11.8488 32.3207 12.7313 31.7492 13.3606C31.1776 13.99 30.4388 14.4347 29.5326 14.6946C28.6265 14.9546 27.6786 15.0846 26.6888 15.0846ZM14.4074 21.3514H16.5194V30.1353H14.4074C13.4176 30.1353 12.4697 30.0053 11.5636 29.7454C10.6574 29.4854 9.91859 29.0339 9.34704 28.3908C8.77548 27.7615 8.4897 26.8721 8.4897 25.7228C8.4897 24.5872 8.77548 23.7047 9.34704 23.0753C9.91859 22.4459 10.6574 22.0013 11.5636 21.7413C12.4697 21.4814 13.4176 21.3514 14.4074 21.3514Z" fill="#E5CFA9"/>
<path d="M42.7478 36.3433V1.04326H50.3802V36.3433H42.7478Z" fill="#E5CFA9"/>
<path d="M62.9511 37C60.9855 37 59.2011 36.5211 57.598 35.5634C55.9948 34.5919 54.7193 33.2648 53.7713 31.5819C52.8234 29.8853 52.3494 27.9561 52.3494 25.7943C52.3494 23.7009 52.8025 21.8196 53.7086 20.1504C54.6147 18.4675 55.8624 17.1335 57.4516 16.1484C59.0408 15.1633 60.874 14.6707 62.9511 14.6707C64.3033 14.6707 65.5858 14.8965 66.7986 15.348C68.0254 15.7995 69.0639 16.4357 69.9143 17.2566V15.3274H77.5467V36.3433H69.9143V34.1678C68.9106 35.0982 67.8232 35.8028 66.6522 36.2817C65.4952 36.7606 64.2615 37 62.9511 37ZM65.2512 30.6583C66.1992 30.6583 67.0356 30.4531 67.7605 30.0426C68.4854 29.6185 69.05 29.0438 69.4543 28.3187C69.8585 27.5935 70.0607 26.7657 70.0607 25.8354C70.0607 24.905 69.8516 24.0772 69.4334 23.352C69.0291 22.6269 68.4645 22.0591 67.7396 21.6486C67.0147 21.2245 66.1852 21.0124 65.2512 21.0124C64.3312 21.0124 63.5017 21.2245 62.7629 21.6486C62.038 22.0591 61.4594 22.6269 61.0273 23.352C60.6091 24.0772 60.4 24.905 60.4 25.8354C60.4 26.7521 60.6091 27.5798 61.0273 28.3187C61.4455 29.0438 62.0171 29.6185 62.742 30.0426C63.4808 30.4531 64.3172 30.6583 65.2512 30.6583Z" fill="#E5CFA9"/>
<path d="M89.0749 37C86.7608 37 84.9556 36.2885 83.6591 34.8656C82.3626 33.429 81.7144 31.4245 81.7144 28.8523V21.0124H78.5987V15.3274H81.7144V7.44652H89.3468V15.3274H93.8216V21.0124H89.3468V28.2981C89.3468 28.9549 89.4792 29.4543 89.7441 29.7963C90.0229 30.1384 90.4272 30.3094 90.9569 30.3094C91.5703 30.3094 92.1767 30.0905 92.7761 29.6527L94.679 35.666C93.8704 36.0765 92.9713 36.398 91.9815 36.6306C90.9917 36.8769 90.0229 37 89.0749 37Z" fill="#E5CFA9"/>
<path d="M107.316 37C104.904 37 102.73 36.528 100.792 35.5839C98.8543 34.6261 97.3209 33.3127 96.1917 31.6434C95.0626 29.9605 94.498 28.0245 94.498 25.8354C94.498 23.6462 95.0626 21.717 96.1917 20.0478C97.3209 18.3649 98.8543 17.0514 100.792 16.1073C102.73 15.1496 104.904 14.6707 107.316 14.6707C109.728 14.6707 111.903 15.1496 113.84 16.1073C115.778 17.0514 117.311 18.3649 118.441 20.0478C119.57 21.717 120.134 23.6462 120.134 25.8354C120.134 28.0245 119.57 29.9605 118.441 31.6434C117.311 33.3127 115.778 34.6261 113.84 35.5839C111.903 36.528 109.728 37 107.316 37ZM107.316 30.6378C108.208 30.6378 109.017 30.4326 109.742 30.0221C110.481 29.6116 111.066 29.0507 111.498 28.3392C111.93 27.614 112.147 26.7794 112.147 25.8354C112.147 24.8913 111.93 24.0567 111.498 23.3315C111.066 22.6064 110.481 22.0454 109.742 21.6486C109.017 21.2381 108.208 21.0329 107.316 21.0329C106.424 21.0329 105.608 21.2381 104.87 21.6486C104.145 22.0454 103.566 22.6064 103.134 23.3315C102.702 24.0567 102.486 24.8913 102.486 25.8354C102.486 26.7794 102.702 27.614 103.134 28.3392C103.566 29.0507 104.145 29.6116 104.87 30.0221C105.608 30.4326 106.424 30.6378 107.316 30.6378Z" fill="#E5CFA9"/>
<path d="M121.747 36.3433V15.3274H129.38V17.4619C130.3 16.5999 131.38 15.9226 132.621 15.4301C133.862 14.9238 135.165 14.6707 136.531 14.6707C138.176 14.6707 139.633 15.0264 140.902 15.7379C142.17 16.4494 143.167 17.4345 143.892 18.6933C144.631 19.9383 145 21.3681 145 22.9826V36.3433H137.368V24.5834C137.368 23.3247 137.012 22.3327 136.301 21.6076C135.59 20.8687 134.628 20.4993 133.416 20.4993C132.593 20.4993 131.882 20.6635 131.283 20.9919C130.683 21.3202 130.216 21.7786 129.882 22.3669C129.547 22.9416 129.38 23.6052 129.38 24.3577V36.3433H121.747Z" fill="#E5CFA9"/>
</svg>
