<svg width="74" height="74" viewBox="0 0 74 74" fill="none" xmlns="http://www.w3.org/2000/svg">
<path d="M38.1637 22.3882V35.3975L49.4345 41.9021C49.8875 42.1679 50.2407 42.5751 50.4399 43.061C50.6391 43.547 50.6732 44.085 50.537 44.5922C50.4008 45.0995 50.1019 45.548 49.6861 45.8689C49.2703 46.1898 48.7606 46.3653 48.2354 46.3685C47.8119 46.3804 47.3944 46.2656 47.0364 46.0387L34.5667 38.8446H34.5067L34.3868 38.7847L34.2969 38.6948L34.207 38.6348L34.117 38.5449L34.0571 38.4849C33.9971 38.455 33.9672 38.395 33.9372 38.365L33.8772 38.3051L33.8173 38.1852L33.7573 38.0953L33.6974 38.0053C33.6788 37.9914 33.6637 37.9733 33.6533 37.9525C33.6429 37.9316 33.6374 37.9087 33.6374 37.8854L33.5775 37.7955C33.5775 37.7655 33.5475 37.7356 33.5475 37.6756C33.5367 37.6634 33.5284 37.6492 33.5233 37.6337C33.5181 37.6183 33.5162 37.6019 33.5175 37.5857L33.4576 37.4658C33.459 37.4495 33.457 37.4332 33.4519 37.4177C33.4467 37.4023 33.4385 37.388 33.4276 37.3759C33.4276 37.3159 33.4276 37.2859 33.3976 37.256V37.136C33.3976 37.0761 33.3677 37.0461 33.3677 37.0162V22.3882C33.3677 21.7522 33.6203 21.1422 34.07 20.6925C34.5197 20.2428 35.1297 19.9902 35.7657 19.9902C36.4017 19.9902 37.0116 20.2428 37.4614 20.6925C37.9111 21.1422 38.1637 21.7522 38.1637 22.3882ZM65.5012 14.085C65.0619 13.9071 64.5797 13.8635 64.1155 13.9595C63.6514 14.0555 63.2261 14.287 62.8934 14.6246L58.6069 18.911L56.1189 16.4231C52.0939 12.4001 46.9664 9.66096 41.3848 8.55184C35.8031 7.44272 30.0179 8.01347 24.7606 10.1919C19.5033 12.3704 15.01 16.0587 11.8486 20.7906C8.68732 25.5226 7 31.0856 7 36.7763C7 42.4671 8.68732 48.0301 11.8486 52.7621C15.01 57.494 19.5033 61.1823 24.7606 63.3608C30.0179 65.5392 35.8031 66.11 41.3848 65.0009C46.9664 63.8917 52.0939 61.1525 56.1189 57.1296C56.5674 56.6801 56.8193 56.071 56.8193 55.436C56.8193 54.801 56.5674 54.1919 56.1189 53.7424C55.8984 53.5167 55.635 53.3374 55.3441 53.2149C55.0533 53.0925 54.7409 53.0294 54.4253 53.0294C54.1098 53.0294 53.7974 53.0925 53.5066 53.2149C53.2157 53.3374 52.9523 53.5167 52.7317 53.7424C49.377 57.0934 45.104 59.3747 40.4531 60.2978C35.8021 61.2209 30.9818 60.7445 26.6015 58.9287C22.2213 57.1129 18.4776 54.0393 15.8438 50.0963C13.21 46.1533 11.8043 41.5181 11.8043 36.7763C11.8043 32.0346 13.21 27.3993 15.8438 23.4564C18.4776 19.5134 22.2213 16.4398 26.6015 14.624C30.9818 12.8082 35.8021 12.3318 40.4531 13.2549C45.104 14.178 49.377 16.4593 52.7317 19.8103L55.2197 22.2983L50.9032 26.6147C50.5729 26.9517 50.3493 27.3787 50.2606 27.8422C50.1718 28.3057 50.2217 28.785 50.4041 29.2203C50.5865 29.6555 50.8933 30.0272 51.286 30.2889C51.6787 30.5506 52.1399 30.6906 52.6118 30.6914H64.602C65.238 30.6914 65.8479 30.4387 66.2976 29.989C66.7474 29.5393 67 28.9293 67 28.2933V16.3032C66.9913 15.8282 66.8451 15.3658 66.5791 14.9722C66.3131 14.5785 65.9387 14.2703 65.5012 14.085Z" fill="#25366F"/>
</svg>
