<svg width="21" height="20" viewBox="0 0 21 20" fill="none" xmlns="http://www.w3.org/2000/svg">
<path d="M10.8879 5.29606V9.63249L14.6448 11.8007C14.7958 11.8893 14.9136 12.025 14.98 12.187C15.0464 12.349 15.0577 12.5283 15.0123 12.6974C14.9669 12.8665 14.8673 13.016 14.7287 13.123C14.5901 13.2299 14.4202 13.2884 14.2451 13.2895C14.1039 13.2935 13.9648 13.2552 13.8455 13.1796L9.68889 10.7815H9.66891L9.62894 10.7616L9.59897 10.7316L9.56899 10.7116L9.53901 10.6816L9.51903 10.6616C9.49905 10.6517 9.48906 10.6317 9.47906 10.6217L9.45908 10.6017L9.4391 10.5617L9.41911 10.5318L9.39913 10.5018C9.39293 10.4971 9.38789 10.4911 9.38442 10.4842C9.38095 10.4772 9.37915 10.4696 9.37915 10.4618L9.35916 10.4318C9.35916 10.4218 9.34917 10.4119 9.34917 10.3919C9.34556 10.3878 9.34281 10.3831 9.34109 10.3779C9.33937 10.3728 9.33872 10.3673 9.33918 10.3619L9.3192 10.3219C9.31965 10.3165 9.31901 10.3111 9.31729 10.3059C9.31557 10.3008 9.31282 10.296 9.3092 10.292C9.3092 10.272 9.3092 10.262 9.29921 10.252V10.212C9.29921 10.192 9.28922 10.182 9.28922 10.1721V5.29606C9.28922 5.08406 9.37344 4.88075 9.52334 4.73084C9.67325 4.58093 9.87656 4.49672 10.0886 4.49672C10.3006 4.49672 10.5039 4.58093 10.6538 4.73084C10.8037 4.88075 10.8879 5.08406 10.8879 5.29606V5.29606ZM20.0004 2.52834C19.854 2.46905 19.6932 2.45449 19.5385 2.4865C19.3838 2.51851 19.242 2.59566 19.1311 2.70819L17.7023 4.13701L16.873 3.30769C15.5313 1.96672 13.8221 1.05365 11.9616 0.683947C10.101 0.31424 8.17265 0.504489 6.42021 1.23064C4.66777 1.95679 3.16999 3.18624 2.11621 4.76355C1.06244 6.34085 0.5 8.19519 0.5 10.0921C0.5 11.989 1.06244 13.8434 2.11621 15.4207C3.16999 16.998 4.66777 18.2274 6.42021 18.9536C8.17265 19.6797 10.101 19.87 11.9616 19.5003C13.8221 19.1306 15.5313 18.2175 16.873 16.8765C17.0225 16.7267 17.1064 16.5237 17.1064 16.312C17.1064 16.1003 17.0225 15.8973 16.873 15.7475C16.7995 15.6722 16.7117 15.6125 16.6147 15.5716C16.5178 15.5308 16.4136 15.5098 16.3084 15.5098C16.2033 15.5098 16.0991 15.5308 16.0022 15.5716C15.9052 15.6125 15.8174 15.6722 15.7439 15.7475C14.6257 16.8645 13.2013 17.6249 11.651 17.9326C10.1007 18.2403 8.49394 18.0815 7.03385 17.4762C5.57376 16.871 4.32588 15.8464 3.44794 14.5321C2.57001 13.2178 2.10143 11.6727 2.10143 10.0921C2.10143 8.51154 2.57001 6.96645 3.44794 5.65213C4.32588 4.33781 5.57376 3.31327 7.03385 2.708C8.49394 2.10274 10.1007 1.94392 11.651 2.25163C13.2013 2.55934 14.6257 3.31976 15.7439 4.43677L16.5732 5.26608L15.1344 6.7049C15.0243 6.81724 14.9498 6.95957 14.9202 7.11406C14.8906 7.26855 14.9072 7.42834 14.968 7.57342C15.0288 7.7185 15.1311 7.84241 15.262 7.92963C15.3929 8.01686 15.5466 8.06352 15.7039 8.06378H19.7007C19.9127 8.06378 20.116 7.97957 20.2659 7.82966C20.4158 7.67976 20.5 7.47644 20.5 7.26444V3.26773C20.4971 3.10938 20.4484 2.95528 20.3597 2.82405C20.271 2.69283 20.1462 2.59011 20.0004 2.52834V2.52834Z" fill="#25366F"/>
</svg>
