<svg width="41" height="41" viewBox="0 0 41 41" fill="none" xmlns="http://www.w3.org/2000/svg">
<ellipse cx="20.4461" cy="20.5" rx="20.4461" ry="20.5" fill="#25366F"/>
<path d="M32.9808 20.0311C32.9652 19.8119 32.8354 19.6178 32.6404 19.5223L10.855 9.08101C10.6237 8.96576 10.3459 9.0116 10.1628 9.1954C9.97936 9.37941 9.93103 9.66067 10.0418 9.89673L14.76 20.0792L10.0418 30.2616C9.93103 30.4977 9.97936 30.7792 10.1628 30.963C10.346 31.1468 10.6237 31.1926 10.855 31.0774L32.6404 20.6361C32.8664 20.5258 33.0017 20.2847 32.9808 20.0311ZM29.6714 19.4649H15.8189L11.8571 10.9238L29.6714 19.4649ZM29.6714 20.6932L11.8573 29.2343L15.8191 20.6932H29.6714Z" fill="#FBFBFB"/>
</svg>
