<svg width="19" height="19" viewBox="0 0 19 19" fill="none" xmlns="http://www.w3.org/2000/svg">
<path d="M14.1417 17.9486C14.9656 18.3664 15.9493 17.6951 15.7895 16.7943M14.1417 17.9486L18.0269 6.41298C18.9574 6.54313 19.3303 7.64943 18.6555 8.28306L14.9017 11.8109L15.7895 16.7943M14.1417 17.9486L9.5 15.5956L4.85833 17.9486H14.1417ZM15.7895 16.7943L14.805 16.9697L14.805 16.9694M15.7895 16.7943L14.8049 16.969L13.9172 11.9863L13.8222 11.4531L14.2168 11.0822L17.9707 7.55436L17.971 7.55409C17.9952 7.53131 17.9982 7.51806 17.9988 7.51522L17.9989 7.51497C18.0004 7.50859 18.0013 7.49576 17.9954 7.47813C17.9894 7.46044 17.9787 7.44464 17.9651 7.43306C17.9542 7.42381 17.9329 7.40956 17.8884 7.40334L17.8877 7.40324L12.6991 6.6737L12.1846 6.60136L11.948 6.13875L9.62988 1.60585L14.805 16.9694M14.805 16.9694C14.8088 16.9915 14.8055 16.9987 14.8041 17.0017L14.8039 17.0021C14.8005 17.0096 14.7898 17.0268 14.7645 17.0443C14.7392 17.0619 14.7092 17.0726 14.6808 17.0751C14.6559 17.0773 14.628 17.074 14.594 17.0567L14.5938 17.0566L9.95215 14.7036L9.5 14.4744L9.04785 14.7036L4.40617 17.0566L4.40307 17.0582C4.36942 17.0754 4.34227 17.0786 4.31843 17.0765C4.29093 17.0741 4.26147 17.0636 4.23621 17.0461C4.211 17.0285 4.19999 17.0111 4.19637 17.0031L4.19618 17.0027C4.19457 16.9992 4.19113 16.9916 4.19506 16.9693C4.19507 16.9692 4.19509 16.9691 4.1951 16.969L5.08282 11.9863L5.17782 11.4531L4.78316 11.0822L1.02933 7.55436L1.02904 7.55409C1.00478 7.5313 1.00182 7.51806 1.00119 7.51522L1.00113 7.51497C0.999643 7.50859 0.99869 7.49576 1.00462 7.47813C1.01057 7.46044 1.02131 7.44464 1.03494 7.43306C1.04582 7.42381 1.06712 7.40956 1.11163 7.40334L1.11233 7.40324L6.30092 6.6737L6.81545 6.60136L7.05202 6.13875L9.37089 1.60436C9.37093 1.60427 9.37098 1.60417 9.37103 1.60408C9.38411 1.57865 9.39775 1.56702 9.41244 1.55866C9.43111 1.54803 9.46076 1.53846 9.49816 1.53858C9.53566 1.53869 9.56683 1.54854 9.58744 1.56034C9.6043 1.56999 9.61772 1.58243 9.62959 1.60529L14.805 16.9694Z" stroke="#25366F" stroke-width="2"/>
</svg>
