<svg width="40" height="41" viewBox="0 0 40 41" fill="none" xmlns="http://www.w3.org/2000/svg">
<circle cx="20" cy="20.5" r="20" fill="#25366F"/>
<path d="M14.1044 25.5L9.95239 15.6H12.1484L14.8664 22.578L17.5904 15.6H19.7804L15.6284 25.5H14.1044ZM21.2316 25.5V15.6H23.9496C24.6536 15.6 25.3076 15.726 25.9116 15.978C26.5156 16.23 27.0436 16.582 27.4956 17.034C27.9516 17.486 28.3056 18.012 28.5576 18.612C28.8136 19.212 28.9416 19.86 28.9416 20.556C28.9416 21.256 28.8156 21.906 28.5636 22.506C28.3116 23.102 27.9576 23.626 27.5016 24.078C27.0496 24.526 26.5196 24.876 25.9116 25.128C25.3076 25.376 24.6536 25.5 23.9496 25.5H21.2316ZM23.1756 23.76H23.7336C24.1816 23.76 24.5956 23.68 24.9756 23.52C25.3556 23.36 25.6856 23.136 25.9656 22.848C26.2456 22.56 26.4636 22.222 26.6196 21.834C26.7756 21.442 26.8536 21.014 26.8536 20.55C26.8536 20.09 26.7756 19.666 26.6196 19.278C26.4636 18.886 26.2456 18.546 25.9656 18.258C25.6856 17.966 25.3556 17.74 24.9756 17.58C24.5956 17.42 24.1816 17.34 23.7336 17.34H23.1756V23.76Z" fill="#FBFBFB"/>
</svg>
