<svg width="23" height="30" viewBox="0 0 23 30" fill="none" xmlns="http://www.w3.org/2000/svg">
<path d="M19.6455 2.53363e-05H3.29592C1.47849 2.53363e-05 0 1.43654 0 3.20236V24.1862C0 25.952 1.47849 27.3885 3.29592 27.3885H5.0445V29.0287C5.0445 29.2805 5.1843 29.5127 5.41026 29.6363C5.63647 29.7593 5.91251 29.7551 6.13468 29.6241L8.70406 28.1055L11.3135 29.6527C11.4282 29.721 11.5575 29.7551 11.6871 29.7551C11.8079 29.7551 11.929 29.7256 12.0379 29.6661C12.2641 29.5427 12.4044 29.3102 12.4044 29.0582V27.3885H19.6456C21.463 27.3885 22.9415 25.952 22.9415 24.1862V3.20233C22.9415 1.43651 21.463 0 19.6456 0L19.6455 2.53363e-05ZM1.43474 3.20236C1.43474 2.20515 2.26951 1.39385 3.2961 1.39385H4.09502V18.8626C4.09502 18.9624 4.11756 19.057 4.15625 19.143H3.11429C2.49572 19.143 1.91992 19.3213 1.43473 19.6248L1.43474 3.20236ZM10.9703 27.8164L9.07881 26.695C8.85024 26.5598 8.56233 26.5584 8.33234 26.6947L6.47955 27.7897L6.47931 23.9787H10.9703L10.9703 27.8164ZM21.5073 24.1863C21.5073 25.1835 20.6725 25.9948 19.6459 25.9948H12.4047V23.9788H19.8276C20.4462 23.9788 21.0219 23.8005 21.5071 23.497L21.5073 24.1863ZM21.5073 20.953C21.5073 21.8527 20.7539 22.5849 19.8277 22.5849H4.49046C4.09432 22.5849 3.77315 22.8969 3.77315 23.2819C3.77315 23.6668 4.0943 23.9788 4.49046 23.9788H5.04445V25.9948H3.29587C2.26952 25.9948 1.43451 25.1835 1.43451 24.1863V22.1686C1.43451 21.269 2.18785 20.5368 3.11407 20.5368H19.827C20.4456 20.5368 21.0213 20.3585 21.5065 20.055L21.5073 20.953ZM21.5073 14.0976V17.5114C21.5073 18.411 20.7539 19.1432 19.8277 19.1432H5.46814C5.50683 19.0572 5.52938 18.9627 5.52938 18.8628V1.39409H19.6459C20.6722 1.39409 21.5072 2.20539 21.5072 3.2026L21.5073 14.0976Z" fill="#25366F"/>
</svg>
