<svg width="32" height="32" viewBox="0 0 32 32" fill="none" xmlns="http://www.w3.org/2000/svg">
<path d="M24.0002 21.3546C25.6602 22.0599 26.6668 22.9853 26.6668 23.9999C26.6668 26.2093 21.8908 27.9999 16.0002 27.9999C10.1095 27.9999 5.3335 26.2093 5.3335 23.9999C5.3335 22.9866 6.34016 22.0586 8.00016 21.3546" stroke="#25366F" stroke-width="2" stroke-linecap="round" stroke-linejoin="round"/>
<path d="M22.6668 11.2587C22.6668 15.3827 16.0002 22.6667 16.0002 22.6667C16.0002 22.6667 9.3335 15.3827 9.3335 11.2587C9.3335 7.136 12.3188 4 16.0002 4C19.6815 4 22.6668 7.136 22.6668 11.2587V11.2587Z" stroke="#25366F" stroke-width="2" stroke-linecap="round" stroke-linejoin="round"/>
<path d="M16.0003 12C16.7367 12 17.3337 11.4031 17.3337 10.6667C17.3337 9.93033 16.7367 9.33337 16.0003 9.33337C15.2639 9.33337 14.667 9.93033 14.667 10.6667C14.667 11.4031 15.2639 12 16.0003 12Z" stroke="#25366F" stroke-width="2" stroke-linecap="round" stroke-linejoin="round"/>
</svg>
