<svg width="56" height="44" viewBox="0 0 56 44" fill="none" xmlns="http://www.w3.org/2000/svg">
<path d="M46.7564 33.1734C52.7099 27.9301 55.9999 21.9892 55.9999 21.9892C55.9999 21.9892 45.4999 2.99194 27.9999 2.99194C24.6384 3.00337 21.3151 3.69458 18.2349 5.02292L20.9299 7.68599C23.1959 6.87137 25.5882 6.45178 27.9999 6.44599C35.4199 6.44599 41.5764 10.4803 46.0879 14.9326C48.2591 17.0868 50.2055 19.4509 51.8979 21.9892C51.6949 22.2897 51.4709 22.6213 51.2154 22.9839C50.0429 24.6419 48.3104 26.8525 46.0879 29.0458C45.5104 29.6157 44.9084 30.1787 44.2784 30.7245L46.7564 33.1734Z" fill="#25366F"/>
<path d="M39.5388 26.0511C40.3198 23.8952 40.4645 21.5648 39.9559 19.331C39.4473 17.0972 38.3064 15.0518 36.6659 13.4329C35.0254 11.8139 32.9529 10.688 30.6893 10.1861C28.4258 9.68419 26.0643 9.82693 23.8798 10.5977L26.7603 13.4404C28.1054 13.2504 29.4768 13.3722 30.7659 13.796C32.0551 14.2199 33.2264 14.9342 34.1873 15.8824C35.1481 16.8306 35.8719 17.9866 36.3014 19.2588C36.7309 20.531 36.8543 21.8845 36.6618 23.2119L39.5388 26.0511ZM29.2383 30.5379L32.1153 33.3771C29.9307 34.1479 27.5693 34.2907 25.3058 33.7887C23.0422 33.2868 20.9696 32.1609 19.3292 30.542C17.6887 28.9231 16.5478 26.8777 16.0392 24.6439C15.5306 22.41 15.6752 20.0796 16.4563 17.9237L19.3368 20.7664C19.1443 22.0938 19.2676 23.4473 19.6972 24.7195C20.1267 25.9917 20.8505 27.1477 21.8113 28.0959C22.7721 29.0441 23.9435 29.7584 25.2326 30.1823C26.5218 30.6061 27.8932 30.7279 29.2383 30.5379Z" fill="#25366F"/>
<path d="M11.725 13.2504C11.095 13.8031 10.4895 14.3626 9.912 14.9326C7.74076 17.0868 5.79432 19.4509 4.102 21.9892L4.7845 22.9839C5.957 24.6419 7.6895 26.8525 9.912 29.0458C14.4235 33.498 20.5835 37.5324 28 37.5324C30.506 37.5324 32.865 37.073 35.07 36.2889L37.765 38.9554C34.6848 40.2837 31.3614 40.9749 28 40.9864C10.5 40.9864 0 21.9892 0 21.9892C0 21.9892 3.2865 16.0448 9.2435 10.805L11.7215 13.2539L11.725 13.2504ZM47.761 43.9362L5.761 2.48764L8.239 0.0421753L50.239 41.4907L47.761 43.9362Z" fill="#25366F"/>
</svg>
