<svg width="58" height="40" viewBox="0 0 58 40" fill="none" xmlns="http://www.w3.org/2000/svg">
<path d="M58 20C58 20 47.125 0 29 0C10.875 0 0 20 0 20C0 20 10.875 40 29 40C47.125 40 58 20 58 20ZM4.25212 20C6.00487 17.3277 8.02082 14.8389 10.2696 12.5709C14.935 7.88364 21.315 3.63636 29 3.63636C36.685 3.63636 43.0614 7.88364 47.734 12.5709C49.9828 14.8389 51.9988 17.3277 53.7515 20C53.5413 20.3164 53.3092 20.6655 53.0446 21.0473C51.8302 22.7927 50.0359 25.12 47.734 27.4291C43.0614 32.1164 36.6814 36.3636 29 36.3636C21.315 36.3636 14.9386 32.1164 10.266 27.4291C8.01722 25.1611 6.00126 22.6723 4.2485 20H4.25212Z" fill="#25366F"/>
<path d="M29 10.9091C26.5965 10.9091 24.2914 11.8669 22.5918 13.5717C20.8923 15.2766 19.9375 17.5889 19.9375 20C19.9375 22.411 20.8923 24.7233 22.5918 26.4282C24.2914 28.1331 26.5965 29.0909 29 29.0909C31.4035 29.0909 33.7086 28.1331 35.4082 26.4282C37.1077 24.7233 38.0625 22.411 38.0625 20C38.0625 17.5889 37.1077 15.2766 35.4082 13.5717C33.7086 11.8669 31.4035 10.9091 29 10.9091ZM16.3125 20C16.3125 16.6245 17.6492 13.3873 20.0286 11.0004C22.408 8.61361 25.6351 7.27271 29 7.27271C32.3649 7.27271 35.592 8.61361 37.9714 11.0004C40.3508 13.3873 41.6875 16.6245 41.6875 20C41.6875 23.3755 40.3508 26.6127 37.9714 28.9995C35.592 31.3863 32.3649 32.7273 29 32.7273C25.6351 32.7273 22.408 31.3863 20.0286 28.9995C17.6492 26.6127 16.3125 23.3755 16.3125 20Z" fill="#25366F"/>
</svg>
