<svg width="32" height="43" viewBox="0 0 32 43" fill="none" xmlns="http://www.w3.org/2000/svg">
<path d="M16 30.8442C24.2843 30.8442 31 24.1634 31 15.9221C31 7.68085 24.2843 1 16 1C7.71573 1 1 7.68085 1 15.9221C1 24.1634 7.71573 30.8442 16 30.8442Z" fill="#E5CFA9" stroke="#E5CFA9" stroke-width="2" stroke-linecap="round" stroke-linejoin="round"/>
<path d="M5.28564 39.87V26.5808C6.71493 28.0027 10.8571 30.8443 15.9999 30.8443C21.1428 30.8443 25.2849 28.0027 26.7142 26.5808V39.87C26.7139 40.247 26.6131 40.6172 26.4221 40.9428C26.2311 41.2684 25.9567 41.5378 25.6269 41.7235C25.2972 41.9092 24.9238 42.0046 24.5448 41.9999C24.1659 41.9952 23.795 41.8907 23.4699 41.6969L17.1014 37.8982C16.7686 37.6998 16.3879 37.595 15.9999 37.595C15.612 37.595 15.2313 37.6998 14.8985 37.8982L8.52993 41.6948C8.20502 41.8885 7.83431 41.993 7.45556 41.9978C7.07682 42.0025 6.70357 41.9073 6.37385 41.7219C6.04412 41.5364 5.7697 41.2673 5.57855 40.942C5.38739 40.6167 5.28632 40.2468 5.28564 39.87Z" stroke="#E5CFA9" stroke-width="2" stroke-linecap="round" stroke-linejoin="round"/>
<path d="M14.9807 6.61009L12.6617 11.1449L7.4731 11.8744C6.54263 12.0046 6.16974 13.1109 6.8445 13.7445L10.5983 17.2723L9.71048 22.2558C9.55067 23.1565 10.5344 23.8313 11.3583 23.41L16 21.057L20.6417 23.41C21.4656 23.8279 22.4493 23.1565 22.2895 22.2558L21.4017 17.2723L25.1555 13.7445C25.8303 13.1109 25.4574 12.0046 24.5269 11.8744L19.3383 11.1449L17.0193 6.61009C16.6037 5.80178 15.3998 5.79151 14.9807 6.61009Z" fill="#25366F"/>
</svg>
