<svg width="71" height="70" viewBox="0 0 71 70" fill="none" xmlns="http://www.w3.org/2000/svg">
<path d="M47.6709 70H19.9863C14.6878 69.9938 9.60785 67.8861 5.86033 64.1397C2.11387 60.3927 0.00621414 55.3127 0 50.0137V22.3278C0.00619761 17.0294 2.11387 11.9494 5.86033 8.20184C9.60732 4.45538 14.6873 2.34826 19.9863 2.34204H32.3184V7.62763L19.9863 7.62815C16.0889 7.63228 12.3529 9.18221 9.59701 11.9381C6.8411 14.694 5.29074 18.4302 5.28612 22.3274V50.0133C5.29076 53.9107 6.84071 57.6472 9.59661 60.4026C12.3525 63.1585 16.0891 64.7088 19.9864 64.7131H47.671C51.5684 64.7089 55.3049 63.1585 58.0608 60.4026C60.8167 57.6467 62.3665 53.9105 62.3713 50.0133V36.1677H67.6569V50.0133H67.6574C67.6512 55.3117 65.5435 60.3917 61.7971 64.1393C58.0501 67.8862 52.9701 69.9934 47.6712 69.9996L47.6709 70Z" fill="#25366F"/>
<path d="M60.0787 0L25.5664 34.5123L22.7666 47.5716L35.8259 44.7739L70.3382 10.2603L60.0787 0ZM25.5281 42.5616L27.0185 35.6067L34.732 43.3207L27.6982 44.8283L25.5281 42.5616Z" fill="#25366F"/>
</svg>
