<svg width="24" height="24" viewBox="0 0 24 24" fill="none" xmlns="http://www.w3.org/2000/svg">
<path d="M13.794 21H9.794L9.243 18.52C8.58725 18.2636 7.974 17.9096 7.424 17.47L5 18.233L3 14.769L4.872 13.051C4.76724 12.3549 4.76724 11.6471 4.872 10.951L3 9.232L5 5.768L7.424 6.531C7.97425 6.09097 8.58785 5.73664 9.244 5.48L9.794 3H13.794L14.345 5.48C15.0007 5.73642 15.614 6.09041 16.164 6.53L18.588 5.767L20.588 9.231L18.716 10.949C18.8208 11.6451 18.8208 12.3529 18.716 13.049L20.588 14.767L18.588 18.231L16.164 17.468C15.6141 17.9083 15.0009 18.263 14.345 18.52L13.794 21Z" stroke="#B3BEE6" stroke-width="1.5" stroke-linecap="round" stroke-linejoin="round"/>
<path d="M11.7939 15C13.4508 15 14.7939 13.6569 14.7939 12C14.7939 10.3431 13.4508 9 11.7939 9C10.1371 9 8.79395 10.3431 8.79395 12C8.79395 13.6569 10.1371 15 11.7939 15Z" stroke="#B3BEE6" stroke-width="1.5"/>
</svg>
