<svg width="24" height="24" viewBox="0 0 24 24" fill="none" xmlns="http://www.w3.org/2000/svg">
<path d="M14.0001 21H10.0001L9.44905 18.52C8.79331 18.2636 8.18005 17.9096 7.63005 17.47L5.20605 18.233L3.20605 14.769L5.07805 13.051C4.97329 12.3549 4.97329 11.6471 5.07805 10.951L3.20605 9.232L5.20605 5.768L7.63005 6.531C8.1803 6.09097 8.7939 5.73664 9.45005 5.48L10.0001 3H14.0001L14.5511 5.48C15.2068 5.73642 15.82 6.09041 16.3701 6.53L18.7941 5.767L20.7941 9.231L18.9221 10.949C19.0269 11.6451 19.0269 12.3529 18.9221 13.049L20.7941 14.767L18.7941 18.231L16.3701 17.468C15.8202 17.9083 15.2069 18.263 14.5511 18.52L14.0001 21Z" stroke="#25366F" stroke-width="2" stroke-linecap="round" stroke-linejoin="round"/>
<path d="M12 15C13.6569 15 15 13.6569 15 12C15 10.3431 13.6569 9 12 9C10.3431 9 9 10.3431 9 12C9 13.6569 10.3431 15 12 15Z" stroke="#25366F" stroke-width="2"/>
</svg>
