<svg width="18" height="18" viewBox="0 0 18 18" fill="none" xmlns="http://www.w3.org/2000/svg">
<circle cx="9" cy="9" r="9" fill="#25366F"/>
<path fill-rule="evenodd" clip-rule="evenodd" d="M13.0161 7.59276C13.2134 7.38845 13.3226 7.1148 13.3201 6.83075C13.3177 6.54671 13.2037 6.27499 13.0029 6.07414C12.802 5.87328 12.5303 5.75935 12.2463 5.75688C11.9622 5.75441 11.6886 5.8636 11.4842 6.06094L7.91685 9.62834L6.5161 8.2276C6.31179 8.03026 6.03814 7.92107 5.75409 7.92353C5.47005 7.926 5.19833 8.03993 4.99748 8.24079C4.79662 8.44165 4.68269 8.71336 4.68022 8.99741C4.67775 9.28145 4.78694 9.5551 4.98428 9.75942L7.15094 11.9261C7.35409 12.1292 7.62959 12.2433 7.91685 12.2433C8.20411 12.2433 8.47961 12.1292 8.68276 11.9261L13.0161 7.59276Z" fill="#FBFBFB"/>
</svg>
