<svg width="123" height="130" viewBox="0 0 123 130" fill="none" xmlns="http://www.w3.org/2000/svg">
<mask id="path-1-inside-1_21_206" fill="white">
<path d="M43.3352 116.21C53.2985 95.5286 65.382 83.3799 77.8671 70.8286C82.5599 66.11 87.3097 61.3348 92.0748 55.9605C94.9623 52.7036 97.8287 49.2551 100.646 45.512C103.478 41.7509 106.271 37.685 109.002 33.2068C109.061 33.1096 109.08 32.9922 109.06 32.8813C109.045 32.7868 109.003 32.7061 108.941 32.6594L67.5784 1.8833C67.5574 1.86771 67.539 1.85762 67.5234 1.85487C67.5097 1.85212 67.4932 1.85212 67.4739 1.85671C67.4482 1.86221 67.4262 1.8723 67.407 1.88605C67.3804 1.9053 67.3538 1.93832 67.3254 1.98324C65.3888 5.14395 63.4302 8.09362 61.4542 10.8701C59.4754 13.6503 57.4757 16.2643 55.4621 18.7501C49.1104 26.5907 42.6526 33.1131 36.3101 39.5187C23.7811 52.1723 11.7052 64.3701 1.94493 85.3108C1.89816 85.4107 1.88808 85.5198 1.91008 85.6189C1.92751 85.6968 1.96418 85.7647 2.01553 85.8068C2.02562 85.8142 2.03479 85.8215 2.04396 85.8288L43.0615 116.349C43.0844 116.366 43.1028 116.376 43.1184 116.378C43.133 116.381 43.1505 116.38 43.1706 116.374C43.2009 116.366 43.2275 116.351 43.2495 116.332C43.2816 116.304 43.31 116.265 43.3338 116.214L43.3357 116.212L43.3348 116.211L43.3352 116.21ZM75.3037 78.3096C75.2441 77.8411 75.5834 77.4138 76.0611 77.3551C76.5398 77.2964 76.9753 77.6284 77.0358 78.0969C77.2495 79.7309 77.299 81.34 77.189 82.886C77.078 84.4448 76.8048 85.9375 76.3738 87.3239C76.2335 87.7759 75.7466 88.0317 75.2845 87.8942C74.8223 87.7576 74.562 87.2799 74.7013 86.8278C75.0956 85.5597 75.3459 84.1917 75.4477 82.7613C75.5495 81.329 75.5036 79.8325 75.3037 78.3086L75.3037 78.3096ZM64.4024 96.9032C63.1994 96.7556 61.9818 96.4227 60.7786 95.9212C60.3339 95.7369 60.1248 95.2344 60.3128 94.7989C60.5008 94.3633 61.0142 94.1588 61.459 94.3431C62.9059 94.9465 64.3619 95.2702 65.7659 95.2766C66.9652 95.2821 68.1287 95.0538 69.2172 94.5678C70.2157 94.0873 71.2133 93.6087 72.2091 93.1319C80.0873 89.355 87.8281 85.6443 94.6401 81.6097C96.7821 80.3416 98.8297 79.0387 100.758 77.6908C100.776 77.678 100.794 77.6661 100.813 77.6551C102.487 76.4832 104.065 75.2784 105.528 74.035C104.459 72.1424 104.128 70.017 104.456 67.9896C104.787 65.9421 105.792 63.9928 107.385 62.4834L101.008 52.9685C100.744 52.5724 100.857 52.0424 101.261 51.7829C101.665 51.5243 102.207 51.6352 102.471 52.0304L109.259 62.1581L109.258 62.1599C109.498 62.5193 109.429 63.0053 109.083 63.285C107.492 64.5724 106.494 66.3612 106.188 68.2539C105.888 70.1051 106.253 72.0519 107.373 73.7168C107.621 74.068 107.569 74.5522 107.235 74.8428C105.586 76.2852 103.774 77.6827 101.829 79.0441C101.811 79.0588 101.793 79.0725 101.774 79.0863C99.8298 80.4443 97.7447 81.7703 95.5478 83.0714C88.6269 87.171 80.8731 90.8883 72.9811 94.6715C67.9573 97.0804 62.8765 99.5157 58.0269 102.035C57.6005 102.257 57.0714 102.1 56.8449 101.682C56.6185 101.265 56.7798 100.747 57.2062 100.525C59.6003 99.2809 62.0037 98.0788 64.4041 96.9023L64.4024 96.9032ZM31.3025 120.272C30.9412 120.586 30.3892 120.554 30.0683 120.201C29.7474 119.848 29.7804 119.307 30.1417 118.992C30.7578 118.458 31.4107 117.907 32.0947 117.344C32.7971 116.768 33.5205 116.186 34.2596 115.606C34.6365 115.31 35.1866 115.369 35.4892 115.738C35.7918 116.107 35.7313 116.646 35.3544 116.942C34.6026 117.532 33.8883 118.105 33.2189 118.656C32.5458 119.209 31.9049 119.749 31.3025 120.272L31.3025 120.272ZM5.07088 90.2285L30.6898 128.098C30.7063 128.122 30.7201 128.138 30.732 128.144C30.7439 128.151 30.7614 128.155 30.7843 128.156C30.8173 128.158 30.8466 128.153 30.8723 128.143C30.9071 128.129 30.9466 128.1 30.9906 128.056C34.8233 124.238 38.6075 120.899 42.3614 117.923C42.2385 117.866 42.1202 117.796 42.0056 117.71L5.0701 90.2276L5.07088 90.2285ZM45.68 115.38C56.8088 107.131 67.7157 101.803 78.8738 96.3539C84.9136 93.4043 91.0268 90.4187 97.2932 86.9059C101.109 84.7676 104.974 82.4377 108.903 79.808C112.839 77.1726 116.844 74.2368 120.932 70.889C121.022 70.8156 121.078 70.7111 121.098 70.6011C121.114 70.5066 121.103 70.4167 121.059 70.3526L105.237 46.9643C104.971 46.57 105.081 46.0391 105.483 45.7787C105.886 45.5183 106.428 45.6256 106.694 46.0198L122.516 69.4081C122.815 69.8501 122.909 70.3847 122.82 70.8926C122.733 71.385 122.471 71.86 122.056 72.1992C117.912 75.5928 113.862 78.5627 109.888 81.2227C105.907 83.8874 102.005 86.2401 98.1634 88.3931C91.8723 91.9195 85.7243 94.9216 79.6515 97.8879C63.7738 105.642 48.406 113.148 32.2421 129.253C32.0349 129.46 31.7993 129.617 31.5398 129.722C31.272 129.83 30.9887 129.878 30.6934 129.862C30.389 129.846 30.1103 129.767 29.8618 129.626C29.6133 129.486 29.4033 129.29 29.2346 129.04L0.838723 87.0675C0.5123 86.7787 0.294983 86.3972 0.201465 85.9837C0.0996864 85.5335 0.142781 85.042 0.350925 84.5945C10.2337 63.3905 22.416 51.0862 35.0541 38.3213C41.3689 31.9431 47.7995 25.4484 54.0932 17.6792C56.0811 15.2255 58.0581 12.6415 60.0165 9.8888C61.9787 7.13255 63.9171 4.21385 65.8262 1.09822C65.9692 0.864403 66.1462 0.670017 66.3553 0.515045C66.5717 0.355498 66.8174 0.24456 67.0897 0.184022C67.3685 0.121672 67.6399 0.118921 67.9012 0.17577C68.1607 0.232621 68.4055 0.345404 68.6329 0.515032L109.996 31.2911C110.426 31.612 110.696 32.087 110.782 32.5959C110.866 33.0874 110.779 33.6201 110.5 34.0758C107.729 38.6191 104.906 42.7307 102.051 46.5222C99.1831 50.3319 96.293 53.8119 93.3964 57.0789C88.6761 62.4036 83.8666 67.2384 79.1151 72.0158C67.0556 84.1412 55.374 95.8883 45.6772 115.378L45.68 115.38ZM61.641 68.7879C61.9253 68.6898 62.237 68.8365 62.337 69.1152C62.4369 69.3939 62.2874 69.6993 62.0032 69.7974C60.4719 70.3292 58.7197 70.3998 56.9041 70.0275C55.1344 69.6644 53.3013 68.8805 51.5556 67.6912C51.3071 67.5225 51.2457 67.1887 51.4181 66.9457C51.5905 66.7027 51.9306 66.6422 52.1791 66.8109C53.8049 67.9177 55.5002 68.6466 57.1278 68.9804C58.748 69.3123 60.2995 69.2537 61.6411 68.7888L61.641 68.7879ZM47.9816 47.8681C47.723 48.0203 47.3865 47.9378 47.2315 47.6838C47.0766 47.4298 47.16 47.1015 47.4195 46.9493C48.9618 46.0443 50.8377 45.7179 52.8304 45.9471C54.7862 46.1718 56.8565 46.9337 58.8316 48.2073C59.0837 48.3696 59.1544 48.7007 58.9884 48.9473C58.8233 49.194 58.485 49.2627 58.2328 49.1013C56.4017 47.9203 54.4935 47.2152 52.7036 47.0098C50.9495 46.8081 49.312 47.0868 47.9815 47.868L47.9816 47.8681ZM40.3464 44.0179L40.406 43.9583C40.5013 43.8621 40.5994 43.7676 40.6975 43.675C50.7517 33.8474 60.7737 23.8646 66.9691 13.7487C67.2175 13.3434 67.754 13.2114 68.1684 13.4544C68.5829 13.6974 68.7167 14.2237 68.4682 14.6289C63.0491 23.4763 54.8205 32.1561 46.1804 40.7103C47.8621 40.2867 49.6702 40.1739 51.5345 40.3729C55.7487 40.8222 60.2518 42.8733 64.1846 46.5328C64.2313 46.5759 64.3129 46.6538 64.4294 46.7648C66.8666 49.0883 68.7903 51.7482 70.1438 54.4937C71.5577 57.36 72.3536 60.3254 72.4691 63.1091C72.4865 63.5823 72.1097 63.9793 71.6274 63.9967C71.1441 64.0141 70.7388 63.6446 70.7205 63.1724C70.6151 60.6178 69.8788 57.8862 68.5712 55.2355C67.3022 52.6626 65.4986 50.1695 63.2118 47.989C63.1696 47.9496 63.0926 47.8763 62.9789 47.7708C59.3358 44.381 55.196 42.4839 51.3449 42.0731C47.7497 41.6898 44.4111 42.6077 41.9959 44.8221C41.4659 45.3401 40.936 45.8573 40.4069 46.3744C29.8621 56.6716 19.4944 66.7973 13.6964 76.7163C15.3405 78.1568 16.3665 80.0575 16.7398 82.0804C17.1166 84.1243 16.826 86.2901 15.8329 88.2239L33.4756 101.468C33.8579 101.755 33.9304 102.291 33.637 102.667C33.3435 103.041 32.7961 103.111 32.4138 102.824L14.2329 89.1756C13.834 88.9262 13.7093 88.409 13.955 88.0092C15.0278 86.2744 15.3698 84.2626 15.0223 82.381C14.684 80.5462 13.69 78.8344 12.0781 77.6229C11.7131 77.3763 11.5912 76.8931 11.8103 76.5043C17.6522 66.1807 28.3197 55.7624 39.1734 45.1625C39.5649 44.7801 39.9555 44.3987 40.347 44.0154L40.3464 44.0179ZM64.3926 76.0123C62.6642 76.3754 60.7744 76.3763 58.8195 76.037C54.7246 75.3246 50.3259 73.1076 46.5666 69.6058C46.5198 69.5618 46.4364 69.4838 46.3181 69.371C43.8076 66.977 41.8436 64.2315 40.4854 61.4056C39.0669 58.454 38.304 55.4043 38.2637 52.5617C38.2573 52.0877 38.6442 51.6989 39.1284 51.6925C39.6125 51.686 40.0095 52.0656 40.0159 52.5388C40.0526 55.1411 40.7587 57.9478 42.0699 60.6785C43.3453 63.3331 45.1855 65.9067 47.5347 68.1468C47.5769 68.1871 47.6558 68.2605 47.7704 68.3678C51.2759 71.632 55.3488 73.6951 59.1229 74.3516C62.6751 74.9696 65.9431 74.3296 68.1538 72.2518C68.9332 71.477 69.7135 70.705 70.4911 69.9338C76.65 63.8326 82.7001 57.8387 87.7882 51.8125C89.3818 49.9246 90.8764 48.0347 92.2435 46.1395C93.4501 44.4661 94.5486 42.8018 95.5168 41.146C93.8728 39.7055 92.8467 37.8038 92.4735 35.7818C92.0966 33.738 92.3873 31.5721 93.3803 29.6383L75.7377 16.3941C75.3553 16.1071 75.2829 15.5707 75.5763 15.1957C75.8697 14.8216 76.4171 14.751 76.7995 15.038L94.9804 28.6866C95.3793 28.936 95.504 29.4532 95.2582 29.853C94.1854 31.5878 93.8434 33.5996 94.1909 35.4812C94.5293 37.316 95.5232 39.0278 97.1352 40.2393C97.5001 40.4859 97.6221 40.9692 97.4029 41.3579C96.3145 43.2826 95.0611 45.2055 93.6737 47.1291C92.2955 49.0391 90.7726 50.9647 89.1358 52.9031C83.9963 58.9898 77.9199 65.0103 71.7342 71.1383C60.9831 81.7893 49.902 92.7679 43.0027 104.849C42.767 105.26 42.2352 105.408 41.8143 105.177C41.3935 104.947 41.2431 104.425 41.4787 104.013C47.1802 94.0278 55.6187 84.8548 64.391 76.0117L64.3926 76.0123Z"/>
</mask>
<path d="M43.3352 116.21C53.2985 95.5286 65.382 83.3799 77.8671 70.8286C82.5599 66.11 87.3097 61.3348 92.0748 55.9605C94.9623 52.7036 97.8287 49.2551 100.646 45.512C103.478 41.7509 106.271 37.685 109.002 33.2068C109.061 33.1096 109.08 32.9922 109.06 32.8813C109.045 32.7868 109.003 32.7061 108.941 32.6594L67.5784 1.8833C67.5574 1.86771 67.539 1.85762 67.5234 1.85487C67.5097 1.85212 67.4932 1.85212 67.4739 1.85671C67.4482 1.86221 67.4262 1.8723 67.407 1.88605C67.3804 1.9053 67.3538 1.93832 67.3254 1.98324C65.3888 5.14395 63.4302 8.09362 61.4542 10.8701C59.4754 13.6503 57.4757 16.2643 55.4621 18.7501C49.1104 26.5907 42.6526 33.1131 36.3101 39.5187C23.7811 52.1723 11.7052 64.3701 1.94493 85.3108C1.89816 85.4107 1.88808 85.5198 1.91008 85.6189C1.92751 85.6968 1.96418 85.7647 2.01553 85.8068C2.02562 85.8142 2.03479 85.8215 2.04396 85.8288L43.0615 116.349C43.0844 116.366 43.1028 116.376 43.1184 116.378C43.133 116.381 43.1505 116.38 43.1706 116.374C43.2009 116.366 43.2275 116.351 43.2495 116.332C43.2816 116.304 43.31 116.265 43.3338 116.214L43.3357 116.212L43.3348 116.211L43.3352 116.21ZM75.3037 78.3096C75.2441 77.8411 75.5834 77.4138 76.0611 77.3551C76.5398 77.2964 76.9753 77.6284 77.0358 78.0969C77.2495 79.7309 77.299 81.34 77.189 82.886C77.078 84.4448 76.8048 85.9375 76.3738 87.3239C76.2335 87.7759 75.7466 88.0317 75.2845 87.8942C74.8223 87.7576 74.562 87.2799 74.7013 86.8278C75.0956 85.5597 75.3459 84.1917 75.4477 82.7613C75.5495 81.329 75.5036 79.8325 75.3037 78.3086L75.3037 78.3096ZM64.4024 96.9032C63.1994 96.7556 61.9818 96.4227 60.7786 95.9212C60.3339 95.7369 60.1248 95.2344 60.3128 94.7989C60.5008 94.3633 61.0142 94.1588 61.459 94.3431C62.9059 94.9465 64.3619 95.2702 65.7659 95.2766C66.9652 95.2821 68.1287 95.0538 69.2172 94.5678C70.2157 94.0873 71.2133 93.6087 72.2091 93.1319C80.0873 89.355 87.8281 85.6443 94.6401 81.6097C96.7821 80.3416 98.8297 79.0387 100.758 77.6908C100.776 77.678 100.794 77.6661 100.813 77.6551C102.487 76.4832 104.065 75.2784 105.528 74.035C104.459 72.1424 104.128 70.017 104.456 67.9896C104.787 65.9421 105.792 63.9928 107.385 62.4834L101.008 52.9685C100.744 52.5724 100.857 52.0424 101.261 51.7829C101.665 51.5243 102.207 51.6352 102.471 52.0304L109.259 62.1581L109.258 62.1599C109.498 62.5193 109.429 63.0053 109.083 63.285C107.492 64.5724 106.494 66.3612 106.188 68.2539C105.888 70.1051 106.253 72.0519 107.373 73.7168C107.621 74.068 107.569 74.5522 107.235 74.8428C105.586 76.2852 103.774 77.6827 101.829 79.0441C101.811 79.0588 101.793 79.0725 101.774 79.0863C99.8298 80.4443 97.7447 81.7703 95.5478 83.0714C88.6269 87.171 80.8731 90.8883 72.9811 94.6715C67.9573 97.0804 62.8765 99.5157 58.0269 102.035C57.6005 102.257 57.0714 102.1 56.8449 101.682C56.6185 101.265 56.7798 100.747 57.2062 100.525C59.6003 99.2809 62.0037 98.0788 64.4041 96.9023L64.4024 96.9032ZM31.3025 120.272C30.9412 120.586 30.3892 120.554 30.0683 120.201C29.7474 119.848 29.7804 119.307 30.1417 118.992C30.7578 118.458 31.4107 117.907 32.0947 117.344C32.7971 116.768 33.5205 116.186 34.2596 115.606C34.6365 115.31 35.1866 115.369 35.4892 115.738C35.7918 116.107 35.7313 116.646 35.3544 116.942C34.6026 117.532 33.8883 118.105 33.2189 118.656C32.5458 119.209 31.9049 119.749 31.3025 120.272L31.3025 120.272ZM5.07088 90.2285L30.6898 128.098C30.7063 128.122 30.7201 128.138 30.732 128.144C30.7439 128.151 30.7614 128.155 30.7843 128.156C30.8173 128.158 30.8466 128.153 30.8723 128.143C30.9071 128.129 30.9466 128.1 30.9906 128.056C34.8233 124.238 38.6075 120.899 42.3614 117.923C42.2385 117.866 42.1202 117.796 42.0056 117.71L5.0701 90.2276L5.07088 90.2285ZM45.68 115.38C56.8088 107.131 67.7157 101.803 78.8738 96.3539C84.9136 93.4043 91.0268 90.4187 97.2932 86.9059C101.109 84.7676 104.974 82.4377 108.903 79.808C112.839 77.1726 116.844 74.2368 120.932 70.889C121.022 70.8156 121.078 70.7111 121.098 70.6011C121.114 70.5066 121.103 70.4167 121.059 70.3526L105.237 46.9643C104.971 46.57 105.081 46.0391 105.483 45.7787C105.886 45.5183 106.428 45.6256 106.694 46.0198L122.516 69.4081C122.815 69.8501 122.909 70.3847 122.82 70.8926C122.733 71.385 122.471 71.86 122.056 72.1992C117.912 75.5928 113.862 78.5627 109.888 81.2227C105.907 83.8874 102.005 86.2401 98.1634 88.3931C91.8723 91.9195 85.7243 94.9216 79.6515 97.8879C63.7738 105.642 48.406 113.148 32.2421 129.253C32.0349 129.46 31.7993 129.617 31.5398 129.722C31.272 129.83 30.9887 129.878 30.6934 129.862C30.389 129.846 30.1103 129.767 29.8618 129.626C29.6133 129.486 29.4033 129.29 29.2346 129.04L0.838723 87.0675C0.5123 86.7787 0.294983 86.3972 0.201465 85.9837C0.0996864 85.5335 0.142781 85.042 0.350925 84.5945C10.2337 63.3905 22.416 51.0862 35.0541 38.3213C41.3689 31.9431 47.7995 25.4484 54.0932 17.6792C56.0811 15.2255 58.0581 12.6415 60.0165 9.8888C61.9787 7.13255 63.9171 4.21385 65.8262 1.09822C65.9692 0.864403 66.1462 0.670017 66.3553 0.515045C66.5717 0.355498 66.8174 0.24456 67.0897 0.184022C67.3685 0.121672 67.6399 0.118921 67.9012 0.17577C68.1607 0.232621 68.4055 0.345404 68.6329 0.515032L109.996 31.2911C110.426 31.612 110.696 32.087 110.782 32.5959C110.866 33.0874 110.779 33.6201 110.5 34.0758C107.729 38.6191 104.906 42.7307 102.051 46.5222C99.1831 50.3319 96.293 53.8119 93.3964 57.0789C88.6761 62.4036 83.8666 67.2384 79.1151 72.0158C67.0556 84.1412 55.374 95.8883 45.6772 115.378L45.68 115.38ZM61.641 68.7879C61.9253 68.6898 62.237 68.8365 62.337 69.1152C62.4369 69.3939 62.2874 69.6993 62.0032 69.7974C60.4719 70.3292 58.7197 70.3998 56.9041 70.0275C55.1344 69.6644 53.3013 68.8805 51.5556 67.6912C51.3071 67.5225 51.2457 67.1887 51.4181 66.9457C51.5905 66.7027 51.9306 66.6422 52.1791 66.8109C53.8049 67.9177 55.5002 68.6466 57.1278 68.9804C58.748 69.3123 60.2995 69.2537 61.6411 68.7888L61.641 68.7879ZM47.9816 47.8681C47.723 48.0203 47.3865 47.9378 47.2315 47.6838C47.0766 47.4298 47.16 47.1015 47.4195 46.9493C48.9618 46.0443 50.8377 45.7179 52.8304 45.9471C54.7862 46.1718 56.8565 46.9337 58.8316 48.2073C59.0837 48.3696 59.1544 48.7007 58.9884 48.9473C58.8233 49.194 58.485 49.2627 58.2328 49.1013C56.4017 47.9203 54.4935 47.2152 52.7036 47.0098C50.9495 46.8081 49.312 47.0868 47.9815 47.868L47.9816 47.8681ZM40.3464 44.0179L40.406 43.9583C40.5013 43.8621 40.5994 43.7676 40.6975 43.675C50.7517 33.8474 60.7737 23.8646 66.9691 13.7487C67.2175 13.3434 67.754 13.2114 68.1684 13.4544C68.5829 13.6974 68.7167 14.2237 68.4682 14.6289C63.0491 23.4763 54.8205 32.1561 46.1804 40.7103C47.8621 40.2867 49.6702 40.1739 51.5345 40.3729C55.7487 40.8222 60.2518 42.8733 64.1846 46.5328C64.2313 46.5759 64.3129 46.6538 64.4294 46.7648C66.8666 49.0883 68.7903 51.7482 70.1438 54.4937C71.5577 57.36 72.3536 60.3254 72.4691 63.1091C72.4865 63.5823 72.1097 63.9793 71.6274 63.9967C71.1441 64.0141 70.7388 63.6446 70.7205 63.1724C70.6151 60.6178 69.8788 57.8862 68.5712 55.2355C67.3022 52.6626 65.4986 50.1695 63.2118 47.989C63.1696 47.9496 63.0926 47.8763 62.9789 47.7708C59.3358 44.381 55.196 42.4839 51.3449 42.0731C47.7497 41.6898 44.4111 42.6077 41.9959 44.8221C41.4659 45.3401 40.936 45.8573 40.4069 46.3744C29.8621 56.6716 19.4944 66.7973 13.6964 76.7163C15.3405 78.1568 16.3665 80.0575 16.7398 82.0804C17.1166 84.1243 16.826 86.2901 15.8329 88.2239L33.4756 101.468C33.8579 101.755 33.9304 102.291 33.637 102.667C33.3435 103.041 32.7961 103.111 32.4138 102.824L14.2329 89.1756C13.834 88.9262 13.7093 88.409 13.955 88.0092C15.0278 86.2744 15.3698 84.2626 15.0223 82.381C14.684 80.5462 13.69 78.8344 12.0781 77.6229C11.7131 77.3763 11.5912 76.8931 11.8103 76.5043C17.6522 66.1807 28.3197 55.7624 39.1734 45.1625C39.5649 44.7801 39.9555 44.3987 40.347 44.0154L40.3464 44.0179ZM64.3926 76.0123C62.6642 76.3754 60.7744 76.3763 58.8195 76.037C54.7246 75.3246 50.3259 73.1076 46.5666 69.6058C46.5198 69.5618 46.4364 69.4838 46.3181 69.371C43.8076 66.977 41.8436 64.2315 40.4854 61.4056C39.0669 58.454 38.304 55.4043 38.2637 52.5617C38.2573 52.0877 38.6442 51.6989 39.1284 51.6925C39.6125 51.686 40.0095 52.0656 40.0159 52.5388C40.0526 55.1411 40.7587 57.9478 42.0699 60.6785C43.3453 63.3331 45.1855 65.9067 47.5347 68.1468C47.5769 68.1871 47.6558 68.2605 47.7704 68.3678C51.2759 71.632 55.3488 73.6951 59.1229 74.3516C62.6751 74.9696 65.9431 74.3296 68.1538 72.2518C68.9332 71.477 69.7135 70.705 70.4911 69.9338C76.65 63.8326 82.7001 57.8387 87.7882 51.8125C89.3818 49.9246 90.8764 48.0347 92.2435 46.1395C93.4501 44.4661 94.5486 42.8018 95.5168 41.146C93.8728 39.7055 92.8467 37.8038 92.4735 35.7818C92.0966 33.738 92.3873 31.5721 93.3803 29.6383L75.7377 16.3941C75.3553 16.1071 75.2829 15.5707 75.5763 15.1957C75.8697 14.8216 76.4171 14.751 76.7995 15.038L94.9804 28.6866C95.3793 28.936 95.504 29.4532 95.2582 29.853C94.1854 31.5878 93.8434 33.5996 94.1909 35.4812C94.5293 37.316 95.5232 39.0278 97.1352 40.2393C97.5001 40.4859 97.6221 40.9692 97.4029 41.3579C96.3145 43.2826 95.0611 45.2055 93.6737 47.1291C92.2955 49.0391 90.7726 50.9647 89.1358 52.9031C83.9963 58.9898 77.9199 65.0103 71.7342 71.1383C60.9831 81.7893 49.902 92.7679 43.0027 104.849C42.767 105.26 42.2352 105.408 41.8143 105.177C41.3935 104.947 41.2431 104.425 41.4787 104.013C47.1802 94.0278 55.6187 84.8548 64.391 76.0117L64.3926 76.0123Z" fill="#E5CFA9" stroke="#E5CFA9" stroke-width="2" mask="url(#path-1-inside-1_21_206)"/>
</svg>
