<svg width="200" height="174" viewBox="0 0 200 174" fill="none" xmlns="http://www.w3.org/2000/svg">
<path d="M58.9027 116.991C60.1812 118.453 62.3741 116.26 61.0956 114.799C57.2585 110.231 52.1446 114.067 48.1249 116.443C39.7209 121.741 31.3186 127.038 23.0974 132.337C21.4531 133.432 22.9145 136.174 24.7416 135.076C30.0402 131.605 35.5194 128.316 40.8181 124.845C43.375 123.203 55.6143 112.973 58.9029 116.991L58.9027 116.991Z" fill="#E5CFA9"/>
<path d="M66.3892 125.212C69.3119 123.385 68.9461 124.116 72.0517 124.48C72.9643 124.48 72.9643 124.663 74.0616 124.48C76.0716 124.297 76.0716 121.192 74.0616 121.375C72.0517 121.558 70.5903 119.548 68.3992 119.913C65.6594 120.279 63.4665 123.568 61.4565 125.029C53.9668 131.24 45.7459 136.721 37.3419 141.471C35.5148 142.384 37.159 145.125 38.9861 144.211C46.1098 140.192 52.687 135.807 59.2638 130.874C61.6395 129.23 63.8322 126.673 66.3893 125.212L66.3892 125.212Z" fill="#E5CFA9"/>
<path d="M88.3134 130.51C85.3907 126.309 81.1896 127.771 77.7183 130.693C69.497 137.453 61.459 144.211 52.8735 150.422C51.2293 151.701 52.8735 154.259 54.5177 153.162C59.0848 149.691 63.6515 146.402 68.2186 142.75C70.5926 140.923 83.1976 128.317 85.7565 132.155C86.6691 133.616 89.4107 132.155 88.3134 130.51V130.51Z" fill="#E5CFA9"/>
<path d="M195.912 3.36128C186.595 -3.58147 176 4.63971 169.789 11.3993C149.146 33.5043 129.234 56.3385 109.685 79.3592C109.319 79.3592 108.772 79.3592 108.223 79.7249C104.022 82.2818 101.1 86.1189 97.4456 89.2247C92.8785 93.243 87.763 96.3484 82.2834 99.0901C74.0621 98.1774 65.6599 97.2629 57.6218 99.4558C49.7666 101.649 43.5554 106.946 36.7954 111.148C28.5741 116.264 20.1719 120.648 11.2195 124.485C6.46962 126.495 1.71972 129.052 0.988175 134.168C0.0755164 134.899 -0.290258 135.995 0.256626 137.09C10.6689 159.744 34.2352 174.357 59.0822 173.993C59.9949 173.993 60.7264 173.445 61.0922 172.715C70.9576 171.437 78.0813 162.303 85.024 155.909C94.7066 146.775 104.389 137.822 114.071 128.688L114.437 128.323C115.533 127.957 116.081 127.044 115.715 125.583C113.705 120.101 110.966 114.988 107.494 110.421C111.695 106.949 116.081 103.478 120.282 100.008C123.571 97.2684 125.215 94.3458 125.032 90.1429C150.608 67.1254 175.088 43.0086 198.471 17.6182C199.019 17.0695 199.202 16.3397 199.019 15.6082C201.028 11.7676 199.932 6.28621 195.912 3.36362L195.912 3.36128ZM171.616 16.332C172.347 15.4193 173.26 14.5049 173.99 13.7751C175.634 12.3137 177.095 11.0353 178.922 9.75682C181.115 8.11261 183.49 6.65127 186.229 6.28549C187.69 5.91972 188.969 5.91972 190.43 6.28549C195.18 7.74684 195.911 10.4866 192.987 14.5068C192.621 14.8725 192.255 15.4194 191.891 15.7852C191.526 15.9681 191.343 16.151 191.16 16.5167C168.872 40.9955 145.304 64.3803 120.828 86.6645C120.828 86.4816 120.828 86.4816 120.645 86.2987C120.462 85.5671 119.366 85.0203 118.635 85.2031C116.99 84.2905 115.529 83.5589 114.251 82.8291C126.673 68.0311 139.095 53.2349 151.517 38.4369C151.883 37.8882 152.249 37.5242 152.796 36.9756C159.011 30.2138 165.222 23.2728 171.616 16.3306L171.616 16.332ZM117.724 92.6923C112.609 98.1737 107.312 103.105 101.465 107.854C101.282 107.854 100.916 107.854 100.733 108.037C106.945 102.556 112.79 96.7107 118.271 90.3168C118.09 91.2312 118.09 91.961 117.724 92.6925L117.724 92.6923ZM62.3695 167.959C61.8208 168.141 61.0911 168.324 60.3595 168.324C59.9938 168.324 59.628 168.507 59.264 168.69H58.8982C37.342 167.412 17.7941 155.172 6.83436 136.537V135.988C6.46859 133.978 9.39128 131.238 11.0355 130.143C12.4968 129.231 14.3239 128.682 15.9682 127.95C18.7079 126.672 21.4496 125.576 24.1894 124.296C30.2178 121.373 36.2458 118.085 41.91 114.796C47.0255 111.691 51.7754 107.854 57.0722 105.114C64.015 101.642 73.3316 104.018 80.4553 105.297C81.004 105.479 81.3679 105.297 81.7337 104.931C86.6664 104.382 90.3205 101.277 94.1561 97.9881C96.8959 95.6141 99.6375 93.2382 102.56 90.8644C103.839 89.7688 105.483 87.5759 107.127 86.8461C110.599 85.3848 113.338 85.9334 116.444 87.3948C110.962 93.9715 104.934 100 98.54 105.662C97.0786 106.941 98.9058 108.768 100.367 108.036C99.8184 108.585 99.4545 109.498 100.184 110.41C101.28 111.689 111.511 124.66 109.135 126.304C108.587 126.67 108.404 127.036 108.404 127.583C105.847 129.957 103.288 132.332 100.914 134.525C96.1641 138.726 91.4142 143.112 86.6647 147.313C82.8276 150.785 78.9922 154.073 74.9721 157.545C71.3214 160.833 67.1204 165.766 62.3705 167.959L62.3695 167.959Z" fill="#E5CFA9"/>
</svg>
