<svg width="41" height="40" viewBox="0 0 41 40" fill="none" xmlns="http://www.w3.org/2000/svg">
<path d="M39.9568 20.7274C40.1406 20.9163 40.2539 21.1713 40.2539 21.4587C40.2539 21.7422 40.1359 22.0061 39.9473 22.195L39.9375 22.2043C39.7492 22.3881 39.4891 22.5014 39.2062 22.5014C38.9183 22.5014 38.6588 22.3834 38.4704 22.195L38.4562 22.1853C38.2718 21.9967 38.1591 21.7369 38.1591 21.4584C38.1591 21.1657 38.2771 20.9062 38.4707 20.7174L38.4799 20.7081C38.6688 20.5243 38.9238 20.4062 39.2068 20.4062C39.4947 20.4062 39.759 20.5243 39.9479 20.7126L39.9568 20.7274ZM39.6451 21.459C39.6451 21.3365 39.5935 21.2277 39.5179 21.1473C39.4378 21.0717 39.329 21.0201 39.2062 21.0201C39.0882 21.0201 38.9794 21.0717 38.8993 21.1473C38.8192 21.2274 38.7721 21.3362 38.7721 21.459C38.7721 21.577 38.8189 21.6858 38.8993 21.7614C38.9794 21.8415 39.0882 21.8931 39.2062 21.8931C39.3287 21.8931 39.4375 21.8415 39.5179 21.7659C39.5935 21.6855 39.6451 21.577 39.6451 21.459V21.459Z" fill="#E5CFA9"/>
<path d="M36.5211 30.6983V30.7081C36.5119 32.1802 35.7237 33.1289 34.7089 33.5488C34.3172 33.7092 33.8928 33.7943 33.4725 33.7943C33.0482 33.7943 32.6277 33.7092 32.2315 33.5488C31.2173 33.1289 30.4291 32.1799 30.4196 30.7081V30.6844L30.424 13.5309L30.4196 13.5027C30.4196 13.4363 30.4385 13.3752 30.4762 13.328L33.1852 8.83054C33.2745 8.68406 33.4636 8.63691 33.6051 8.72173C33.6475 8.75019 33.6852 8.78813 33.7089 8.8258L34.5113 10.1374L34.5158 10.1425L36.4653 13.3182C36.4979 13.3701 36.5216 13.4315 36.5216 13.5027V30.694L36.5211 30.6983ZM35.9078 30.3867V29.8158H31.0331V30.3867H35.9078ZM35.9078 29.207V13.8042H31.0331V29.207H35.9078ZM35.8936 30.9954H31.0473C31.1464 32.0194 31.7318 32.6804 32.463 32.9868C32.7792 33.1146 33.124 33.1804 33.4728 33.1804C33.8174 33.1804 34.1617 33.1146 34.4778 32.9868C35.2094 32.6804 35.7942 32.0194 35.8935 30.9954H35.8936ZM35.6673 13.1955L34.0817 10.6046H32.8261L31.2689 13.1955H35.6673ZM33.7086 9.99574L33.4491 9.57136L33.1941 10.0005L33.7086 9.99574Z" fill="#E5CFA9"/>
<path d="M35.596 5.24415C35.7425 5.32897 35.7941 5.51285 35.7093 5.65933C35.6811 5.70621 35.6435 5.74415 35.596 5.77233L34.4828 6.41435C34.3363 6.49917 34.1524 6.44755 34.0676 6.30609C33.9825 6.15486 34.0299 5.97044 34.1758 5.88589L34.8368 5.50838L34.1758 5.1264C34.0299 5.04103 33.9822 4.85269 34.0676 4.71067C34.1524 4.56446 34.3363 4.51257 34.4828 4.59767L35.596 5.24415Z" fill="#E5CFA9"/>
<path d="M35.6197 16.1214V28.0649C35.6197 28.2348 35.4827 28.3718 35.3172 28.3718C35.1476 28.3718 35.0109 28.2348 35.0109 28.0649V16.1214C35.0109 15.9515 35.1479 15.8145 35.3128 15.8145C35.483 15.8145 35.6197 15.9515 35.6197 16.1214V16.1214Z" fill="#E5CFA9"/>
<path d="M30.684 38.5649C30.8536 38.5649 30.9903 38.7064 30.9903 38.8719C30.9903 39.0415 30.8533 39.1785 30.684 39.1785H29.0935C28.9236 39.1785 28.7866 39.0415 28.7866 38.8719C28.7866 38.7064 28.9236 38.5649 29.0935 38.5649H30.684Z" fill="#E5CFA9"/>
<path d="M29.6218 39.3862C29.7915 39.3862 29.9282 39.5232 29.9282 39.6932C29.9282 39.8628 29.7912 39.9998 29.6218 39.9998H26.2142C26.0446 39.9998 25.9078 39.8628 25.9078 39.6932C25.9078 39.5232 26.0448 39.3862 26.2142 39.3862H29.6218Z" fill="#E5CFA9"/>
<path d="M28.0454 7.55164V33.488C28.0454 33.6579 27.9084 33.7949 27.739 33.7949H7.64982C7.4799 33.7949 7.3429 33.6579 7.3429 33.488V31.0859H3.80356C3.63391 31.0859 3.49719 30.9489 3.49719 30.779V4.84766C3.49719 4.67802 3.63419 4.54102 3.80356 4.54102H23.8928C24.0627 4.54102 24.1997 4.67802 24.1997 4.84766V7.24493H27.739C27.9087 7.24493 28.0454 7.38166 28.0454 7.55185V7.55164ZM27.4321 33.1808V7.85807H24.1997V30.8023H24.1952V30.8307L24.1902 30.8399V30.8542L24.1858 30.8634V30.8684L24.1813 30.8776V30.8821L24.1768 30.8918V30.8963L24.1718 30.9061V30.9105L24.1673 30.9197L24.1629 30.9248L24.1584 30.9292L24.1534 30.9337V30.9435H24.1489V30.9479L24.1445 30.9571L24.14 30.9621L24.135 30.9666L24.1216 30.98L24.1166 30.9898L24.1076 30.9987L24.1032 31.0037H24.0981L24.0847 31.0171L24.075 31.0221L24.0674 31.0291L24.0535 31.0431H24.0443L24.0398 31.0475L24.0348 31.052H24.0256L24.0211 31.0565H24.0161L24.0116 31.0615H24.0072L23.9974 31.0659H23.9929L23.9885 31.0704H23.984L23.979 31.0749H23.9556L23.9511 31.0799H23.9419L23.9321 31.0844H23.8945L7.95666 31.0855V33.1806H27.4323L27.4321 33.1808ZM23.5861 30.4724V5.14965H4.10549V30.4724H23.5861Z" fill="#E5CFA9"/>
<path d="M20.6841 8.31669C20.854 8.31669 20.991 8.45368 20.991 8.62333C20.991 8.79325 20.854 8.93025 20.6841 8.93025L7.00842 8.92997C6.83878 8.92997 6.70178 8.79297 6.70178 8.62305C6.70178 8.45341 6.83878 8.31641 7.00842 8.31641L20.6841 8.31669Z" fill="#E5CFA9"/>
<path d="M20.6841 14.4414C20.854 14.4414 20.991 14.5829 20.991 14.7483C20.991 14.9182 20.854 15.055 20.6841 15.055H7.00842C6.83878 15.055 6.70178 14.9185 6.70178 14.7483C6.70178 14.5829 6.83878 14.4414 7.00842 14.4414H20.6841Z" fill="#E5CFA9"/>
<path d="M20.6841 20.5713C20.854 20.5713 20.991 20.7083 20.991 20.8782C20.991 21.0431 20.854 21.1849 20.6841 21.1849H7.00842C6.83878 21.1849 6.70178 21.0434 6.70178 20.8782C6.70178 20.7083 6.83878 20.5713 7.00842 20.5713H20.6841Z" fill="#E5CFA9"/>
<path d="M20.6841 26.6973C20.854 26.6973 20.991 26.8343 20.991 27.0036C20.991 27.1735 20.854 27.3105 20.6841 27.3105L7.00842 27.3108C6.83878 27.3108 6.70178 27.1738 6.70178 27.0039C6.70178 26.8343 6.83878 26.6975 7.00842 26.6975L20.6841 26.6973Z" fill="#E5CFA9"/>
<path d="M10.7076 34.4836C10.8538 34.6295 10.9437 34.8324 10.9437 35.0592C10.9437 35.281 10.8538 35.4836 10.7076 35.6301C10.5611 35.7763 10.3583 35.8661 10.1315 35.8661C9.90963 35.8661 9.70707 35.7763 9.56058 35.6301C9.41438 35.4836 9.32007 35.2808 9.32007 35.0592C9.32007 34.8324 9.41438 34.6298 9.56058 34.4836C9.70707 34.3371 9.90991 34.2476 10.1315 34.2476C10.3583 34.2476 10.5611 34.3371 10.7076 34.4836ZM10.3349 35.0592C10.3349 35.0026 10.3109 34.9554 10.2735 34.9178C10.2403 34.8801 10.1884 34.8611 10.1314 34.8611C10.0798 34.8611 10.0277 34.8801 9.99445 34.9178C9.95678 34.9554 9.93306 35.0026 9.93306 35.0592C9.93306 35.1108 9.9565 35.163 9.99445 35.1962C10.0276 35.2339 10.0795 35.2576 10.1314 35.2576C10.1881 35.2576 10.2403 35.2342 10.2735 35.1962C10.3109 35.163 10.3349 35.1108 10.3349 35.0592Z" fill="#E5CFA9"/>
<path d="M6.70112 0.982758C6.74353 1.14766 6.64448 1.31786 6.48404 1.36027L5.93661 1.5062C5.77617 1.54889 5.60625 1.45458 5.56384 1.28912C5.52143 1.12869 5.61574 0.959322 5.78092 0.916351L6.32389 0.76568C6.48879 0.727733 6.65368 0.82232 6.70111 0.982758H6.70112Z" fill="#E5CFA9"/>
<path d="M5.93689 2.30388C5.9793 2.46431 5.885 2.63423 5.72456 2.67665C5.55966 2.71906 5.38946 2.62447 5.34705 2.45957L5.20558 1.92637C5.16317 1.76594 5.2572 1.59602 5.42266 1.5536C5.58309 1.51119 5.75301 1.60522 5.79543 1.77068L5.93689 2.30388Z" fill="#E5CFA9"/>
<path d="M5.51692 0.736969C5.56379 0.897404 5.46474 1.06733 5.29984 1.10974C5.13913 1.15215 4.96948 1.05812 4.92707 0.892662L4.79007 0.382899C4.74738 0.218 4.84671 0.0478005 5.00715 0.0101292C5.17205 -0.0322814 5.33723 0.0623054 5.37992 0.222464L5.51692 0.736969Z" fill="#E5CFA9"/>
<path d="M5.17686 1.39301C5.21927 1.55791 5.12022 1.72281 4.95978 1.76578L4.40314 1.91645C4.24271 1.95886 4.07279 1.86483 4.03037 1.69937C3.98796 1.53894 4.08255 1.36902 4.24745 1.3266L4.80409 1.17593C4.96481 1.13324 5.13445 1.23257 5.17686 1.39301Z" fill="#E5CFA9"/>
<path d="M1.75083 23.8698L1.91573 24.4173L1.33091 24.5919L1.17048 24.049L0.585379 24.2236L0.419922 23.6717L1.00502 23.4971L1.16545 24.0445L1.75083 23.8698Z" fill="#E5CFA9"/>
<path d="M1.33088 24.5923L1.49578 25.1445L0.915701 25.3186L0.750244 24.7714L1.33088 24.5923Z" fill="#E5CFA9"/>
<path d="M0.580634 24.2192L0.745533 24.7711L0.160435 24.9461L0 24.3933L0.580634 24.2192Z" fill="#E5CFA9"/>
</svg>
