<svg width="200" height="200" viewBox="0 0 200 200" fill="none" xmlns="http://www.w3.org/2000/svg">
<path d="M69.0254 198.251C69.1984 199.024 68.7124 199.789 67.9391 199.965C67.1657 200.138 66.3998 199.652 66.2238 198.88L55.3167 150.488C54.9601 148.903 54.608 147.137 54.3567 145.394C54.1476 143.962 54.0076 142.514 53.9791 141.156C53.785 132.195 52.8716 122.686 50.3905 113.973C48.2118 106.312 44.8248 99.2773 39.6594 93.8038L39.6519 93.7963C37.5198 91.7563 35.6328 90.9339 34.0967 90.9084C33.4888 90.8979 32.9396 91.0121 32.4506 91.2241C31.9691 91.4331 31.5373 91.7443 31.1702 92.1261C30.3862 92.941 29.9198 94.0655 29.8581 95.2185C30.3501 97.1443 31.1807 98.5229 32.0158 99.9134C33.5265 102.424 35.0507 104.963 35.1621 110.449C35.2809 116.167 34.476 117.575 32.2566 121.465C31.9331 122.029 31.581 122.647 31.2394 123.268C29.7588 125.936 28.6875 130.434 30.3412 135.269C31.5389 138.772 34.1705 142.457 39.1131 145.784C39.7706 146.226 39.9467 147.113 39.5043 147.77C39.062 148.427 38.1742 148.602 37.5167 148.16C32.1494 144.551 29.1869 140.492 27.7559 136.573L23.7792 150.79C23.9628 150.991 24.1358 151.206 24.2998 151.447C24.6053 151.896 24.8746 152.424 25.1199 153.096C26.3537 156.491 27.6251 163.714 28.075 171.685C28.4241 177.895 28.2842 184.602 27.2414 190.374C27.1015 191.153 26.3567 191.672 25.5773 191.531C24.7979 191.391 24.2788 190.647 24.4202 189.868C25.4163 184.347 25.5487 177.871 25.2071 171.843C24.8039 164.673 23.7371 158.207 22.6613 154.784L16.7478 175.928C16.7042 176.082 16.6395 176.222 16.5537 176.348C15.2673 178.357 13.1276 179.107 10.8949 179.039C9.62946 179 8.33849 178.698 7.17691 178.217C6.00177 177.729 4.93348 177.046 4.13151 176.26C2.88716 175.039 2.25071 173.545 2.68254 172.01L11.2215 141.484C10.4812 140.468 9.73635 139.47 8.97802 138.55C8.07976 137.454 7.10923 136.394 6.00181 135.396C4.47761 134.253 3.0858 133.172 2.10483 132.343C1.32089 131.681 0.759672 131.146 0.418123 130.396C0.0374468 129.563 0.0118625 128.692 0.382011 127.505C0.583636 126.851 0.943233 126.158 1.357 125.501C1.86407 124.692 2.45692 123.942 2.91733 123.422C3.39582 122.887 3.89838 122.455 4.53182 122.165C4.81169 122.036 5.1006 121.942 5.40902 121.888C3.99914 120.43 2.72019 119.062 1.77829 117.977C0.96877 117.046 0.40154 116.309 0.142731 115.394C-0.141648 114.391 -0.0122465 113.393 0.631731 112.079C0.998864 111.335 1.55257 110.574 2.15893 109.874C2.91425 109.005 3.77643 108.203 4.446 107.65C5.10807 107.104 5.7731 106.691 6.53898 106.476C7.22207 106.282 7.93679 106.253 8.72824 106.437C7.61331 104.699 6.64733 103.06 6.02139 101.746C5.44962 100.544 5.22994 99.5408 5.39246 98.5171C5.55496 97.5038 6.06804 96.6093 6.9633 95.6036C7.62082 94.8639 8.37919 94.2566 9.11644 93.7785C10.0689 93.1636 11.0003 92.7578 11.6503 92.5503C11.6713 92.5428 11.6969 92.5352 11.718 92.5247C12.6027 92.2481 13.6018 92.2301 14.6731 92.5322C13.9644 90.8289 13.674 89.3211 13.7282 88.0025C13.8004 86.2059 14.4866 84.7763 15.615 83.7105C16.6894 82.6898 18.1428 82.0403 19.8175 81.7426C22.1331 81.3337 24.9228 81.6058 27.705 82.5334L49.9228 3.11031C50.3546 1.56937 51.6742 0.617736 53.3745 0.219369C54.4638 -0.0392088 55.7292 -0.0677696 56.9841 0.12616C58.2285 0.317084 59.4894 0.726 60.5908 1.34689C62.5468 2.45336 63.9913 4.21978 64.0349 6.62675C64.0379 6.76657 64.0199 6.90337 63.9853 7.02966L63.09 10.2228C84.8336 -2.97822 109.775 8.85473 134.42 20.5462C156.994 31.2545 179.31 41.8396 197.899 32.1778C198.603 31.811 199.47 32.0846 199.837 32.7881C200.031 33.1609 200.046 33.5789 199.912 33.9442L182.673 96.6722C182.63 96.827 182.565 97.0856 182.5 97.3291C182.001 99.2684 181.638 100.662 179.405 101.686C159.915 110.608 137.593 100.015 115.013 89.3071C89.887 77.3885 64.4413 65.3166 43.3328 80.8945L43.3148 80.9096L40.5823 90.6799C40.9314 91.0212 41.276 91.3654 41.61 91.7218L41.6281 91.7398C41.6642 91.7759 41.7003 91.812 41.7319 91.851C47.254 97.6947 50.8486 105.135 53.1462 113.209C55.6951 122.171 56.637 131.927 56.8341 141.111C56.8597 142.308 56.9966 143.64 57.1907 145.002C57.4345 146.693 57.7655 148.378 58.1041 149.873L69.0111 198.265L69.0254 198.251ZM45.8042 72.0641C55.8057 60.8462 77.6063 58.2377 94.8659 56.1768C99.5109 55.6205 103.825 55.1064 107.403 54.4885C97.657 50.2639 88.0034 46.8591 78.7287 45.9177C69.072 44.933 59.7897 46.6288 51.1726 52.8829L45.8053 72.0673L45.8042 72.0641ZM110.982 55.8897C110.979 55.9047 110.975 55.9182 110.972 55.9333L104.622 79.0413C104.579 79.1961 104.514 79.4547 104.449 79.6982C104.327 80.1763 104.212 80.6183 104.064 81.0377C108.124 82.8583 112.192 84.7871 116.252 86.7128C116.816 86.9789 117.377 87.248 117.942 87.5141C117.963 87.4314 117.985 87.3487 118.006 87.2661C118.053 87.0796 118.104 86.8857 118.19 86.573L124.856 62.3193C124.863 62.2802 124.874 62.2441 124.889 62.205L135.347 24.1476C134.636 23.8093 133.924 23.4726 133.212 23.1343C129.305 21.2807 125.393 19.4241 121.488 17.6667L110.987 55.8819L110.982 55.8897ZM107.606 57.3584C103.957 57.9838 99.7395 58.486 95.1985 59.0286C77.734 61.1153 55.4507 63.7778 46.8609 75.2858C63.7477 66.2478 82.4672 71.6071 101.423 79.8725C101.506 79.6034 101.586 79.3043 101.667 78.9855V78.9826C101.714 78.7961 101.765 78.6022 101.85 78.2925L107.603 57.3612L107.606 57.3584ZM132.564 45.0699C139.172 44.2792 143.618 44.3408 146.354 44.3799C146.871 44.3874 147.329 44.3949 147.712 44.3949C149.679 44.3919 151.653 44.4129 153.638 44.431C167.019 44.5678 180.731 44.7046 191.878 37.5817C175.214 42.0256 156.743 34.2262 137.971 25.3971L132.564 45.0699ZM196.239 36.1143C196.257 36.1323 196.273 36.1534 196.286 36.1714C196.301 36.1895 196.312 36.2075 196.325 36.2255L196.372 36.0602C196.328 36.0782 196.286 36.0962 196.242 36.1143L196.239 36.1143ZM195.729 38.3994C183.459 47.5956 168.342 47.4435 153.613 47.2931C151.631 47.272 149.661 47.254 147.713 47.257C147.299 47.257 146.843 47.2495 146.321 47.2419C144.021 47.2089 140.479 47.1593 135.41 47.6449C144.844 52.0241 154.162 55.9824 163.1 58.036C172.91 60.288 182.295 60.2414 190.919 55.8982L195.727 38.4022L195.729 38.3994ZM129.419 64.714C134.56 71.7258 141.531 78.181 149.714 83.6082C158.548 89.4669 168.779 94.1183 179.65 96.9701C179.679 96.8559 179.712 96.7401 179.744 96.6183V96.6153C179.79 96.4289 179.841 96.235 179.927 95.9253L185.848 74.3702C177.156 77.9977 167.876 77.8504 158.259 75.6134C148.876 73.4336 139.193 69.2694 129.422 64.7158L129.419 64.714ZM177.56 99.3766C166.883 96.4165 156.841 91.7803 148.127 85.9997C139.513 80.2854 132.187 73.4499 126.813 66.0037L120.952 87.3287C120.908 87.4865 120.844 87.7421 120.779 87.9856C120.707 88.2622 120.639 88.5283 120.574 88.7583C140.797 98.2851 160.634 106.675 177.559 99.3719L177.56 99.3766ZM66.3014 11.7099C74.6057 11.5731 82.2464 13.5274 89.1659 16.8289C98.6755 21.3613 106.814 28.4377 113.443 36.1137L118.833 16.501C100.397 8.44013 82.2699 3.16758 66.3006 11.7099H66.3014ZM109.138 35.5861C103.166 29.1278 96.0632 23.2945 87.9349 19.419C80.1483 15.7087 71.4048 13.7981 61.802 14.8715L56.5284 33.7264C64.8685 28.6829 73.7129 27.3178 82.8581 28.2195C91.4436 29.0674 100.255 31.9193 109.135 35.583L109.138 35.5861ZM52.3537 48.6474C60.7874 43.4968 69.7473 42.1213 79.0042 43.0654C88.7981 44.0636 98.8928 47.6598 109.052 52.0884L112.352 40.0766C102.221 35.6373 92.1864 32.0231 82.5732 31.0717C73.0382 30.1306 63.8675 31.8113 55.3437 37.936L52.3494 48.6474H52.3537ZM128.194 60.9717C138.653 65.8967 149.006 70.5196 158.896 72.8149C168.75 75.106 178.177 75.0925 186.841 70.7538L189.928 59.5148C181.275 63.1469 172.04 63.0281 162.461 60.8287C152.398 58.5196 141.99 53.9148 131.489 48.9747L128.192 60.9715L128.194 60.9717ZM52.6387 36.9843C52.6537 36.8008 52.7034 36.6219 52.7862 36.4566L61.1702 6.48424C61.0694 5.34167 60.2644 4.44719 59.1856 3.83684C58.4092 3.39937 57.4884 3.10473 56.569 2.96341C55.6587 2.8266 54.7709 2.84164 54.0382 3.01302C53.3295 3.17839 52.8119 3.46854 52.7005 3.87445L29.0776 88.3238C28.8654 89.086 28.0784 89.534 27.3126 89.322C26.5497 89.1101 26.1014 88.3238 26.3135 87.5586L26.9469 85.3021C24.5711 84.4873 22.2268 84.2347 20.3278 84.57C19.1993 84.7714 18.2574 85.1728 17.6104 85.7846C17.0131 86.3484 16.6505 87.1211 16.6113 88.1118C16.5617 89.4092 17.0251 91.0644 18.1686 93.1046L24.0247 103.56C24.3557 104.153 24.6822 104.67 25.0057 105.116C25.0418 105.16 25.0734 105.207 25.1065 105.253C25.6573 105.997 26.1884 106.536 26.6985 106.913C27.3741 107.409 27.9789 107.577 28.5025 107.528C29.0277 107.474 29.5242 107.202 29.9515 106.802C30.4872 106.306 30.9145 105.631 31.1914 104.922C31.22 104.85 31.2531 104.783 31.2892 104.721C30.7972 103.436 30.1787 102.407 29.5633 101.388C28.6003 99.7825 27.6434 98.1905 27.0506 95.7596C27.0145 95.6303 26.9964 95.4905 26.9964 95.3506C27.0295 93.4219 27.7939 91.5186 29.1104 90.1416C29.7259 89.4982 30.4691 88.9675 31.3253 88.6007C32.1739 88.2338 33.1234 88.0324 34.151 88.0504C35.3592 88.0715 36.6743 88.3947 38.0661 89.1058L52.6448 36.9845L52.6387 36.9843ZM26.643 130.193C26.664 126.853 27.6029 123.926 28.7359 121.881C29.1347 121.159 29.4657 120.583 29.7681 120.056C31.7061 116.664 32.4073 115.436 32.3019 110.508C32.2869 109.825 32.2478 109.197 32.1876 108.611C32.0898 108.711 31.9935 108.807 31.8897 108.902C31.0275 109.699 29.9697 110.26 28.7766 110.378C28.3703 110.418 27.9565 110.412 27.5367 110.342L28.4395 112.24C29.4025 114.047 28.8999 116.048 27.63 117.674C27.0733 118.388 26.3646 119.032 25.5732 119.541C24.7892 120.048 23.9165 120.428 23.0243 120.63L25.2527 123.191C26.6911 124.678 26.7513 126.754 25.9644 128.673C25.6198 129.506 25.1128 130.314 24.4868 131.018C23.8534 131.729 23.1025 132.344 22.2825 132.774C22.0704 132.885 21.8507 132.986 21.6325 133.076L21.7469 133.174C23.1492 134.252 23.4727 135.989 23.0619 137.7C22.8829 138.445 22.5654 139.18 22.1456 139.834C21.7183 140.498 21.1706 141.101 20.5416 141.569C19.1107 142.631 17.3066 143.006 15.4575 141.974C15.1701 141.812 14.7638 141.566 14.2748 141.245L14.2282 141.418C14.2101 141.544 14.1785 141.666 14.1274 141.781L5.45598 172.777C5.34162 173.185 5.63202 173.707 6.15414 174.217C6.68978 174.744 7.4406 175.215 8.28925 175.567C9.15142 175.926 10.0903 176.149 10.9826 176.177C12.2194 176.213 13.3765 175.869 14.0566 174.938L26.4563 130.614C26.4999 130.459 26.5646 130.32 26.6504 130.193L26.643 130.193ZM7.7324 133.109C7.78205 133.143 7.83321 133.177 7.87985 133.218C8.73602 133.857 9.63128 134.518 10.5145 135.154C13.2469 137.126 15.8528 138.911 16.8489 139.469C17.5471 139.856 18.2543 139.696 18.8336 139.267C19.1751 139.016 19.4806 138.67 19.7288 138.282C19.9876 137.884 20.1742 137.453 20.275 137.036C20.4375 136.357 20.3788 135.722 19.9771 135.428C19.9515 135.41 19.9274 135.392 19.9049 135.37L15.2676 131.459C15.2134 131.412 15.1637 131.361 15.1171 131.311C13.9886 130.309 12.4283 128.847 10.749 127.221C9.09241 126.014 7.52457 124.904 6.38097 124.721C6.10111 124.674 5.89197 124.7 5.73096 124.77C5.52934 124.864 5.30964 125.062 5.07344 125.331C4.68525 125.769 4.19625 126.386 3.79299 127.03C3.50109 127.49 3.25735 127.956 3.13093 128.359C2.99099 128.808 2.96542 129.059 3.03312 129.21C3.13695 129.44 3.47548 129.742 3.96752 130.158C4.92749 130.967 6.26815 132.012 7.73515 133.114L7.7324 133.109ZM12.7368 125.128C12.8692 125.226 12.9805 125.34 13.0678 125.467C14.8328 127.176 16.4112 128.649 17.4178 129.523L17.9354 129.957C17.9896 130.001 18.0392 130.043 18.0904 130.079C19.0007 130.79 20.0419 130.718 20.9492 130.241C21.4638 129.972 21.9378 129.58 22.344 129.124C22.7578 128.657 23.0918 128.129 23.3145 127.586C23.6952 126.66 23.7358 125.73 23.1851 125.176C23.1565 125.148 23.1279 125.119 23.1024 125.086L18.4681 119.76C18.0724 119.455 17.7023 119.077 17.3637 118.622C17.2193 118.428 17.0372 118.184 16.8205 117.893C16.0697 116.884 14.9186 115.338 13.6322 113.554C11.6987 111.625 9.85701 109.797 8.33736 109.304C7.9341 109.172 7.60761 109.164 7.32773 109.242C6.9937 109.336 6.65215 109.563 6.27747 109.868C5.71324 110.331 4.98647 111.013 4.3395 111.753C3.86853 112.291 3.45475 112.849 3.21401 113.341C2.91609 113.951 2.83333 114.331 2.91609 114.623C3.02442 115 3.39757 115.466 3.95579 116.107C5.57329 117.968 8.36007 120.833 11.088 123.532C11.6236 124.059 12.1518 124.581 12.6694 125.083L12.7085 125.112L12.7371 125.133L12.7368 125.128ZM15.8605 111.744C15.8785 111.765 15.8966 111.791 15.9101 111.816C17.2041 113.613 18.3687 115.175 19.121 116.184C19.3362 116.475 19.5198 116.722 19.6642 116.913C19.7364 117.013 19.8147 117.104 19.8974 117.186C20.0554 117.269 20.1999 117.38 20.3218 117.52L20.3504 117.553C20.9537 117.93 21.6699 117.988 22.3816 117.833C22.9459 117.711 23.5101 117.463 24.0277 117.129C24.5528 116.791 25.0163 116.371 25.3759 115.911C25.9913 115.121 26.2787 114.234 25.8935 113.551C25.8784 113.526 25.8649 113.497 25.8498 113.472H25.8468L22.6464 106.755C22.2688 106.227 21.8911 105.63 21.518 104.966L17.5713 97.9151C16.5316 96.765 15.5581 96.0118 14.6779 95.5834C13.8368 95.1775 13.1326 95.0918 12.5924 95.2631C12.5713 95.2707 12.5533 95.2737 12.5307 95.2812C12.0703 95.4285 11.4022 95.7232 10.6965 96.1787C10.1609 96.5275 9.60718 96.9694 9.12569 97.5076C8.59756 98.1045 8.30265 98.557 8.23794 98.9628C8.17324 99.3582 8.31016 99.8468 8.62914 100.519C10.0029 103.404 13.2064 108.05 15.8619 111.74L15.8605 111.744Z" fill="#EECF9B"/>
</svg>
