<svg width="40" height="43" viewBox="0 0 40 43" fill="none" xmlns="http://www.w3.org/2000/svg">
<path d="M39.2189 1.54357C38.8722 1.20001 38.4199 1.00623 37.9485 1.00017C37.4772 0.993719 37.0203 1.17536 36.6658 1.50944C35.7351 2.31564 34.8642 3.19839 34.061 4.15023C33.1342 5.12672 32.2076 6.10351 31.2808 7.08001C27.5057 11.0582 23.7302 15.0361 19.9554 19.0146C17.8082 21.2774 15.661 23.5401 13.5138 25.8025V25.8028C13.4881 25.8324 13.467 25.8662 13.4508 25.9026C13.3299 25.9033 13.2154 25.9606 13.1376 26.0599C11.807 26.0603 10.5183 26.5628 9.496 27.4801C8.47402 28.397 7.78248 29.6707 7.54223 31.0795C7.28084 32.7226 7.9928 34.3986 7.14309 35.9159C6.30923 37.4046 4.74471 38.0975 3.27433 38.6022C2.7924 38.7675 2.99814 39.5881 3.48394 39.4213C3.52868 39.4057 3.57377 39.389 3.61887 39.3731C3.65692 39.4095 3.70095 39.4379 3.74886 39.4573C6.89866 40.6674 10.653 41.882 13.7594 39.8524C14.9819 39.0288 15.9478 37.8309 16.5333 36.4122C16.6429 36.1525 16.7299 35.8832 16.8176 35.6147C16.8423 35.592 16.8627 35.5651 16.8782 35.5347C17.0931 34.8491 17.2467 34.143 17.3369 33.4263C17.4827 32.74 17.742 32.0873 18.102 31.4995C18.1327 31.4502 18.1531 31.3945 18.1619 31.3361C20.9467 27.4629 24.1258 23.9382 26.8553 20.0169C28.2264 18.0473 29.4365 15.9564 30.9101 14.0694C32.2484 12.3554 33.7073 10.7574 35.1157 9.1113C36.4522 7.58651 37.6786 5.95407 38.7837 4.22785C38.9007 4.24946 39.0201 4.20927 39.105 4.11977C39.4414 3.79707 39.6433 3.3424 39.6648 2.85738C39.6862 2.37275 39.5256 1.89913 39.2191 1.54345L39.2189 1.54357ZM13.4846 39.0357C10.8147 40.8775 7.55701 39.9757 4.74198 38.9333V38.9336C5.67134 38.5609 6.51393 37.9739 7.21079 37.2139C7.67722 36.6857 8.0281 36.0516 8.23701 35.3585C8.4142 34.566 8.43288 33.742 8.29267 32.9411C8.08799 31.3481 8.54984 29.7391 9.55382 28.5484C10.5568 27.4228 11.9673 26.8268 13.4135 26.917C14.6641 28.2741 15.846 29.703 16.9532 31.1971C16.9367 31.2149 16.9219 31.2339 16.9088 31.2544C16.6263 31.9457 16.4787 32.692 16.4752 33.4473C16.4061 34.2008 16.2409 34.9407 15.9837 35.6456C15.4993 37.0286 14.6256 38.214 13.4846 39.0358L13.4846 39.0357ZM17.6113 30.7254C16.4995 29.2203 15.313 27.7808 14.0567 26.4134C14.0613 26.4089 14.0666 26.4081 14.0712 26.4032L14.6401 25.8037C15.7734 27.0054 16.9071 28.2071 18.0404 29.4088V29.4092C18.0844 29.5176 18.1658 29.6041 18.2672 29.6496L18.3553 29.7429C18.108 30.0709 17.8526 30.3921 17.6113 30.7254L17.6113 30.7254ZM38.7615 2.70995C36.5833 6.64002 33.3652 9.68357 30.6208 13.1282C29.1723 14.9469 27.9632 16.9405 26.6604 18.8774C25.308 20.8888 23.8168 22.7859 22.3133 24.6668C21.1821 26.0816 20.0597 27.5041 18.9588 28.9458C18.9525 28.9336 18.9451 28.9223 18.9373 28.9109C17.76 27.6057 16.5548 26.3312 15.3218 25.0865L34.1326 5.26343C35.0235 4.32489 35.881 3.31131 36.8318 2.44325C37.2437 2.06707 37.8316 1.63819 38.3851 1.92563H38.3855C38.638 2.04811 38.8159 2.29915 38.8586 2.59379C38.8198 2.62527 38.7867 2.6647 38.7613 2.70907L38.7615 2.70995Z" fill="#E5CFA9"/>
<path d="M14.536 32.4235C14.1661 33.7487 13.5401 34.9743 12.6985 36.0206C12.3121 36.5572 11.8964 37.0688 11.4535 37.5522C11.251 37.7832 11.023 37.9872 10.7754 38.1597C10.5823 38.2867 10.2533 38.4851 10.0243 38.3918C9.54873 38.1984 9.34334 39.019 9.8147 39.2109C10.4301 39.4615 11.1806 38.9356 11.6311 38.5321C12.1807 38.0095 12.6806 37.4294 13.1241 36.8006C14.1208 35.6039 14.8623 34.1871 15.297 32.6494C15.4154 32.1181 14.6548 31.8914 14.5361 32.4234L14.536 32.4235Z" fill="#E5CFA9"/>
<path d="M28.0178 37.4232C27.3692 38.4713 26.2645 39.0852 25.0952 39.048C23.9626 38.8687 22.8491 38.5714 21.77 38.1599C20.7421 37.838 19.6461 37.871 18.6364 38.2547C17.6145 38.7284 16.6901 39.4167 15.9172 40.2786C15.5505 40.6582 16.1088 41.2585 16.4752 40.8793C17.2953 39.9111 18.3511 39.2096 19.5225 38.854C20.6868 38.7281 21.8613 38.9203 22.9379 39.4129C23.9478 39.8289 25.0378 39.9665 26.1098 39.8137C27.1706 39.5312 28.0943 38.8312 28.6991 37.8517C28.9993 37.4099 28.3148 36.9856 28.0178 37.4232L28.0178 37.4232Z" fill="#E5CFA9"/>
</svg>
