<svg width="202" height="220" viewBox="0 0 202 220" fill="none" xmlns="http://www.w3.org/2000/svg">
<path d="M199.371 2.98966C197.464 1.10005 194.976 0.0342826 192.384 0.000912418C189.791 -0.0345438 187.278 0.964484 185.329 2.80193C180.21 7.236 175.42 12.0911 171.002 17.3262C165.905 22.697 160.809 28.0693 155.711 33.44C134.948 55.3202 114.183 77.1988 93.4212 99.0806C81.6115 111.526 69.8023 123.97 57.9927 136.414V136.416C57.8512 136.578 57.735 136.764 57.6458 136.964C56.9813 136.968 56.3515 137.283 55.9233 137.83C48.6051 137.832 41.5175 140.595 35.8946 145.64C30.2738 150.684 26.4703 157.689 25.1489 165.437C23.7113 174.474 27.6271 183.693 22.9536 192.037C18.3674 200.226 9.76254 204.036 1.67547 206.812C-0.97515 207.721 0.156416 212.235 2.82831 211.317C3.07438 211.232 3.32239 211.14 3.5704 211.052C3.77966 211.252 4.02186 211.409 4.28537 211.515C21.6093 218.171 42.258 224.851 59.3433 213.688C66.0668 209.158 71.3797 202.57 74.5998 194.767C75.2024 193.339 75.681 191.858 76.1634 190.381C76.2991 190.256 76.4114 190.108 76.4967 189.941C77.6786 186.17 78.5234 182.287 79.0194 178.345C79.8215 174.57 81.2476 170.98 83.2278 167.747C83.3964 167.476 83.5087 167.17 83.5572 166.849C98.8737 145.546 116.358 126.16 131.371 104.593C138.912 93.7603 145.567 82.2602 153.672 71.8818C161.033 62.4548 169.057 53.6659 176.803 44.6122C184.154 36.2258 190.899 27.2474 196.977 17.7532C197.62 17.872 198.277 17.651 198.744 17.1587C200.595 15.3839 201.705 12.8832 201.823 10.2156C201.941 7.55015 201.058 4.9452 199.372 2.98896L199.371 2.98966ZM57.832 209.196C43.1474 219.326 25.2302 214.366 9.74752 208.633V208.635C14.859 206.585 19.4933 203.356 23.326 199.177C25.8914 196.271 27.8212 192.784 28.9702 188.972C29.9448 184.613 30.0475 180.081 29.2763 175.676C28.1506 166.914 30.6908 158.065 36.2126 151.516C41.7288 145.326 49.4871 142.047 57.4407 142.543C64.319 150.008 70.8198 157.866 76.9094 166.084C76.8183 166.182 76.7369 166.286 76.6653 166.399C75.1113 170.201 74.2995 174.306 74.2801 178.46C73.9003 182.605 72.9916 186.674 71.5772 190.551C68.913 198.157 64.1077 204.677 57.8321 209.197L57.832 209.196ZM80.5287 163.49C74.4138 155.212 67.8882 147.295 60.9787 139.774C61.0039 139.749 61.0329 139.745 61.0581 139.718L64.1873 136.42C70.4203 143.03 76.6557 149.639 82.8887 156.248V156.251C83.1309 156.847 83.5784 157.323 84.1364 157.573L84.6208 158.086C83.2607 159.89 81.8559 161.657 80.5287 163.49L80.5287 163.49ZM196.855 9.40474C184.875 31.0201 167.175 47.7597 152.081 66.7054C144.114 76.7079 137.464 87.6726 130.299 98.3259C122.861 109.388 114.659 119.823 106.39 130.167C100.168 137.949 93.9951 145.772 87.9402 153.702C87.9054 153.635 87.8647 153.572 87.822 153.51C81.3465 146.331 74.7182 139.321 67.9367 132.476L171.396 23.4489C176.296 18.2869 181.012 12.7122 186.242 7.93785C188.507 5.8689 191.741 3.51003 194.785 5.09098H194.787C196.176 5.76463 197.154 7.14535 197.389 8.76586C197.176 8.93897 196.994 9.15588 196.854 9.3999L196.855 9.40474Z" fill="#25366F"/>
<path d="M63.6154 172.829C61.581 180.119 58.1379 186.859 53.5091 192.614C51.3835 195.565 49.0973 198.379 46.6616 201.038C45.5475 202.308 44.2939 203.43 42.9318 204.379C41.87 205.078 40.0603 206.168 38.8009 205.655C36.1852 204.592 35.0555 209.105 37.648 210.16C41.033 211.539 45.1602 208.646 47.6383 206.427C50.661 203.553 53.4105 200.362 55.8499 196.904C61.3314 190.322 65.4096 182.53 67.8009 174.072C68.452 171.15 64.2687 169.903 63.6158 172.829L63.6154 172.829Z" fill="#25366F"/>
<path d="M137.764 200.327C134.197 206.091 128.121 209.468 121.69 209.263C115.461 208.277 109.336 206.642 103.401 204.379C97.7478 202.608 91.7197 202.79 86.1668 204.9C80.5459 207.505 75.4617 211.291 71.2108 216.031C69.1938 218.119 72.2649 221.421 74.2799 219.335C78.7906 214.01 84.5976 210.152 91.0399 208.196C97.4435 207.503 103.904 208.561 109.825 211.27C115.379 213.558 121.374 214.315 127.27 213.475C133.105 211.921 138.185 208.071 141.512 202.684C143.162 200.254 139.398 197.92 137.764 200.327L137.764 200.327Z" fill="#25366F"/>
</svg>
