<svg width="42" height="40" viewBox="0 0 42 40" fill="none" xmlns="http://www.w3.org/2000/svg">
<path d="M41.9437 14.0577C41.9437 14.0577 41.9436 14.0577 41.9436 14.0577C41.9436 13.7481 41.6856 13.5415 41.3761 13.5415C39.09 13.59 36.8038 13.8683 34.6042 14.5056C34.4055 14.5632 34.2564 14.4195 34.2564 14.2126V14.2126C34.3078 13.8511 34.3078 13.5415 34.3078 13.1804C34.3078 12.8189 34.2564 12.5093 34.2564 12.1482C34.2049 11.7867 34.1531 11.4771 34.0501 11.116C33.9469 10.8064 33.8954 10.4449 33.7407 10.1353C33.6374 9.82562 33.4826 9.51599 33.3279 9.20638C33.0223 8.59487 32.7166 8.03357 32.3611 7.47291C32.3523 7.45899 32.3475 7.44284 32.3475 7.42636V7.42636C32.3475 7.40925 32.3426 7.39235 32.3324 7.37863C32.2294 7.24061 32.0797 7.19627 31.8833 7.2453C30.645 7.65826 29.5099 8.22606 28.4782 8.94856C27.592 9.5396 26.7996 10.1779 26.0115 10.8182C25.9662 10.855 25.8608 10.8303 25.8491 10.7732V10.7732C25.8465 10.7609 25.8437 10.7495 25.8373 10.7387C25.6858 10.484 25.5344 10.1819 25.3829 9.92927C25.2281 9.67112 25.0734 9.41298 24.8668 9.1552C24.5055 8.69076 24.1446 8.17444 23.7832 7.71001L23.5252 7.34854L23.5018 7.31734C23.4143 7.20075 23.3187 7.0905 23.2157 6.98742V6.98742C23.0095 6.72928 22.8029 6.52298 22.5967 6.31633C22.1325 5.85188 21.6682 5.43893 21.2036 5.0775V5.0775C20.9011 4.87548 20.5523 5.20079 20.2977 5.46067C19.5374 6.23685 18.8742 7.08343 18.2113 7.96779C17.85 8.48408 17.489 8.99998 17.1277 9.46442V9.46442C16.656 10.1383 15.5205 10.2115 14.9035 9.66752C14.4571 9.27403 13.9733 8.91803 13.4645 8.58707C12.9484 8.27744 12.3809 7.96781 11.762 7.76116L10.9364 7.45153C10.6269 7.3482 10.2142 7.24523 9.8014 7.29672H9.74994V7.29672C9.49866 7.29672 9.38992 7.62208 9.29648 7.85534C8.84712 8.97712 8.48261 10.1027 8.20215 11.2708C8.03494 12.0066 7.91111 12.7207 7.81654 13.4412C7.73604 14.0545 7.15116 14.4142 6.55108 14.264V14.264C6.03501 14.1092 5.57074 14.0059 5.05511 13.9025C4.53904 13.7992 4.07478 13.7477 3.55914 13.6962L2.06316 13.4899L1.5457 13.4208C1.3764 13.3982 1.20434 13.4079 1.03865 13.4494V13.4494C0.931304 13.4763 0.821058 13.4899 0.710392 13.4899H0.464241V13.4899C0.398111 13.4899 0.332985 13.5134 0.276564 13.5479C0.259662 13.5583 0.237024 13.5727 0.20621 13.5933C3.73405e-07 13.7481 0 14.0577 0 13.9547V15.4514C0 15.9677 0.0514618 16.4836 0.103285 16.9999C0.206569 18.0321 0.361317 19.0128 0.567526 20.045C0.980305 22.058 1.70254 23.9676 2.73437 25.7227C3.76611 27.4775 5.15917 29.026 6.70701 30.3164C8.30626 31.6068 10.0603 32.5875 11.9694 33.3615C13.8267 34.1356 15.8388 34.5486 17.8509 34.8067C19.863 35.013 21.875 35.0649 23.9385 34.9101C25.9506 34.7552 27.9626 34.3423 29.9232 33.6197C31.832 32.8971 33.6893 31.9679 35.3404 30.6775C36.9915 29.3872 38.3327 27.7353 39.3131 25.9805C41.2729 22.3677 42.2532 18.1867 41.9438 14.0578C41.9438 14.0577 41.9437 14.0577 41.9437 14.0577V14.0577ZM28.7878 9.41229C29.2854 9.15022 29.783 8.9015 30.2941 8.68635C31.1784 8.31408 32.1749 8.7511 32.4506 9.67009V9.67009C32.6568 10.2893 32.8634 10.8571 33.0696 11.4768V11.4768C33.2727 12.0857 33.3825 12.7256 33.5856 13.3345V13.3345C33.6447 13.5999 33.7036 13.8654 33.7625 14.1405C33.839 14.4978 33.6307 14.8975 33.2762 14.986V14.986C31.9864 15.4504 30.6966 15.9668 29.5101 16.6378V16.6378C28.8195 17.0218 27.9368 16.6774 27.7343 15.9137C27.5109 15.0713 27.2522 14.2348 26.952 13.4133C26.4679 12.0884 26.8313 10.5526 28.0464 9.83641C28.2936 9.69074 28.5407 9.54969 28.7878 9.41229ZM16.509 11.3737C16.8185 10.8574 17.1798 10.393 17.5408 9.8771C17.9021 9.36081 18.3145 8.89634 18.6758 8.4319C19.0631 7.92523 19.4677 7.43574 19.8993 6.9734C20.443 6.39099 21.3562 6.3816 21.8743 6.9868V6.9868C22.0806 7.1931 22.2357 7.45124 22.4419 7.65789L22.4651 7.68109C22.5526 7.76862 22.6312 7.86456 22.6999 7.96752V7.96752L22.9579 8.329C23.3193 8.79344 23.6802 9.30976 24.0415 9.77419V9.77419C24.3856 10.2329 24.6538 10.7439 24.9488 11.2355C24.9559 11.2473 24.963 11.2591 24.97 11.2708C25.721 12.5686 26.359 13.9567 27.0037 15.3604C27.5804 16.6163 27.1851 18.0875 26.2079 19.0648V19.0648C25.7437 19.5811 25.2795 20.097 24.8667 20.6648C24.4538 21.2325 24.0929 21.8003 23.7831 22.4196C23.1126 23.6062 22.545 24.8966 22.1323 26.1869C21.9261 26.858 21.771 27.4773 21.5648 28.1484V28.1484C21.4915 28.4417 20.8393 28.4375 20.7538 28.1475C20.5178 27.3476 20.2059 26.5707 19.8622 25.8258C19.0367 23.9677 18.1082 22.161 16.8699 20.5611C16.2509 19.7352 15.5286 19.0126 14.7031 18.3419C14.5945 18.2332 14.4715 18.1388 14.3418 18.0511C14.1323 17.9095 14.0227 17.6579 14.0841 17.4126V17.4126C14.1874 17.103 14.2388 16.7934 14.3421 16.5352C14.5483 15.9675 14.7549 15.3482 14.9611 14.7804V14.7804C15.4077 13.6466 15.9295 12.5424 16.4707 11.4506C16.4835 11.4249 16.4962 11.3993 16.5089 11.3739L16.509 11.3737ZM8.66693 11.477C8.66697 11.477 8.66701 11.477 8.66702 11.477C8.9792 10.4959 9.3682 9.55352 9.83426 8.61615C9.97019 8.34274 10.2704 8.15901 10.5243 8.32857V8.32857L11.3499 8.74152C11.8659 8.99967 12.4335 9.3093 12.9491 9.56743C13.4652 9.82558 14.0327 10.0837 14.5483 10.3933V10.3933C15.3927 10.8157 15.722 11.9137 15.3991 12.8008C15.3906 12.8242 15.382 12.8477 15.3735 12.8711L14.7545 14.6259C14.5483 15.1936 14.3932 15.8129 14.2385 16.4325C14.1352 16.7422 14.0837 17.0518 14.0323 17.3614V17.3614C14.0089 17.5254 13.8193 17.6057 13.6832 17.5113C13.2135 17.1854 12.7377 16.8947 12.2268 16.6388C11.3439 16.1482 10.4196 15.7405 9.48011 15.3762C8.5349 15.0097 7.92154 14.0521 8.16743 13.0686C8.30108 12.534 8.46556 12.0055 8.66683 11.4771C8.66685 11.4771 8.66689 11.477 8.66693 11.477V11.477ZM40.396 19.9933C40.3959 19.9933 40.3959 19.9933 40.3959 19.9934C39.9831 21.903 39.3123 23.761 38.3324 25.4643C37.404 27.1675 36.1656 28.7161 34.6178 29.9546C33.1219 31.1934 31.3675 32.1224 29.5102 32.8449C27.6529 33.5675 25.7441 34.0319 23.7835 34.2386C21.8229 34.4967 19.8109 34.4967 17.8507 34.3419C15.8901 34.1871 13.9298 33.7227 12.0725 33C10.2152 32.3289 8.46119 31.2968 6.91335 30.0064C6.13962 29.3353 5.46879 28.6645 4.84987 27.8901C4.54038 27.5287 4.23088 27.0642 3.97286 26.7031C3.71483 26.2902 3.4568 25.8772 3.19914 25.4128C2.27067 23.658 1.6513 21.748 1.29034 19.8384C1.13559 18.8577 1.03231 17.877 0.929026 16.8963C0.929026 16.38 0.877564 15.9155 0.877564 15.3996V14.6083C0.877564 14.4753 0.985412 14.3674 1.11845 14.3674V14.3674C1.12987 14.3674 1.14127 14.3683 1.15257 14.3699L1.85786 14.4708L4.84989 14.8834C5.31413 14.9867 5.77835 15.0897 6.29445 15.193C8.20325 15.7093 10.0605 16.4318 11.8149 17.3093C13.569 18.2381 15.1682 19.3737 16.4066 20.9222C17.6449 22.4188 18.6248 24.1739 19.5537 25.9803C19.8324 26.5381 20.0978 27.1027 20.3281 27.6787C21.1456 29.7233 20.8506 31.9939 21.05 34.1868V34.1868C21.05 34.2368 21.0986 34.2382 21.1014 34.2383C21.1015 34.2383 21.1016 34.2383 21.1016 34.2383C21.153 34.2383 21.153 34.2382 21.153 34.1868C21.0497 31.5028 21.772 28.8705 22.6489 26.3414C23.1132 25.1025 23.6807 23.864 24.3515 22.7799C24.7128 22.2121 25.0737 21.6444 25.4865 21.1281C25.8993 20.6118 26.312 20.0959 26.7763 19.6314C27.7047 18.7026 28.7883 17.9796 29.9233 17.3603C31.0584 16.7411 32.2967 16.2763 33.5865 15.8637C35.0588 15.4155 36.5507 15.0864 38.0625 14.8888C39.6169 14.6857 40.9566 15.9209 40.8085 17.4814C40.7286 18.323 40.5912 19.1639 40.3961 19.9932C40.3961 19.9933 40.396 19.9933 40.396 19.9933V19.9933Z" fill="#E5CFA9"/>
</svg>
