<svg width="130" height="128" viewBox="0 0 130 128" fill="none" xmlns="http://www.w3.org/2000/svg">
<path d="M110.765 49.1342C110.774 49.1514 110.784 49.1686 110.793 49.1857C111.157 49.7993 111.397 50.3586 111.572 50.9405C111.747 51.5197 111.852 52.1116 111.951 52.8028L112.95 59.7966C113.017 60.2683 112.69 60.7047 112.218 60.7716C111.747 60.8384 111.31 60.5113 111.243 60.0396L110.244 53.0459C110.156 52.436 110.065 51.9191 109.919 51.4329C109.782 50.9793 109.595 50.5438 109.313 50.0667C109.304 50.0532 109.295 50.0396 109.286 50.0251C109.133 49.7721 108.984 49.5218 108.838 49.2752L106.053 44.6344C105.728 44.0931 105.211 43.4227 104.62 43.0992C104.552 43.0621 104.483 43.0305 104.413 43.0052L105.623 46.8798C105.789 47.2783 105.91 47.6849 106.002 48.0979C106.095 48.5135 106.158 48.9202 106.215 49.3259L107.461 58.1866C107.526 58.6583 107.197 59.0929 106.725 59.158C106.254 59.223 105.819 58.8942 105.754 58.4225L104.508 49.5617C104.456 49.1867 104.399 48.819 104.321 48.4747C104.247 48.144 104.151 47.8205 104.017 47.5078C104.006 47.4807 103.996 47.4536 103.988 47.4265H103.987L102.465 42.5544C102.415 42.4342 102.368 42.3041 102.32 42.1677C102.136 41.6607 101.901 41.0093 101.234 41.0508C101.203 41.0526 101.17 41.0571 101.135 41.0626C100.963 41.0924 100.845 41.1791 100.773 41.2939C100.675 41.4493 100.636 41.6616 100.65 41.883C100.651 41.9174 100.656 41.9526 100.661 41.9915L101.838 47.3371C101.844 47.3651 101.849 47.3931 101.852 47.4211C101.926 47.853 101.973 48.3319 102.003 48.8181C102.039 49.4018 102.048 50.0118 102.042 50.562L101.979 57.1799C101.975 57.6552 101.587 58.0374 101.112 58.0338C100.637 58.0302 100.255 57.6417 100.258 57.1673L100.322 50.5494C100.326 50.056 100.318 49.4922 100.283 48.9202C100.257 48.5027 100.216 48.0889 100.153 47.7121L99.1876 43.3306C99.1415 43.3396 99.0937 43.3451 99.044 43.3469C98.6301 43.3595 98.2669 43.421 98.003 43.5529C97.8485 43.6306 97.7328 43.7372 97.675 43.8818C97.4636 44.4104 97.2946 48.7703 97.1916 51.4169L97.1826 51.6581C97.1283 53.0488 96.8284 53.6126 96.4904 54.2469C96.4199 54.3788 96.3476 54.5143 96.2808 54.658C95.5615 56.1923 95.5714 58.0547 95.7729 60.0732C95.7757 60.094 95.7784 60.1148 95.7793 60.1356C95.8452 60.7871 95.9311 61.4548 96.0178 62.1334L96.082 62.634C96.1416 63.1057 95.8082 63.5358 95.3365 63.5954C94.8648 63.6551 94.4347 63.3217 94.3751 62.85L94.3109 62.3494C94.2251 61.6789 94.141 61.0175 94.0733 60.3678C93.8573 59.6946 93.4471 58.753 92.8968 57.7511C92.1685 56.4237 91.2134 55.0231 90.1707 54.0589C89.2625 53.2186 88.3074 52.7225 87.4508 52.9864C87.3406 53.0207 87.2258 53.0695 87.1083 53.1337C86.9692 53.2096 86.8589 53.29 86.7722 53.3731C86.5526 53.5855 86.4812 53.8638 86.5038 54.1683C86.5354 54.5803 86.7189 55.0448 86.9683 55.4984C87.4119 56.3071 88.0426 57.0481 88.4547 57.4737C89.2065 58.2517 89.6899 58.905 90.0233 59.6152C90.3604 60.3327 90.5239 61.0573 90.6387 61.9816C90.7697 63.0316 90.8637 64.0129 90.9423 64.837C91.254 68.0982 91.2929 68.5002 94.4836 71.0122C95.3854 71.7224 95.9908 72.7344 96.3134 74.0302C96.5546 74.9989 96.6351 76.1293 96.5619 77.4133C96.5926 77.3862 96.6242 77.3573 96.6558 77.3284L96.833 77.1639C98.8624 75.2862 102.206 72.1923 102.997 71.8535C103.557 71.614 104.122 71.6203 104.68 71.8056C105.2 71.9781 105.695 72.3089 106.153 72.7299C106.484 72.4372 106.881 72.2194 107.307 72.1218C107.897 71.9863 108.525 72.073 109.107 72.4833C109.159 72.5194 109.214 72.5628 109.274 72.6125C109.293 72.6269 109.313 72.6432 109.332 72.6595C110.635 73.8079 110.308 74.9492 109.89 75.8899C110.157 76.1049 110.365 76.3652 110.524 76.6561C110.878 75.7561 111.225 74.9086 111.561 74.0917C113.676 68.9385 115.278 65.035 114.676 56.344C114.597 55.191 114.236 53.9577 113.744 52.7495C113.238 51.5071 112.596 50.2998 111.974 49.2318C111.647 48.6707 111.262 48.2668 110.781 48.0147C110.532 47.8846 110.252 47.7888 109.933 47.7273C110.196 48.1846 110.472 48.6526 110.763 49.1324L110.765 49.1342ZM93.7453 117.874C93.9305 117.641 94.2694 117.602 94.5025 117.787C94.7356 117.972 94.7745 118.311 94.5892 118.544C93.6025 119.781 92.426 120.729 91.0986 121.368C89.7694 122.009 88.2948 122.337 86.7144 122.337C86.4162 122.337 86.1749 122.096 86.1749 121.798C86.1749 121.5 86.4162 121.259 86.7144 121.259C88.1339 121.259 89.4514 120.967 90.6306 120.398C91.8116 119.83 92.8616 118.982 93.7454 117.874H93.7453ZM104.796 41.3109C104.41 40.4245 104.056 39.5805 103.716 38.7664C101.568 33.6276 99.9405 29.7349 93.3712 24.0169C92.492 23.2515 91.3671 22.6344 90.1716 22.1311C88.9463 21.6151 87.6361 21.2148 86.4334 20.8977C85.8064 20.7323 85.2479 20.7197 84.7256 20.8823C84.4582 20.9654 84.1916 21.0965 83.9232 21.2772C84.188 21.3486 84.4573 21.419 84.7311 21.4895L85.5064 21.6829C86.2166 21.8609 86.7976 22.0904 87.3506 22.3877C87.8792 22.6714 88.3744 23.0166 88.9364 23.4386L94.5885 27.6773C94.969 27.962 95.0458 28.5014 94.7602 28.8818C94.4756 29.2622 93.9361 29.3391 93.5557 29.0535L87.9036 24.8148C87.4139 24.4479 86.9856 24.1488 86.5338 23.9058C86.1073 23.6762 85.6519 23.4973 85.088 23.3564L78.9922 21.832C78.376 21.6784 77.5347 21.5691 76.8914 21.757C76.8164 21.7787 76.7441 21.8058 76.6754 21.8383L80.2572 23.7151C80.671 23.8832 81.0488 24.0883 81.4057 24.3142C81.7535 24.5347 82.0888 24.7795 82.4231 25.0317L89.5698 30.4161C89.9502 30.7035 90.0252 31.2438 89.7387 31.6242C89.4514 32.0046 88.9111 32.0797 88.5306 31.7932L81.3839 26.4087C81.0876 26.1856 80.7912 25.9687 80.4813 25.7726C80.1894 25.5874 79.893 25.4256 79.5858 25.3028C79.5433 25.2856 79.5027 25.2657 79.4647 25.2431L75.0037 22.9047C74.8871 22.8568 74.7516 22.7926 74.6097 22.7267C74.1218 22.4981 73.4956 22.2044 73.0537 22.705C73.0447 22.7158 73.0347 22.7258 73.0257 22.7357C73.0158 22.7493 73.0049 22.7637 72.9923 22.7818C72.8929 22.9237 72.8703 23.0709 72.901 23.2056C72.9417 23.3845 73.0628 23.5616 73.2281 23.7071C73.2688 23.7423 73.3058 23.773 73.3411 23.7974L73.3564 23.8092L77.9213 26.7268L77.9538 26.7485L77.9548 26.7467C78.3198 27.0034 78.7056 27.3187 79.0852 27.6548C79.5424 28.0588 79.9761 28.4807 80.3484 28.8602L84.9838 33.5843C85.3173 33.9231 85.3127 34.4689 84.9739 34.8023C84.635 35.1358 84.0893 35.1312 83.7558 34.7924L79.1204 30.0683C78.7626 29.7033 78.355 29.3066 77.9448 28.9443C77.6222 28.6596 77.2888 28.3877 76.9626 28.1581L76.9635 28.1572L73.2189 25.7635C73.1927 25.8033 73.1619 25.8412 73.1285 25.8774C72.843 26.181 72.6279 26.4819 72.5367 26.7584C72.4815 26.9237 72.4761 27.0819 72.5376 27.2264C72.7626 27.7523 75.7263 30.9556 77.5246 32.8984L77.6882 33.0755C78.6333 34.0966 78.8186 34.7065 79.0282 35.3934C79.0689 35.5262 79.1104 35.6636 79.171 35.8316C79.7484 37.4265 81.0731 38.7368 82.6445 40.0225C82.659 40.0333 82.6725 40.0442 82.6861 40.0559C83.1939 40.4707 83.7279 40.8827 84.2692 41.302L84.6686 41.611C85.0445 41.9019 85.1141 42.4423 84.824 42.8191C84.5331 43.195 83.9927 43.2646 83.6159 42.9745L83.2165 42.6655C82.6815 42.2517 82.1529 41.8432 81.6451 41.4312C81.0108 41.105 80.0548 40.7282 78.965 40.411C77.5166 39.989 75.8503 39.6755 74.4216 39.7306C73.1873 39.7785 72.1627 40.102 71.7443 40.8926C71.6865 41.002 71.6395 41.1176 71.6034 41.2396C71.5591 41.3905 71.5374 41.5252 71.5356 41.6453C71.5302 41.9544 71.6757 42.2019 71.9061 42.3989C72.2214 42.67 72.6805 42.8688 73.1765 43.0134C74.0612 43.2709 75.0307 43.3495 75.6225 43.3585C76.7078 43.3766 77.512 43.4968 78.2457 43.7625C78.9939 44.0326 79.6219 44.4293 80.3556 45.0004C81.1906 45.6501 81.9505 46.2772 82.5893 46.8049C85.1177 48.8913 85.4292 49.1489 89.463 48.6681C90.6016 48.5326 91.7428 48.8199 92.885 49.5076C93.7425 50.0226 94.5991 50.7654 95.4566 51.725C95.4584 51.6852 95.4611 51.6446 95.462 51.6021L95.471 51.3608C95.5786 48.5986 95.7548 44.0471 96.0755 43.2456C96.3023 42.6791 96.7081 42.2824 97.233 42.0194C97.7201 41.7754 98.3038 41.6589 98.9273 41.6336C98.9544 41.1935 99.0809 40.7607 99.3131 40.3893C99.6357 39.8752 100.141 39.4902 100.843 39.3682C100.93 39.3529 101.024 39.342 101.125 39.3357C102.858 39.2273 103.434 40.2637 103.803 41.2242C104.143 41.1872 104.474 41.2233 104.791 41.3164L104.796 41.3109ZM105.309 38.105C106.26 40.3821 107.314 42.9003 108.932 45.9212C109.98 45.9194 110.845 46.1055 111.579 46.4904C112.368 46.9043 112.976 47.5269 113.466 48.369C114.126 49.5003 114.806 50.7798 115.344 52.1028C115.897 53.46 116.304 54.8696 116.398 56.2305C117.027 65.3117 115.358 69.3788 113.154 74.748C112.217 77.0314 111.18 79.5569 110.189 82.837C110.934 83.5789 111.414 84.3235 111.661 85.115C111.925 85.9626 111.915 86.831 111.666 87.7743C111.334 89.033 110.91 90.4155 110.351 91.7419C109.779 93.0991 109.071 94.3859 108.181 95.407C102.202 102.275 98.146 103.971 92.7914 106.209C90.5143 107.161 87.9961 108.215 84.9753 109.833C84.9771 110.881 84.7909 111.746 84.406 112.479C83.9921 113.268 83.3696 113.876 82.5274 114.367C81.3961 115.027 80.1166 115.706 78.7936 116.245C77.4364 116.798 76.0268 117.204 74.6659 117.298C65.5505 117.93 61.5105 116.291 56.1323 114.11C53.8389 113.18 51.2953 112.148 47.99 111.158C47.2707 111.864 46.5478 112.323 45.7816 112.562C44.934 112.826 44.0656 112.816 43.1223 112.566C41.8636 112.235 40.4811 111.811 39.1547 111.251C37.7975 110.679 36.5107 109.971 35.4896 109.082C28.6215 103.103 26.9254 99.0465 24.6871 93.6919C23.7356 91.4148 22.682 88.8966 21.0637 85.8757C20.0156 85.8775 19.1508 85.6914 18.4172 85.3065C17.6283 84.8926 17.0202 84.27 16.5295 83.4279C15.8699 82.2966 15.1904 81.0171 14.6519 79.6941C14.0989 78.3369 13.6923 76.9273 13.5983 75.5664C12.9694 66.4852 14.6383 62.4181 16.8421 57.0489C17.7791 54.7655 18.8155 52.24 19.8067 48.9599C19.0621 48.218 18.5814 47.4734 18.3347 46.6819C18.0709 45.8343 18.0808 44.9659 18.3302 44.0226C18.6618 42.7639 19.0856 41.3814 19.645 40.055C20.2169 38.6978 20.9254 37.411 21.8145 36.3899C27.7937 29.5218 31.8499 27.8257 37.2045 25.5874C39.4816 24.636 41.9998 23.5823 45.0207 21.964C45.0189 20.9159 45.205 20.0511 45.5899 19.3175C46.0038 18.5286 46.6264 17.9205 47.4685 17.4299C48.5998 16.7702 49.8793 16.0907 51.2023 15.5522C52.5595 14.9992 53.9691 14.5926 55.33 14.4986C64.4084 13.8697 68.4547 15.5323 73.804 17.7308C76.0937 18.6715 78.6291 19.7133 81.9338 20.71C82.6765 19.9636 83.422 19.4829 84.2135 19.2362C85.0611 18.9724 85.9295 18.9823 86.8728 19.2317C88.1315 19.5633 89.514 19.9871 90.8404 20.5465C92.1977 21.1184 93.4844 21.8269 94.5055 22.716C101.374 28.6952 103.07 32.7514 105.308 38.106L105.309 38.105ZM74.9895 21.0062C75.2027 20.7415 75.4612 20.5345 75.7494 20.3755C74.835 20.0159 73.9765 19.6635 73.1489 19.3237C68.0147 17.2138 64.1311 15.6179 55.4438 16.2198C54.2908 16.2994 53.0575 16.6599 51.8493 17.1524C50.6068 17.6584 49.3996 18.2999 48.3316 18.9225C47.7704 19.2496 47.3665 19.6345 47.1144 20.1152C46.9843 20.3637 46.8885 20.6438 46.8271 20.9628C47.2843 20.6999 47.7524 20.4243 48.2322 20.1333C48.2494 20.1234 48.2665 20.1134 48.2837 20.1044C48.8972 19.7412 49.4566 19.5008 50.0385 19.3255C50.6177 19.1511 51.2095 19.0454 51.9008 18.9469L58.8946 17.9475C59.3662 17.8807 59.8027 18.2078 59.8695 18.6794C59.9364 19.1511 59.6093 19.5876 59.1376 19.6544L52.1438 20.6538C51.5339 20.7414 51.0171 20.8327 50.5309 20.9791C50.0773 21.1155 49.6418 21.3026 49.1647 21.5845C49.1511 21.5935 49.1376 21.6026 49.1231 21.6116C48.8701 21.7652 48.6198 21.9143 48.3731 22.0598L43.7324 24.8447C43.1911 25.1699 42.5206 25.6868 42.1971 26.2778C42.1601 26.3455 42.1285 26.4151 42.1032 26.4847L45.9778 25.2748C46.3763 25.1085 46.7829 24.9883 47.1958 24.8962C47.6115 24.8031 48.0181 24.7398 48.4238 24.6829L57.2846 23.4369C57.7563 23.3718 58.1909 23.7007 58.256 24.1724C58.321 24.6441 57.9921 25.0787 57.5204 25.1437L48.6597 26.3898C48.2847 26.4422 47.9169 26.4991 47.5726 26.5769C47.2419 26.6509 46.9184 26.7467 46.6058 26.8805C46.5787 26.8922 46.5516 26.9021 46.5245 26.9103V26.9112L41.6524 28.4328C41.5322 28.4825 41.4021 28.5295 41.2656 28.5783C40.7587 28.7618 40.1072 28.9967 40.1488 29.6635C40.1506 29.6952 40.1551 29.7277 40.1605 29.7629C40.1904 29.9346 40.2771 30.053 40.3919 30.1253C40.5473 30.2229 40.7596 30.2617 40.981 30.2482C41.0153 30.2464 41.0506 30.2418 41.0894 30.2364L46.435 29.0599C46.4631 29.0536 46.4911 29.0491 46.5191 29.0455C46.951 28.9723 47.4299 28.9244 47.916 28.8946C48.4998 28.8584 49.1097 28.8503 49.66 28.8557L56.2779 28.919C56.7532 28.9226 57.1354 29.3111 57.1318 29.7855C57.1282 30.2608 56.7396 30.643 56.2652 30.6394L49.6474 30.5762C49.154 30.5717 48.5901 30.5798 48.0182 30.615C47.6007 30.6403 47.1868 30.6819 46.81 30.7452L42.4286 31.7102C42.4376 31.7563 42.443 31.8042 42.4448 31.8539C42.4575 32.2677 42.5189 32.631 42.6509 32.8948C42.7286 33.0493 42.8352 33.165 42.9798 33.2228C43.5084 33.4343 47.8683 33.6032 50.5148 33.7063L50.7561 33.7153C52.1467 33.7695 52.7106 34.0695 53.3448 34.4074C53.4767 34.4779 53.6123 34.5502 53.756 34.6171C55.2903 35.3364 57.1527 35.3264 59.1712 35.1249C59.192 35.1222 59.2128 35.1195 59.2335 35.1186C59.885 35.0526 60.5528 34.9668 61.2314 34.88L61.732 34.8159C62.2037 34.7562 62.6338 35.0897 62.6934 35.5614C62.753 36.0331 62.4196 36.4632 61.9479 36.5228L61.4473 36.5869C60.7769 36.6728 60.1154 36.7568 59.4657 36.8246C58.7925 37.0405 57.851 37.4508 56.849 38.0011C55.5216 38.7293 54.1211 39.6844 53.1569 40.7272C52.3166 41.6353 51.8205 42.5904 52.0843 43.4471C52.1187 43.5573 52.1675 43.672 52.2316 43.7895C52.3075 43.9287 52.3879 44.0389 52.4711 44.1257C52.6834 44.3452 52.9617 44.4166 53.2663 44.394C53.6783 44.3624 54.1428 44.179 54.5964 43.9296C55.4051 43.4859 56.146 42.8552 56.5716 42.4432C57.3496 41.6914 58.0029 41.208 58.7132 40.8745C59.4306 40.5375 60.1553 40.3739 61.0796 40.2592C62.1296 40.1281 63.1109 40.0342 63.935 39.9556C67.1962 39.6438 67.5982 39.605 70.1101 36.4143C70.8204 35.5125 71.8324 34.9071 73.1282 34.5845C74.0968 34.3432 75.2272 34.2628 76.5122 34.336C76.4851 34.3053 76.4562 34.2736 76.4272 34.242L76.2637 34.0649C74.386 32.0354 71.2912 28.6913 70.9532 27.9006C70.7138 27.3413 70.7201 26.7757 70.9054 26.2181C71.0779 25.6977 71.4087 25.2025 71.8297 24.7444C71.537 24.4137 71.3192 24.017 71.2216 23.5905C71.0861 23.0013 71.1728 22.3733 71.5831 21.7905C71.6192 21.739 71.6626 21.6839 71.7123 21.6243C71.7267 21.6044 71.743 21.5845 71.7593 21.5655C72.9077 20.2625 74.049 20.5896 74.9897 21.008L74.9895 21.0062ZM77.553 36.4143C77.5204 36.3249 77.4906 36.2336 77.4608 36.1414C77.4337 36.1414 77.4066 36.1396 77.3795 36.136C75.8497 35.9634 74.5648 35.9987 73.5409 36.2544C72.6283 36.4812 71.9325 36.886 71.4672 37.477C68.5016 41.244 68.0182 41.2901 64.0984 41.666C63.3674 41.7355 62.4973 41.8196 61.2909 41.9696C60.5319 42.0644 59.959 42.1882 59.4439 42.4295C58.9217 42.6744 58.4093 43.0602 57.7678 43.681C57.2681 44.1644 56.3934 44.9072 55.4284 45.4367C54.7796 45.7927 54.0811 46.0584 53.3962 46.1099C52.6037 46.1704 51.8529 45.9572 51.2321 45.3156C51.0432 45.1204 50.8724 44.8882 50.7225 44.6153C50.6032 44.3985 50.5101 44.1762 50.4396 43.9485C49.9625 42.4006 50.6601 40.8916 51.8962 39.5552C52.8459 38.5278 54.1209 37.5971 55.3804 36.8499C54.5663 36.7352 53.781 36.5219 53.0292 36.1704C52.9371 36.127 52.8521 36.0846 52.7708 36.043C52.7509 36.0629 52.7292 36.081 52.7066 36.099C51.504 37.0577 50.6221 37.9894 50.08 38.8911C49.5948 39.6989 49.3878 40.4787 49.4773 41.227C50.0438 45.9862 49.7348 46.3602 47.2291 49.3963C46.762 49.9629 46.2062 50.636 45.459 51.5966C44.9882 52.2011 44.6701 52.6944 44.4777 53.2276C44.2807 53.7742 44.1903 54.4095 44.175 55.2977C44.1632 55.9926 44.0701 57.1374 43.762 58.1955C43.5551 58.9066 43.2487 59.5888 42.8033 60.1075C42.2846 60.7111 41.6033 61.0933 40.7133 61.0779C40.4413 61.0734 40.1557 61.0301 39.8558 60.9424C39.6109 60.871 39.3877 60.7807 39.1853 60.674C37.7513 59.9159 37.1766 58.3536 37.1052 56.5329C37.051 55.1414 37.2959 53.5817 37.6591 52.1595C37.0022 52.6547 36.2956 53.0595 35.5149 53.3424C35.4254 53.3749 35.3341 53.4047 35.242 53.4345C35.242 53.4616 35.2402 53.4887 35.2366 53.5158C35.064 55.0456 35.0992 56.3306 35.3549 57.3544C35.5817 58.267 35.9865 58.9628 36.5775 59.4281C40.3446 62.3937 40.3906 62.8772 40.7665 66.7969C40.8361 67.5279 40.9201 68.3981 41.0701 69.6044C41.165 70.3634 41.2888 70.9363 41.53 71.4514C41.7749 71.9737 42.1608 72.486 42.7815 73.1276C43.265 73.6273 44.0077 74.502 44.5372 75.4669C44.8933 76.1157 45.1589 76.8142 45.2104 77.4991C45.271 78.2916 45.0577 79.0425 44.4161 79.6633C44.221 79.8521 43.9887 80.0229 43.7159 80.1729C43.499 80.2922 43.2767 80.3852 43.049 80.4557C41.5012 80.9328 39.9921 80.2352 38.6558 78.9991C37.6284 78.0494 36.6977 76.7744 35.9505 75.5149C35.8357 76.3291 35.6224 77.1143 35.271 77.8661C35.2276 77.9583 35.1851 78.0432 35.1435 78.1245C35.1634 78.1444 35.1815 78.1661 35.1996 78.1887C36.1583 79.3914 37.0899 80.2733 37.9916 80.8153C38.7994 81.3006 39.5793 81.5075 40.3275 81.418C45.0867 80.8515 45.4608 81.1605 48.4968 83.6662C49.0634 84.1334 49.7366 84.6891 50.6971 85.4364C51.3016 85.9071 51.795 86.2252 52.3281 86.4177C52.8748 86.6147 53.51 86.705 54.3983 86.7204C55.0931 86.7321 56.238 86.8252 57.296 87.1333C58.0071 87.3402 58.6894 87.6466 59.208 88.092C59.8116 88.6107 60.1938 89.292 60.1785 90.1821C60.174 90.4541 60.1306 90.7396 60.0429 91.0396C59.9716 91.2845 59.8812 91.5076 59.7746 91.7101C59.0165 93.1441 57.4542 93.7188 55.6335 93.7901C54.2419 93.8444 52.6823 93.5995 51.2601 93.2362C51.7553 93.8931 52.1601 94.5998 52.4429 95.3805C52.4754 95.4699 52.5053 95.5612 52.5351 95.6534C52.5622 95.6534 52.5893 95.6552 52.6164 95.6588C54.1462 95.8314 55.4311 95.7961 56.4549 95.5404C57.3676 95.3136 58.0633 94.9088 58.5287 94.3178C61.4942 90.5508 61.9777 90.5047 65.8974 90.1288C66.6285 90.0592 67.4986 89.9752 68.705 89.8252C69.464 89.7303 70.0369 89.6066 70.5519 89.3653C71.0742 89.1204 71.5866 88.7346 72.2281 88.1138C72.7278 87.6304 73.6025 86.8876 74.5675 86.3581C75.2163 86.0021 75.9147 85.7364 76.5997 85.6849C77.3921 85.6244 78.143 85.8376 78.7638 86.4792C78.9527 86.6744 79.1234 86.9066 79.2734 87.1795C79.3927 87.3963 79.4858 87.6186 79.5563 87.8463C80.0334 89.3942 79.3358 90.9032 78.0997 92.2396C77.15 93.267 75.875 94.1977 74.6155 94.9449C75.4296 95.0596 76.2149 95.2729 76.9666 95.6244C77.0588 95.6677 77.1437 95.7102 77.2251 95.7518C77.245 95.7319 77.2666 95.7138 77.2892 95.6958C78.4919 94.7371 79.3738 93.8054 79.9159 92.9037C80.4011 92.0959 80.608 91.3161 80.5186 90.5678C79.952 85.8086 80.2611 85.4346 82.7668 82.3985C83.2339 81.8319 83.7896 81.1587 84.5369 80.1982C85.0077 79.5937 85.3258 79.1003 85.5182 78.5672C85.7152 78.0205 85.8056 77.3853 85.8209 76.4971C85.8327 75.8022 85.9257 74.6574 86.2339 73.5993C86.4408 72.8882 86.7471 72.206 87.1926 71.6873C87.7113 71.0837 88.3926 70.7015 89.2826 70.7168C89.5546 70.7214 89.8402 70.7647 90.1401 70.8524C90.385 70.9238 90.6082 71.0141 90.8106 71.1208C92.2446 71.8789 92.8193 73.4412 92.8907 75.2619C92.9449 76.6534 92.7 78.2131 92.3368 79.6352C92.9937 79.1401 93.7003 78.7353 94.481 78.4524C94.5705 78.4199 94.6617 78.3901 94.7539 78.3603C94.7539 78.3332 94.7557 78.306 94.7593 78.2789C94.9319 76.7491 94.8967 75.4642 94.641 74.4404C94.4142 73.5278 94.0093 72.832 93.4184 72.3666C89.6513 69.4011 89.6053 68.9176 89.2294 64.9979C89.1598 64.2669 89.0758 63.3967 88.9258 62.1903C88.8309 61.4313 88.7071 60.8584 88.4658 60.3434C88.221 59.8211 87.8351 59.3088 87.2143 58.6672C86.7309 58.1675 85.9881 57.2928 85.4586 56.3279C85.1026 55.6791 84.837 54.9806 84.7855 54.2957C84.7249 53.5032 84.9382 52.7523 85.5797 52.1315C85.7749 51.9427 86.0071 51.7719 86.28 51.6219C86.4969 51.5026 86.7191 51.4096 86.9469 51.3391C88.4947 50.862 90.0038 51.5595 91.3401 52.7957C92.3675 53.7454 93.2982 55.0203 94.0454 56.2798C94.1602 55.4657 94.3734 54.6805 94.7249 53.9287C94.7683 53.8365 94.8108 53.7516 94.8523 53.6703C94.8325 53.6504 94.8144 53.6287 94.7963 53.6061C93.8376 52.4034 92.906 51.5215 92.0043 50.9794C91.1964 50.4942 90.4166 50.2873 89.6684 50.3767C84.9092 50.9433 84.5351 50.6343 81.499 48.1286C80.9325 47.6614 80.2593 47.1048 79.2988 46.3584C78.6943 45.8876 78.2009 45.5696 77.6678 45.3771C77.1211 45.1801 76.4859 45.0898 75.5976 45.0744C74.9028 45.0627 73.7579 44.9696 72.6999 44.6615C71.9887 44.4545 71.3065 44.1482 70.7879 43.7027C70.1842 43.1841 69.802 42.5028 69.8174 41.6127C69.8219 41.3407 69.8653 41.0552 69.9529 40.7552C70.0243 40.5103 70.1147 40.2871 70.2213 40.0847C70.9794 38.6507 72.5417 38.076 74.3624 38.0047C75.754 37.9504 77.3136 38.1953 78.7358 38.5586C78.2406 37.9016 77.8358 37.195 77.553 36.4143ZM40.3195 27.0893C40.2824 26.7495 40.3186 26.4188 40.4117 26.1017C39.5252 26.4875 38.6813 26.8408 37.8671 27.1815C32.7283 29.3293 28.8356 30.9566 23.1176 37.5259C22.3523 38.4051 21.7351 39.5301 21.2318 40.7256C20.7158 41.9509 20.3156 43.2611 19.9984 44.4637C19.833 45.0908 19.8204 45.6492 19.983 46.1715C20.0662 46.439 20.1972 46.7047 20.377 46.973C20.4529 46.6911 20.5288 46.4047 20.6038 46.1119L20.7836 45.3908C20.9616 44.6806 21.1911 44.0996 21.4884 43.5465C21.7722 43.0179 22.1173 42.5228 22.5393 41.9607L26.7781 36.3086C27.0627 35.9282 27.6021 35.8514 27.9825 36.1369C28.363 36.4216 28.4398 36.961 28.1542 37.3414L23.9155 42.9935C23.5486 43.4833 23.2495 43.9116 23.0065 44.3634C22.777 44.7899 22.5981 45.2453 22.4571 45.8091L20.9327 51.9049C20.7791 52.5212 20.6698 53.3624 20.8577 54.0058C20.8794 54.0808 20.9065 54.1531 20.9391 54.2217L22.8158 50.64C22.9839 50.2261 23.189 49.8484 23.4149 49.4915C23.6354 49.1436 23.8803 48.8084 24.1324 48.4741L29.5168 41.3274C29.8042 40.947 30.3445 40.872 30.725 41.1584C31.1054 41.4458 31.1804 41.9861 30.8939 42.3665L25.5095 49.5132C25.2863 49.8096 25.0694 50.106 24.8733 50.4159C24.6881 50.7077 24.5264 51.0041 24.4035 51.3114C24.3863 51.3538 24.3664 51.3945 24.3438 51.4324L22.0054 55.8935C21.9575 56.0109 21.8934 56.1456 21.8274 56.2874C21.5988 56.7754 21.3051 57.4016 21.8057 57.8434C21.8166 57.8525 21.8265 57.8624 21.8364 57.8714C21.85 57.8814 21.8644 57.8922 21.8825 57.9049C22.0244 58.0043 22.1717 58.0269 22.3063 57.9961C22.4852 57.9555 22.6623 57.8344 22.8078 57.669C22.843 57.6284 22.8738 57.5913 22.8982 57.5561L22.9099 57.5407L25.8276 52.9758L25.8493 52.9433L25.8474 52.9424C26.1041 52.5773 26.4194 52.1915 26.7556 51.812C27.1595 51.3548 27.5815 50.921 27.961 50.5479L32.685 45.9124C33.0238 45.579 33.5696 45.5835 33.9031 45.9224C34.2365 46.2612 34.232 46.807 33.8931 47.1404L29.1691 51.7759C28.804 52.1337 28.4073 52.5412 28.045 52.9514C27.7603 53.274 27.4884 53.6074 27.2589 53.9336L27.258 53.9327L24.8642 57.6774C24.904 57.7036 24.942 57.7343 24.9781 57.7677C25.2817 58.0533 25.5826 58.2683 25.8591 58.3596C26.0245 58.4147 26.1826 58.4201 26.3272 58.3587C26.8531 58.1337 30.0554 55.1708 31.9992 53.3716L32.1763 53.2072C33.1973 52.262 33.8073 52.0768 34.4941 51.8671C34.6269 51.8265 34.7643 51.7849 34.9324 51.7244C36.5272 51.147 37.8375 49.8223 39.1232 48.2508C39.134 48.2364 39.1449 48.2228 39.1566 48.2093C39.5714 47.7015 39.9834 47.1674 40.4027 46.6262L40.7117 46.2268C41.0027 45.8509 41.543 45.7813 41.9198 46.0713C42.2957 46.3623 42.3653 46.9027 42.0753 47.2795L41.7662 47.6789C41.3524 48.2138 40.944 48.7424 40.5319 49.2502C40.2057 49.8846 39.8289 50.8406 39.5118 51.9303C39.0898 53.3788 38.7762 55.0451 38.8313 56.4737C38.8792 57.708 39.2027 58.7327 39.9934 59.151C40.1027 59.2088 40.2184 59.2558 40.3403 59.292C40.4912 59.3362 40.6259 59.3579 40.7461 59.3597C41.0551 59.3652 41.3027 59.2197 41.4997 58.9893C41.7707 58.6739 41.9695 58.2149 42.1141 57.7188C42.3716 56.8342 42.4502 55.8646 42.4593 55.2728C42.4773 54.1876 42.5975 53.3834 42.8632 52.6496C43.1334 51.9014 43.53 51.2734 44.1011 50.5397C44.7508 49.7048 45.3779 48.9449 45.9056 48.306C47.992 45.7777 48.2496 45.4661 47.7688 41.4323C47.6333 40.2938 47.9206 39.1525 48.6083 38.0104C49.1233 37.1529 49.8661 36.2962 50.8257 35.4388C50.7859 35.437 50.7453 35.4343 50.7028 35.4333L50.4615 35.4243C47.6993 35.3168 43.1479 35.1406 42.3463 34.8198C41.7798 34.593 41.3831 34.1873 41.1201 33.6623C40.8762 33.1752 40.7596 32.5915 40.7343 31.968C40.2943 31.9409 39.8614 31.8144 39.49 31.5822C38.9759 31.2596 38.591 30.7545 38.469 30.0524C38.4536 29.9657 38.4428 29.8717 38.4364 29.7705C38.328 28.0374 39.3644 27.4618 40.325 27.0922L40.3195 27.0893ZM20.1069 55.9073C19.8394 55.6922 19.6316 55.432 19.4725 55.1411C19.1183 56.041 18.7713 56.8886 18.4361 57.7055C16.3208 62.8586 14.7188 66.7622 15.3204 75.4531C15.3999 76.6061 15.7605 77.8395 16.2529 79.0477C16.7589 80.2901 17.4005 81.4973 18.0231 82.5654C18.3502 83.1265 18.7351 83.5304 19.2158 83.7825C19.4643 83.9126 19.7444 84.0084 20.0634 84.0698C19.8004 83.6126 19.5249 83.1446 19.2339 82.6648C19.224 82.6476 19.214 82.6304 19.205 82.6133C18.8417 81.9997 18.6014 81.4404 18.4261 80.8585C18.2517 80.2793 18.146 79.6874 18.0475 78.9961L17.0481 72.0024C16.9812 71.5307 17.3083 71.0943 17.78 71.0274C18.2517 70.9605 18.6881 71.2876 18.755 71.7593L19.7544 78.7531C19.842 79.363 19.9333 79.8799 20.0797 80.366C20.2161 80.8196 20.4031 81.2552 20.6851 81.7323C20.6941 81.7458 20.7031 81.7594 20.7122 81.7738C20.8658 82.0269 21.0149 82.2771 21.1604 82.5238L23.9452 87.1646C24.2705 87.7058 24.7874 88.3763 25.3783 88.6998C25.4461 88.7368 25.5157 88.7685 25.5853 88.7938L24.3753 84.9191C24.2091 84.5206 24.0889 84.114 23.9967 83.7011C23.9037 83.2854 23.8404 82.8788 23.7835 82.4731L22.5374 73.6123C22.4724 73.1406 22.8013 72.706 23.273 72.641C23.7446 72.5759 24.1793 72.9048 24.2443 73.3765L25.4904 82.2373C25.5428 82.6123 25.5997 82.98 25.6774 83.3243C25.7515 83.655 25.8473 83.9785 25.981 84.2911C25.9928 84.3183 26.0027 84.3454 26.0109 84.3725H26.0118L27.5334 89.2446C27.5831 89.3647 27.6301 89.4949 27.6789 89.6313C27.8623 90.1382 28.0973 90.7897 28.7641 90.7482C28.7957 90.7463 28.8283 90.7418 28.8635 90.7364C29.0352 90.7066 29.1536 90.6198 29.2259 90.5051C29.3234 90.3497 29.3623 90.1373 29.3487 89.9159C29.3469 89.8816 29.3424 89.8464 29.337 89.8075L28.1605 84.4619C28.1542 84.4339 28.1497 84.4059 28.1461 84.3779C28.0729 83.9459 28.025 83.467 27.9952 82.9809C27.959 82.3972 27.9509 81.7872 27.9563 81.2369L28.0196 74.6191C28.0232 74.1438 28.4117 73.7616 28.8861 73.7652C29.3614 73.7688 29.7436 74.1573 29.74 74.6317L29.6768 81.2496C29.6722 81.7429 29.6804 82.3068 29.7156 82.8788C29.7409 83.2962 29.7825 83.7101 29.8457 84.0869L30.8108 88.4684C30.8569 88.4593 30.9048 88.4539 30.9545 88.4521C31.3683 88.4395 31.7316 88.378 31.9954 88.2461C32.1499 88.1684 32.2656 88.0617 32.3234 87.9172C32.5349 87.3885 32.7038 83.0286 32.8068 80.3821L32.8159 80.1408C32.8701 78.7502 33.1701 78.1863 33.508 77.5521C33.5785 77.4202 33.6508 77.2847 33.7177 77.141C34.4369 75.6067 34.427 73.7443 34.2255 71.7258C34.2228 71.705 34.2201 71.6842 34.2192 71.6634C34.1532 71.0119 34.0674 70.3442 33.9806 69.6656L33.9165 69.1649C33.8568 68.6933 34.1903 68.2632 34.6619 68.2035C35.1336 68.1439 35.5637 68.4773 35.6234 68.949L35.6875 69.4496C35.7734 70.1201 35.8574 70.7815 35.9252 71.4312C36.1411 72.1044 36.5513 73.0459 37.1016 74.0479C37.8299 75.3753 38.785 76.7759 39.8278 77.74C40.7359 78.5804 41.691 79.0765 42.5476 78.8126C42.6579 78.7783 42.7726 78.7295 42.8901 78.6653C43.0293 78.5894 43.1395 78.509 43.2262 78.4258C43.4458 78.2135 43.5172 77.9352 43.4946 77.6307C43.463 77.2187 43.2796 76.7542 43.0302 76.3006C42.5865 75.4919 41.9558 74.7509 41.5437 74.3253C40.792 73.5473 40.3085 72.894 39.9751 72.1838C39.6381 71.4663 39.4745 70.7416 39.3597 69.8174C39.2287 68.7674 39.1347 67.7861 39.0561 66.9619C38.7444 63.7008 38.7055 63.2987 35.5148 60.7868C34.6131 60.0766 34.0076 59.0646 33.685 57.7688C33.4438 56.8001 33.3634 55.6697 33.4366 54.3857C33.4058 54.4128 33.3742 54.4417 33.3426 54.4706L33.1655 54.6351C31.136 56.5128 27.7926 59.6066 27.0012 59.9455C26.4419 60.185 25.8762 60.1787 25.3187 59.9934C24.7983 59.8208 24.3031 59.4901 23.845 59.069C23.5142 59.3618 23.1176 59.5796 22.6911 59.6772C22.1019 59.8127 21.4739 59.7259 20.8911 59.3157C20.8396 59.2796 20.7845 59.2362 20.7248 59.1865C20.705 59.172 20.6851 59.1558 20.6661 59.1395C19.3631 57.9911 19.6902 56.8498 20.1086 55.9091L20.1069 55.9073ZM26.1899 90.5778C25.8502 90.6148 25.5195 90.5787 25.2023 90.4856C25.5881 91.372 25.9414 92.216 26.2821 93.0301C28.43 98.1689 30.0573 102.062 36.6266 107.78C37.5058 108.545 38.6307 109.162 39.8262 109.665C41.0515 110.181 42.3617 110.582 43.5643 110.899C44.1914 111.064 44.7499 111.077 45.2721 110.914C45.5062 110.841 45.7384 110.733 45.9724 110.585C45.5116 110.462 45.0381 110.34 44.5484 110.22C44.4092 110.186 44.2854 110.119 44.1851 110.03C43.6104 109.866 43.1189 109.661 42.6472 109.408C42.1186 109.124 41.6234 108.779 41.0614 108.357L35.4093 104.118C35.0289 103.834 34.952 103.294 35.2376 102.914C35.5222 102.533 36.0617 102.457 36.4421 102.742L42.0942 106.981C42.5839 107.348 43.0123 107.647 43.4641 107.89C43.8906 108.119 44.346 108.298 44.9098 108.439L51.0056 109.964C51.6219 110.117 52.4631 110.227 53.1065 110.039C53.1814 110.017 53.2537 109.99 53.3224 109.957L49.7406 108.081C49.3268 107.912 48.9491 107.707 48.5922 107.481C48.2443 107.261 47.9091 107.016 47.5747 106.764L40.428 101.38C40.0476 101.092 39.9726 100.552 40.2591 100.171C40.5464 99.791 41.0868 99.716 41.4672 100.002L48.6139 105.387C48.9102 105.61 49.2066 105.827 49.5166 106.023C49.8084 106.208 50.1048 106.37 50.412 106.493C50.4545 106.51 50.4952 106.53 50.5331 106.552L54.9941 108.891C55.1116 108.939 55.2462 109.003 55.3881 109.069C55.8761 109.298 56.5022 109.591 56.9441 109.091C56.9531 109.08 56.9631 109.07 56.9721 109.06C56.9821 109.046 56.9929 109.032 57.0056 109.014C57.1049 108.872 57.1275 108.725 57.0968 108.59C57.0562 108.411 56.9351 108.234 56.7697 108.089C56.729 108.053 56.692 108.023 56.6568 107.998L56.6414 107.986L52.0765 105.069L52.044 105.047L52.0431 105.049C51.678 104.792 51.2922 104.477 50.9127 104.141C50.4554 103.737 50.0217 103.315 49.6485 102.935L45.0131 98.2113C44.6797 97.8725 44.6842 97.3267 45.023 96.9933C45.3619 96.6599 45.9077 96.6644 46.2411 97.0032L50.8765 101.727C51.2344 102.092 51.6419 102.489 52.0521 102.851C52.3747 103.136 52.7081 103.408 53.0343 103.637L53.0334 103.638L56.778 106.032C56.8042 105.992 56.835 105.954 56.8684 105.918C57.1539 105.615 57.369 105.314 57.4603 105.037C57.5154 104.872 57.5208 104.714 57.4594 104.569C57.2344 104.043 54.2715 100.841 52.4723 98.8972L52.3078 98.7201C51.3627 97.699 51.1774 97.0891 50.9678 96.4022C50.9271 96.2694 50.8856 96.132 50.825 95.964C50.2476 94.3691 48.9229 93.0588 47.3515 91.7731C47.337 91.7623 47.3235 91.7514 47.3099 91.7397C46.8021 91.3249 46.2681 90.9129 45.7268 90.4937L45.3274 90.1846C44.9515 89.8937 44.8819 89.3533 45.172 88.9765C45.463 88.6006 46.0033 88.531 46.3801 88.8211L46.7795 89.1301C47.3145 89.544 47.8431 89.9524 48.3509 90.3644C48.9852 90.6906 49.9412 91.0674 51.031 91.3846C52.4795 91.8066 54.1457 92.1201 55.5744 92.065C56.8087 92.0171 57.8334 91.6936 58.2517 90.903C58.3095 90.7936 58.3565 90.678 58.3926 90.556C58.4369 90.4051 58.4586 90.2705 58.4604 90.1503C58.4658 89.8413 58.3204 89.5937 58.0899 89.3967C57.7746 89.1256 57.3155 88.9268 56.8195 88.7822C55.9348 88.5247 54.9653 88.4461 54.3735 88.4371C53.2883 88.419 52.484 88.2988 51.7503 88.0332C51.0021 87.763 50.3741 87.3663 49.6404 86.7952C48.8055 86.1455 48.0455 85.5184 47.4067 84.9907C44.8784 82.9043 44.5668 82.6468 40.533 83.1275C39.3944 83.263 38.2532 82.9757 37.111 82.2881C36.2535 81.773 35.3969 81.0303 34.5394 80.0706C34.5376 80.1104 34.5349 80.1511 34.534 80.1935L34.525 80.4348C34.4175 83.197 34.2412 87.7485 33.9205 88.55C33.6937 89.1166 33.2879 89.5133 32.763 89.7762C32.2759 90.0202 31.6922 90.1367 31.0687 90.162C31.0416 90.6021 30.9151 91.0349 30.6829 91.4063C30.3603 91.9205 29.8552 92.3054 29.1531 92.4274C29.0663 92.4427 28.9724 92.4536 28.8711 92.4599C27.138 92.5683 26.5624 91.5319 26.1929 90.5714L26.1899 90.5778ZM55.0079 110.79C54.7748 111.08 54.4875 111.301 54.1658 111.465C55.0866 111.822 55.9504 112.173 56.7825 112.51C61.9511 114.606 65.8329 116.181 74.5535 115.578C75.7065 115.498 76.9398 115.138 78.148 114.645C79.3905 114.139 80.5977 113.498 81.6657 112.875C82.2269 112.548 82.6308 112.163 82.8829 111.682C83.013 111.434 83.1088 111.154 83.1702 110.835C82.713 111.098 82.2449 111.373 81.7651 111.664C81.748 111.674 81.7308 111.684 81.7136 111.693C81.1001 112.056 80.5407 112.297 79.9588 112.472C79.3796 112.646 78.7878 112.752 78.0965 112.851L71.1027 113.85C70.6311 113.917 70.1946 113.59 70.1278 113.118C70.0609 112.646 70.388 112.21 70.8597 112.143L77.8535 111.144C78.4634 111.056 78.9803 110.965 79.4664 110.818C79.92 110.682 80.3556 110.495 80.8326 110.213C80.8462 110.204 80.8597 110.195 80.8742 110.186C81.1272 110.032 81.3775 109.883 81.6242 109.738L86.265 106.953C86.8062 106.628 87.4767 106.111 87.8002 105.52C87.8372 105.452 87.8689 105.382 87.8941 105.313L84.0195 106.523C83.621 106.689 83.2144 106.809 82.8015 106.901C82.3858 106.994 81.9792 107.058 81.5735 107.115L72.7127 108.361C72.241 108.426 71.8064 108.097 71.7413 107.625C71.6763 107.153 72.0052 106.719 72.4769 106.654L81.3376 105.408C81.7126 105.355 82.0804 105.298 82.4247 105.221C82.7554 105.147 83.0789 105.051 83.3915 104.917C83.4186 104.905 83.4457 104.895 83.4728 104.887V104.886L88.3449 103.365C88.4651 103.315 88.5952 103.268 88.7317 103.219C89.2386 103.036 89.8901 102.801 89.8485 102.134C89.8467 102.102 89.8422 102.07 89.8368 102.035C89.807 101.863 89.7202 101.745 89.6055 101.672C89.45 101.575 89.2377 101.536 89.0163 101.549C88.982 101.551 88.9467 101.556 88.9079 101.561L83.5623 102.738C83.5343 102.744 83.5062 102.748 83.4782 102.752C83.0463 102.825 82.5674 102.873 82.0813 102.903C81.4975 102.939 80.8876 102.947 80.3373 102.942L73.7194 102.879C73.2441 102.875 72.8619 102.486 72.8655 102.012C72.8691 101.537 73.2577 101.155 73.7321 101.158L80.35 101.221C80.8433 101.226 81.4072 101.218 81.9791 101.183C82.3966 101.157 82.8105 101.116 83.1873 101.052L87.5687 100.087C87.5597 100.041 87.5543 99.9934 87.5525 99.9437C87.5398 99.5298 87.4784 99.1666 87.3465 98.9027C87.2687 98.7482 87.1621 98.6326 87.0175 98.5747C86.4889 98.3633 82.129 98.1943 79.4825 98.0913L79.2412 98.0823C77.8506 98.0281 77.2867 97.7281 76.6525 97.3901C76.5206 97.3196 76.385 97.2473 76.2414 97.1805C74.7071 96.4612 72.8446 96.4712 70.8261 96.6727C70.8053 96.6754 70.7846 96.6781 70.7638 96.679C70.1123 96.7449 69.4445 96.8308 68.7659 96.9175L68.2653 96.9817C67.7936 97.0413 67.3635 96.7079 67.3039 96.2362C67.2443 95.7645 67.5777 95.3344 68.0494 95.2748L68.55 95.2106C69.2204 95.1248 69.8819 95.0407 70.5316 94.973C71.2048 94.757 72.1463 94.3468 73.1483 93.7965C74.4757 93.0682 75.8763 92.1131 76.8404 91.0704C77.6807 90.1623 78.1768 89.2072 77.913 88.3505C77.8786 88.2403 77.8298 88.1255 77.7657 88.008C77.6898 87.8689 77.6094 87.7587 77.5262 87.6719C77.3139 87.4523 77.0356 87.381 76.7311 87.4035C76.319 87.4352 75.8546 87.6186 75.401 87.868C74.5922 88.3116 73.8513 88.9424 73.4257 89.3544C72.6477 90.1062 71.9944 90.5896 71.2841 90.923C70.5667 91.2601 69.842 91.4236 68.9177 91.5384C67.8677 91.6694 66.8865 91.7634 66.0623 91.842C62.8011 92.1538 62.3991 92.1926 59.8872 95.3833C59.177 96.2851 58.1649 96.8905 56.8691 97.2131C55.9005 97.4544 54.7701 97.5348 53.4861 97.4616C53.5132 97.4923 53.5421 97.5239 53.571 97.5556L53.7355 97.7327C55.6131 99.7621 58.707 103.106 59.0459 103.897C59.2854 104.456 59.279 105.022 59.0938 105.579C58.9212 106.1 58.5905 106.595 58.1694 107.053C58.4622 107.384 58.6799 107.781 58.7775 108.207C58.9131 108.796 58.8263 109.424 58.4161 110.007C58.3799 110.059 58.3366 110.114 58.2869 110.173C58.2724 110.193 58.2561 110.213 58.2399 110.232C57.0914 111.535 55.9502 111.208 55.0095 110.79L55.0079 110.79ZM89.6784 104.707C89.7154 105.047 89.6793 105.378 89.5862 105.695C90.4726 105.309 91.3166 104.956 92.1308 104.615C97.2696 102.467 101.162 100.84 106.88 94.2707C107.646 93.3915 108.263 92.2665 108.766 91.0711C109.282 89.8458 109.682 88.5355 109.999 87.3329C110.165 86.7058 110.177 86.1474 110.015 85.6251C109.932 85.3576 109.801 85.092 109.621 84.8236C109.545 85.1056 109.469 85.392 109.394 85.6848L109.214 86.4058C109.036 87.1161 108.807 87.6971 108.509 88.2501C108.226 88.7787 107.881 89.2739 107.459 89.8359L103.22 95.488C102.935 95.8684 102.396 95.9452 102.015 95.6597C101.635 95.3751 101.558 94.8356 101.844 94.4552L106.082 88.8031C106.449 88.3133 106.748 87.885 106.991 87.4332C107.221 87.0067 107.4 86.5513 107.541 85.9875L109.065 79.8917C109.219 79.2754 109.328 78.4342 109.14 77.7908C109.118 77.7158 109.091 77.6436 109.059 77.5749L107.182 81.1567C107.014 81.5705 106.809 81.9482 106.583 82.3051C106.362 82.653 106.118 82.9882 105.865 83.3226L100.481 90.4692C100.194 90.8496 99.6533 90.9247 99.2729 90.6382C98.8925 90.3509 98.8175 89.8105 99.1039 89.4301L104.488 82.2834C104.712 81.9871 104.928 81.6907 105.125 81.3807C105.31 81.0889 105.472 80.7925 105.594 80.4853C105.612 80.4428 105.631 80.4021 105.654 80.3642L107.992 75.9032C108.04 75.7857 108.105 75.6511 108.17 75.5092C108.399 75.0212 108.693 74.3951 108.192 73.9532C108.181 73.9441 108.171 73.9342 108.161 73.9252C108.148 73.9152 108.133 73.9044 108.115 73.8917C107.973 73.7923 107.826 73.7698 107.692 73.8005C107.513 73.8411 107.336 73.9622 107.19 74.1276C107.155 74.1682 107.124 74.2053 107.1 74.2405L107.088 74.2559L104.17 78.8208L104.149 78.8533L104.15 78.8542C103.894 79.2193 103.578 79.6051 103.242 79.9846C102.838 80.4419 102.416 80.8756 102.037 81.2487L97.3129 85.8842C96.974 86.2176 96.4282 86.2131 96.0948 85.8743C95.7614 85.5354 95.7659 84.9896 96.1048 84.6562L100.829 80.0208C101.194 79.6629 101.591 79.2554 101.953 78.8452C102.238 78.5226 102.509 78.1892 102.739 77.863L102.74 77.8639L105.134 74.1192C105.094 74.093 105.056 74.0623 105.02 74.0289C104.716 73.7433 104.415 73.5283 104.139 73.437C103.973 73.3819 103.815 73.3765 103.671 73.4379C103.145 73.6629 99.9425 76.6258 97.9987 78.425L97.8216 78.5894C96.8005 79.5346 96.1906 79.7198 95.5038 79.9295C95.3709 79.9702 95.2336 80.0117 95.0655 80.0723C93.4707 80.6497 92.1603 81.9743 90.8747 83.5458C90.8638 83.5602 90.853 83.5738 90.8412 83.5873C90.4265 84.0952 90.0144 84.6292 89.5952 85.1705L89.2861 85.5699C88.9952 85.9458 88.4548 86.0153 88.078 85.7253C87.7021 85.4343 87.6326 84.894 87.9226 84.5172L88.2316 84.1178C88.6455 83.5828 89.0539 83.0542 89.4659 82.5464C89.7921 81.9121 90.169 80.9561 90.4861 79.8663C90.9081 78.4178 91.2216 76.7516 91.1665 75.3229C91.1186 74.0886 90.7951 73.0639 90.0045 72.6456C89.8952 72.5878 89.7795 72.5408 89.6575 72.5046C89.5066 72.4604 89.372 72.4387 89.2518 72.4369C88.9428 72.4314 88.6952 72.5769 88.4982 72.8074C88.2271 73.1227 88.0283 73.5818 87.8838 74.0778C87.6262 74.9624 87.5476 75.932 87.5386 76.5238C87.5205 77.609 87.4003 78.4132 87.1347 79.147C86.8645 79.8952 86.4678 80.5232 85.8967 81.2569C85.2471 82.0918 84.62 82.8518 84.0922 83.4906C82.0058 86.0189 81.7483 86.3305 82.229 90.3643C82.3646 91.5028 82.0772 92.6441 81.3896 93.7862C80.8745 94.6438 80.1318 95.5004 79.1722 96.3578C79.2119 96.3596 79.2526 96.3624 79.295 96.3633L79.5363 96.3723C82.2985 96.4798 86.85 96.656 87.6515 96.9768C88.2181 97.2036 88.6148 97.6093 88.8777 98.1343C89.1217 98.6214 89.2383 99.2051 89.2636 99.8286C89.7036 99.8557 90.1364 99.9822 90.5078 100.214C91.022 100.537 91.4069 101.042 91.5289 101.744C91.5443 101.831 91.5551 101.925 91.5614 102.026C91.6699 103.759 90.6334 104.335 89.6729 104.704L89.6784 104.707ZM69.5092 1.43159L113.287 22.5135C114.756 23.221 115.98 24.1879 116.929 25.378C117.877 26.5662 118.547 27.9741 118.91 29.5679L129.721 76.9379C130.084 78.5264 130.091 80.0834 129.753 81.5652C129.413 83.0526 128.731 84.454 127.715 85.7281L97.4215 123.716C96.4041 124.992 95.1897 125.969 93.8189 126.629C92.4446 127.291 90.9228 127.632 89.2945 127.632V127.628H40.7055V127.632C39.0772 127.632 37.5556 127.291 36.1811 126.629C34.8094 125.968 33.5949 124.991 32.5785 123.716L2.28461 85.7281C1.26897 84.4549 0.58676 83.0526 0.246995 81.5652C-0.0909419 80.0834 -0.083725 78.5264 0.278621 76.9379L11.0901 29.5679C11.4534 27.9749 12.1229 26.566 13.0708 25.378C14.0196 24.1879 15.2431 23.2211 16.7132 22.5135L60.4908 1.43159C61.9636 0.722264 63.4818 0.368042 65.0015 0.368042C66.5205 0.368042 68.0395 0.722241 69.5123 1.43159H69.5092ZM90.649 13.5244L68.7611 2.98399C67.5313 2.39123 66.2645 2.09576 64.9994 2.09576C63.7343 2.09576 62.4685 2.39213 61.2376 2.98399L17.4601 24.0659C16.2267 24.6596 15.2056 25.4647 14.4187 26.4513C13.6298 27.4398 13.0723 28.6145 12.7687 29.9463L1.9572 77.3163C1.65178 78.6527 1.64454 79.9557 1.92557 81.1882C2.20568 82.4162 2.77767 83.5835 3.63247 84.6552L33.9263 122.643C34.7793 123.713 35.7913 124.53 36.9289 125.077C38.0629 125.623 39.3325 125.904 40.704 125.904V125.907H89.2931V125.904C90.6648 125.904 91.9343 125.623 93.0682 125.077C94.2059 124.529 95.2179 123.713 96.0708 122.643L126.365 84.6552C127.219 83.5836 127.791 82.4152 128.072 81.1882C128.353 79.9557 128.345 78.6527 128.04 77.3163L117.228 29.9463C116.925 28.6144 116.366 27.4407 115.578 26.4513C114.791 25.4646 113.77 24.6595 112.537 24.0659L90.6492 13.5255L90.649 13.5244Z" fill="#E5CFA9"/>
</svg>
