<svg width="144" height="220" viewBox="0 0 144 220" fill="none" xmlns="http://www.w3.org/2000/svg">
<path fill-rule="evenodd" clip-rule="evenodd" d="M138.434 16.9631L113.822 59.6427L109.109 56.7623L133.721 14.344C135.292 11.4636 130.84 9.10741 129.27 11.725L104.658 54.4046L99.9445 51.5242L124.557 9.10594C126.128 6.22549 121.676 3.60793 120.106 6.48691L95.7553 48.9051L90.7805 46.2861L115.393 3.86788C116.964 0.987429 112.774 -1.63014 110.942 1.24884L78.9987 56.7557C75.3324 63.3008 75.8568 71.4177 80.5705 77.1787L3.32979 204.691C-4.00142 216.211 14.0656 226.686 20.6111 214.641L92.355 83.9844C99.6862 85.0317 107.017 81.6284 110.683 75.0818L142.627 19.5749C144.46 16.6945 140.008 14.3383 138.438 16.9559L138.434 16.9631ZM106.491 72.47C103.349 77.7066 97.3264 80.3255 91.5654 78.7537C90.5181 78.4923 89.2094 79.0151 88.685 80.0624L16.157 212.287C13.015 218.31 3.85087 213.073 7.51727 207.312L85.8074 78.2281C86.3318 77.1808 86.3319 76.1334 85.283 75.0862C81.0939 70.897 80.3082 64.3503 83.4499 59.1137L88.4247 50.474L111.467 63.8276L106.492 72.4672L106.491 72.47Z" fill="#25366F"/>
<path fill-rule="evenodd" clip-rule="evenodd" d="M79.2626 112.533L135.296 204.7C142.366 216.22 124.299 226.695 117.753 214.65L70.6225 128.507L73.503 123.27L122.206 212.292C125.348 218.315 134.512 213.078 130.846 207.318L76.3845 117.507L79.2649 112.532L79.2626 112.533Z" fill="#25366F"/>
<path fill-rule="evenodd" clip-rule="evenodd" d="M10.1388 8.3235C24.0167 0.206574 48.3659 17.4879 59.8874 37.6495C67.48 50.48 69.8375 66.1895 57.7928 77.1871L67.7429 93.6823L64.8625 98.3958L52.295 77.9728C51.7706 76.9255 52.0336 75.3538 53.0809 74.5694C63.031 66.7139 63.8167 54.4078 55.6999 40.0072C44.4409 20.6312 22.7091 6.75334 12.759 12.5143C2.80883 18.5367 3.85631 43.9349 15.115 63.3124C23.4933 77.9745 34.4909 83.2111 46.2726 78.4992C47.5814 77.9748 48.8917 78.4992 49.4145 79.5465L62.245 102.85L59.1031 107.825L46.0109 83.7356C30.5627 88.7105 18.2567 78.7608 10.6625 65.9315C-0.857888 45.7699 -3.4768 16.1829 10.1381 8.32972L10.1388 8.3235Z" fill="#25366F"/>
</svg>
