<svg width="40" height="40" viewBox="0 0 40 40" fill="none" xmlns="http://www.w3.org/2000/svg">
<path fill-rule="evenodd" clip-rule="evenodd" d="M37.9993 3.0842L33.5244 10.8441L32.6674 10.3204L37.1423 2.60801C37.4281 2.08429 36.6186 1.65589 36.3331 2.13182L31.8582 9.89175L31.0012 9.36803L35.4761 1.65562C35.7619 1.13191 34.9524 0.655986 34.6669 1.17944L30.2395 8.89184L29.335 8.41565L33.8099 0.70325C34.0957 0.179532 33.3338 -0.296389 33.0008 0.227063L27.1929 10.3192C26.5263 11.5092 26.6216 12.985 27.4786 14.0325L13.4349 37.2165C12.1019 39.3111 15.3869 41.2156 16.5769 39.0256L29.6213 15.2699C30.9542 15.4603 32.2871 14.8415 32.9537 13.6512L38.7616 3.55907C39.0949 3.03535 38.2854 2.60696 37.9999 3.08288L37.9993 3.0842ZM32.1914 13.1764C31.6202 14.1285 30.5252 14.6046 29.4777 14.3188C29.2873 14.2713 29.0494 14.3664 28.954 14.5568L15.7671 38.5977C15.1958 39.6926 13.5296 38.7406 14.1962 37.6931L28.4308 14.2233C28.5262 14.0329 28.5262 13.8424 28.3355 13.652C27.5738 12.8904 27.4309 11.7001 28.0022 10.7479L28.9067 9.17709L33.0962 11.605L32.1917 13.1759L32.1914 13.1764Z" fill="#E5CFA9"/>
<path fill-rule="evenodd" clip-rule="evenodd" d="M27.2408 20.4606L37.4288 37.2182C38.7142 39.3128 35.4292 41.2173 34.2392 39.0273L25.6699 23.3649L26.1936 22.4128L35.0488 38.5987C35.62 39.6936 37.2862 38.7416 36.6196 37.6942L26.7175 21.365L27.2413 20.4604L27.2408 20.4606Z" fill="#E5CFA9"/>
<path fill-rule="evenodd" clip-rule="evenodd" d="M14.6729 1.51314C17.1961 0.0373373 21.6233 3.1794 23.7181 6.84515C25.0986 9.17795 25.5272 12.0342 23.3372 14.0338L25.1464 17.0329L24.6226 17.8899L22.3377 14.1766C22.2423 13.9862 22.2901 13.7005 22.4805 13.5579C24.2897 12.1296 24.4325 9.89211 22.9567 7.27381C20.9096 3.75091 16.9584 1.22766 15.1493 2.27511C13.3402 3.37008 13.5306 7.98795 15.5776 11.5111C17.101 14.1769 19.1005 15.1291 21.2427 14.2724C21.4806 14.177 21.7189 14.2724 21.8139 14.4628L24.1467 18.6998L23.5755 19.6043L21.1951 15.2244C18.3863 16.129 16.1489 14.3199 14.7681 11.9873C12.6735 8.32158 12.1973 2.94212 14.6728 1.51427L14.6729 1.51314Z" fill="#E5CFA9"/>
</svg>
