<svg width="40" height="40" viewBox="0 0 40 40" fill="none" xmlns="http://www.w3.org/2000/svg">
<path d="M39.932 18.4224C39.9316 18.4032 39.9303 18.3841 39.9277 18.3653C39.7104 15.7134 38.9652 13.1315 37.7361 10.7714C36.5071 8.41119 34.8193 6.32061 32.771 4.62162C32.7484 4.5981 32.7231 4.57632 32.6957 4.55803C29.3359 1.78754 25.1618 0.192683 20.81 0.0162942C16.4591 -0.15966 12.1694 1.09338 8.59661 3.58332C8.5561 3.60423 8.51865 3.63079 8.48598 3.66215C5.18376 5.98531 2.66247 9.25441 1.25437 13.0384C-0.153282 16.8227 -0.382409 20.9447 0.598456 24.8616C1.57885 28.7784 3.72295 32.3063 6.74776 34.9809C9.77257 37.655 13.5365 39.3506 17.5438 39.8436C17.5787 39.8528 17.6144 39.858 17.6505 39.8593L17.6592 39.8584H17.6588C21.4101 40.3075 25.2119 39.6833 28.6221 38.058C32.0328 36.4325 34.9121 33.8734 36.9261 30.6769C38.94 27.4805 40.0058 23.778 39.9997 20.0002C39.9997 19.4688 39.9727 18.944 39.9317 18.4227L39.932 18.4224ZM38.841 17.391L38.5435 17.1698C38.4551 17.1014 38.3454 17.0674 38.2334 17.0735L37.3685 17.1062L36.6198 16.4599C36.5131 16.3675 36.3715 16.3262 36.2317 16.3462C36.0919 16.3662 35.9678 16.4459 35.8911 16.5644L35.497 17.1733L34.7857 17.6611L34.6272 16.709L34.6276 16.7085C34.6041 16.5687 34.5214 16.4464 34.4007 16.3723L33.669 15.925C33.5296 15.8392 33.3559 15.8296 33.2078 15.8998L31.2971 16.7939C31.1529 16.861 31.051 16.9947 31.0231 17.1511C30.9957 17.3078 31.0466 17.4681 31.159 17.5805L32.4085 18.83L32.1041 19.7373L31.5 19.6401C31.2613 19.6014 31.0305 19.7442 30.9582 19.9751L30.7896 20.5073L30.2034 20.6963L29.0305 17.7464V17.7469C28.9952 17.6576 28.9342 17.5809 28.8558 17.526L28.0914 16.9943L27.9207 15.9381V15.9385C27.8846 15.7142 27.6982 15.5443 27.4713 15.5291L26.4329 15.4607L25.5078 14.5335C25.3811 14.4054 25.1938 14.3584 25.0214 14.4111L22.4604 15.1833C22.3254 15.2242 22.2147 15.3214 22.1564 15.4503L21.524 16.8561L21.152 16.9428L21.1777 15.7677L21.5244 14.6118C21.574 14.4459 21.5322 14.2665 21.4142 14.1397L20.6773 13.3453L21.6459 12.3775C21.7596 12.2634 21.8101 12.101 21.7801 11.9429C21.7504 11.7843 21.6446 11.6511 21.4974 11.5862L20.7722 11.2669V10.6672L22.8719 9.26778C22.9752 9.19897 23.0483 9.09357 23.0762 8.97293L23.361 7.75337H23.3615C23.4002 7.58743 23.3493 7.41322 23.2278 7.29388C23.1058 7.17454 22.9303 7.1275 22.7652 7.16975L21.4725 7.5012L22.8632 5.77778L24.2229 5.56306H24.2225C24.3153 5.54825 24.4015 5.50731 24.4716 5.44503L25.0661 4.91281L25.3623 4.96681L25.4899 6.30657V6.30613C25.5139 6.55657 25.7242 6.74776 25.9755 6.74776H28.1707C28.3231 6.74776 28.4669 6.67677 28.5588 6.55525L29.695 5.06219L30.4481 5.60007C30.5496 5.67368 30.6754 5.7046 30.7991 5.68631L32.2721 5.47943H32.2726C35.8562 8.50379 38.1954 12.7464 38.8409 17.3907L38.841 17.391ZM0.975388 19.9999C0.976259 16.9908 1.69185 14.0247 3.06251 11.3458C4.43359 8.66682 6.42137 6.35191 8.86171 4.59104L10.9788 5.79008V5.79051C11.0759 5.84496 11.1892 5.86499 11.2994 5.84713L13.815 5.42815L14.1181 6.33711L14.1177 6.33667C14.0023 6.69164 13.8254 7.02352 13.595 7.31707H11.7069C11.5441 7.31707 11.3916 7.39852 11.301 7.5344L10.3254 8.9978C10.2257 9.14719 10.2165 9.3397 10.301 9.49867C10.386 9.65721 10.5515 9.75608 10.7313 9.75608H12.8189L13.1116 10.6341L11.4727 12.6829H9.69487C9.5433 12.6829 9.40001 12.7534 9.30811 12.8741L8.44836 13.9938H6.61557C6.37646 13.9938 6.17262 14.1672 6.13386 14.4037L5.81941 16.3466L4.19656 18.3179C4.10554 18.4281 4.06765 18.5727 4.09247 18.7134C4.16695 19.1306 4.24795 19.6149 4.28367 19.8588C4.09595 20.0927 3.81416 20.4851 3.34727 21.1424L2.44439 20.2604C2.31069 20.1302 2.1147 20.0875 1.93918 20.1506C1.76322 20.2134 1.63909 20.371 1.61862 20.5561L1.34424 23.0561C1.33117 23.172 1.36035 23.2882 1.42612 23.3841L2.35817 24.7538L2.79415 26.2355V26.2351C2.81984 26.3244 2.8708 26.4041 2.94092 26.4646L3.91652 27.3182C4.0315 27.4184 4.18613 27.4589 4.33508 27.4289L6.57071 26.9711L7.81368 28.5504L8.49094 29.9937C8.57108 30.1649 8.74355 30.2742 8.93257 30.2742H10.7008C10.7809 30.2742 10.8598 30.2546 10.9303 30.2171L12.0035 29.6444L13.1991 30.6997L14.1346 33.8744L13.8158 35.9L13.8162 35.8996C13.8053 35.971 13.8101 36.0438 13.8306 36.113C14.2718 37.613 14.406 37.9475 14.7091 38.0067C14.8302 38.0781 15.0924 38.2476 15.4194 38.4632C11.2984 37.4353 7.63905 35.0603 5.02231 31.7153C2.40558 28.3704 0.980979 24.2468 0.975293 20.0003L0.975388 19.9999ZM19.9991 39.0236C19.2695 39.0222 18.5409 38.9791 17.8166 38.8946C16.2073 37.8027 15.5222 37.3511 15.199 37.1687C15.1106 36.9496 14.9386 36.4174 14.7966 35.9422L15.1154 33.9165C15.1263 33.8451 15.1215 33.7723 15.101 33.7031L14.0949 30.2885C14.0692 30.2005 14.0187 30.1212 13.9503 30.0603L12.395 28.6883H12.3946C12.2422 28.5546 12.0222 28.5289 11.8428 28.6234L10.5784 29.298H9.24221L8.67253 28.0846C8.65685 28.0511 8.63725 28.0193 8.61417 27.9905L7.15077 26.1308C7.03622 25.9862 6.85068 25.9182 6.66993 25.9544L4.37643 26.4239L3.68958 25.8228L3.27234 24.4042H3.2719C3.25753 24.3555 3.23575 24.3093 3.20701 24.2675L2.33289 22.983L2.4788 21.6577L3.07287 22.2382V22.2387C3.17478 22.338 3.31546 22.3881 3.45744 22.3754C3.59942 22.3624 3.72878 22.2883 3.81154 22.172C4.28801 21.5009 4.99363 20.5161 5.12899 20.3463C5.13988 20.3354 5.15033 20.3245 5.16035 20.3123C5.32236 20.1189 5.3302 20.1093 5.09197 18.7635L6.65594 16.8641C6.71126 16.7975 6.74741 16.7174 6.76134 16.632L7.03051 14.9687H8.68814C8.83971 14.9687 8.983 14.8981 9.0749 14.7775L9.93465 13.6577H11.7065C11.8545 13.6577 11.9948 13.5906 12.0876 13.4748L14.0388 11.0358C14.142 10.9064 14.1729 10.7335 14.1202 10.5767L13.6324 9.11332C13.5662 8.91384 13.3798 8.7797 13.1699 8.7797H11.642L11.9674 8.29189H13.6577C14.3515 8.29189 14.8227 7.31499 15.0958 6.49489C15.1297 6.39515 15.1297 6.28627 15.0958 6.18653L14.608 4.72313C14.5317 4.49578 14.3018 4.35729 14.0653 4.39604L11.3083 4.8551L9.75947 3.97793C12.9838 1.90909 16.7589 0.865143 20.5882 0.983999C24.417 1.10246 28.1204 2.37816 31.2106 4.64245L30.856 4.6921L29.8761 3.99264C29.6614 3.83933 29.3639 3.88419 29.2045 4.09412L27.9275 5.77137H26.4179L26.2973 4.50565H26.2977C26.2768 4.28789 26.1144 4.11062 25.8992 4.07142L25.0046 3.90897C24.8566 3.88241 24.7041 3.92552 24.5922 4.0257L23.9271 4.62107L22.5243 4.84276C22.4049 4.86149 22.2965 4.92421 22.2207 5.01828L20.3509 7.33531C20.2664 7.43984 20.2289 7.57442 20.2472 7.70769C20.2655 7.84053 20.3378 7.9603 20.4471 8.03826L21.0164 8.44461C21.1335 8.52823 21.2816 8.55611 21.421 8.52039L22.2276 8.31351L22.1697 8.56221L20.0129 9.99952C19.877 10.0901 19.7955 10.2425 19.7955 10.4054V11.5844C19.7955 11.7778 19.9101 11.9529 20.0869 12.0308L20.4506 12.1911L19.654 12.9873C19.4685 13.1728 19.4628 13.472 19.6418 13.6641L20.509 14.5979L20.2228 15.55C20.2102 15.5922 20.2032 15.6358 20.2023 15.6798L20.1614 17.5496C20.1584 17.7003 20.225 17.844 20.3421 17.9389C20.4589 18.0339 20.6135 18.0692 20.7603 18.0348L21.9798 17.7504V17.7508C22.1279 17.7159 22.2512 17.6145 22.3139 17.4755L22.9541 16.0522L25.0225 15.428L25.8714 16.2786C25.955 16.3622 26.0661 16.4128 26.1841 16.421L27.0181 16.4764L27.1597 17.3535V17.3531C27.181 17.4838 27.2542 17.6005 27.3626 17.6763L28.1767 18.2424L29.4637 21.4798H29.4641C29.5377 21.6658 29.7176 21.7877 29.9175 21.7877C29.9685 21.7877 30.019 21.7799 30.0673 21.7642L31.3278 21.357H31.3283C31.4785 21.3086 31.5957 21.1906 31.6432 21.0399L31.7603 20.6692L32.3566 20.7651C32.5918 20.8021 32.8195 20.664 32.8962 20.4384L33.4288 18.853C33.4876 18.6775 33.4419 18.4841 33.3112 18.353L32.34 17.3818L33.3831 16.8935L33.7011 17.0878L33.9489 18.5752H33.9485C33.9759 18.7394 34.0852 18.8783 34.2385 18.9436C34.3918 19.009 34.5678 18.9915 34.7054 18.8975L36.1284 17.9219C36.1815 17.8853 36.2272 17.8387 36.2625 17.7842L36.4053 17.5639L36.8757 17.9698H36.8753C36.9676 18.0525 37.0891 18.0952 37.2128 18.0878L38.0978 18.0538L38.9746 18.7067C39.0033 19.1344 39.0234 19.5643 39.0234 19.999C39.0177 25.0429 37.0116 29.8782 33.445 33.4444C29.8785 37.0107 25.0431 39.0171 19.9996 39.0228L19.9991 39.0236Z" fill="#E5CFA9"/>
<path d="M32.9011 29.5287L32.1084 29.3153C31.9211 29.2656 31.7221 29.3305 31.6006 29.4816C31.5435 29.5535 31.2534 29.8231 31.0182 30.0304C30.9568 30.0853 30.9098 30.1546 30.8823 30.2325L30.2726 31.9398C30.219 32.0891 30.2417 32.2551 30.3331 32.3844C30.4242 32.5142 30.5731 32.5913 30.7316 32.5913H31.5548C31.6942 32.5913 31.8266 32.5317 31.9193 32.4276L33.1389 31.0556C33.2182 30.9663 33.2622 30.8509 33.2622 30.7316V29.9999C33.2622 29.7795 33.1141 29.5861 32.9011 29.5286L32.9011 29.5287ZM32.2865 30.5461L31.483 31.4498L31.7587 30.6776C31.8606 30.5866 32.0061 30.4546 32.1328 30.3322L32.2865 30.3736L32.2865 30.5461Z" fill="#E5CFA9"/>
<path d="M16.9101 10.1224C16.9318 10.1224 16.9536 10.1211 16.9754 10.1181C17.1326 10.0967 17.2694 10.0005 17.3426 9.85981L18.0081 8.58016L18.7885 8.20385V8.20429C18.9898 8.10673 19.0991 7.88547 19.0542 7.66684L18.819 6.51919L20.7084 5.95561H20.7079C20.8469 5.91423 20.9601 5.81363 21.0167 5.68034L21.7484 3.9731C21.8438 3.75141 21.7623 3.49357 21.5576 3.36683L19.5251 2.1068C19.3835 2.01882 19.2075 2.00924 19.0577 2.08066L17.573 2.78972L17.141 2.72874H17.1405C17.0491 2.71568 16.9559 2.72874 16.8714 2.76751L15.6113 3.33676C15.4746 3.3986 15.374 3.51968 15.3387 3.66559C15.303 3.81149 15.3365 3.96567 15.4297 4.0837L15.9345 4.72264V6.63248L15.6344 8.71135C15.6135 8.85725 15.6597 9.0049 15.7603 9.11291L16.553 9.96656C16.6449 10.0659 16.7747 10.1225 16.9101 10.1225L16.9101 10.1224ZM17.1444 3.71435L17.5821 3.7762C17.6771 3.79013 17.7742 3.77489 17.8604 3.73351L19.2372 3.07629L20.6866 3.97481L20.2102 5.08674L18.1122 5.71217C17.8696 5.78447 17.7229 6.03012 17.7738 6.27749L18.0225 7.49047L17.4385 7.7727C17.344 7.81799 17.2664 7.89334 17.2181 7.98655L16.7969 8.79577L16.6336 8.61982L16.9058 6.73652L16.9054 6.73695C16.9084 6.71387 16.9102 6.69035 16.9102 6.66727V4.55317C16.9102 4.44341 16.8731 4.33714 16.8052 4.25047L16.5822 3.96869L17.1444 3.71435Z" fill="#E5CFA9"/>
<path d="M23.028 4.32365C23.1133 4.39029 23.2187 4.42644 23.3272 4.42644C23.3594 4.42644 23.3921 4.42295 23.4239 4.41685C23.5628 4.38854 23.683 4.301 23.7523 4.17731L24.5715 2.71915H24.5719C24.646 2.58762 24.6547 2.42864 24.5959 2.28971C24.5367 2.15077 24.4165 2.04668 24.2701 2.00835L23.4979 1.80539C23.4169 1.78362 23.3315 1.78362 23.2505 1.80539L22.4779 2.00835C22.2632 2.06454 22.1138 2.25835 22.1138 2.48004V3.37463C22.1138 3.52533 22.1835 3.66731 22.3024 3.75964L23.028 4.32365ZM23.0894 2.85634L23.3742 2.78143L23.4117 2.79145L23.1791 3.20609L23.0889 3.13596L23.0894 2.85634Z" fill="#E5CFA9"/>
<path d="M30.4458 23.8358L29.3283 22.159L27.8396 18.9809V18.9804C27.8034 18.9029 27.7472 18.8363 27.6767 18.7871L26.3353 17.8524C26.2721 17.8084 26.1998 17.7801 26.1236 17.7697L24.7747 17.5819L24.2189 17.2H24.2185C24.0574 17.0885 23.8453 17.085 23.6802 17.1904L22.3618 18.0305L21.1053 18.7374L19.486 19.2509V19.2513C19.4529 19.2618 19.4207 19.2757 19.3906 19.2932L17.4076 20.4312C17.2561 20.5179 17.1624 20.6795 17.1629 20.8541V22.1773C17.1629 22.2578 17.1825 22.3367 17.2204 22.4077L17.4285 22.7975L16.6463 23.8075C16.5257 23.9638 16.5109 24.1768 16.6089 24.3484L17.5845 26.0557C17.6541 26.1781 17.7739 26.2643 17.912 26.2917C18.598 26.4551 19.2927 26.5801 19.9925 26.6672H19.9943C20.1001 26.6706 20.8379 26.7469 21.5927 26.8292L22.1254 29.1732H22.1249C22.1336 29.2093 22.1458 29.2442 22.1619 29.2777L23.935 32.9406C24.2294 33.7024 24.5539 34.5752 24.5992 34.7472L24.5987 34.7468C24.6183 34.8705 24.6819 34.9828 24.7777 35.063C24.8862 35.1601 25.0308 35.2054 25.1749 35.1875C25.779 35.1449 26.3783 35.0517 26.9667 34.9088C27.0882 34.884 27.1958 34.8139 27.2672 34.7124L28.5682 32.8731C28.6749 32.7229 28.6875 32.5256 28.6013 32.3631L28.2285 31.6602L28.3321 30.9354L29.9383 30.1545C30.106 30.0731 30.2127 29.9028 30.2127 29.7159V25.5043L30.5146 24.2178C30.5455 24.0862 30.5206 23.9482 30.4457 23.8358L30.4458 23.8358ZM29.2502 25.3362H29.2498C29.2415 25.3728 29.2372 25.4103 29.2372 25.4477V29.4107L27.6723 30.1716C27.5268 30.2426 27.4258 30.3811 27.4027 30.5409L27.2398 31.679C27.2254 31.7813 27.2437 31.8854 27.2916 31.9769L27.5983 32.5553L26.5826 33.9912C26.1693 34.0727 25.7246 34.1502 25.4406 34.1885C25.3387 33.8928 25.1562 33.3993 24.8287 32.5526L23.0644 28.9029L22.4668 26.2744H22.4672C22.4206 26.0719 22.2517 25.9208 22.0452 25.8977C21.4882 25.8363 20.1767 25.6926 20.0217 25.6926H20.0209C19.892 25.6821 19.0923 25.5314 18.3219 25.379L17.6172 24.1473L18.3937 23.1447C18.5113 22.9922 18.5288 22.7853 18.4382 22.6159L18.1385 22.0554V21.1368L19.831 20.1656L21.4482 19.6525V19.6521C21.48 19.6421 21.5109 19.629 21.5397 19.6125L22.8628 18.8673L23.9316 18.1869L24.3166 18.4513H24.3171C24.3793 18.4944 24.4508 18.5219 24.5261 18.5323L25.8737 18.7196L27.0117 19.5127L28.4603 22.6059C28.4708 22.6281 28.4825 22.6494 28.496 22.6695L29.5169 24.2003L29.2502 25.3362Z" fill="#E5CFA9"/>
</svg>
