<svg width="40" height="43" viewBox="0 0 40 43" fill="none" xmlns="http://www.w3.org/2000/svg">
<path d="M24.0138 12.6284C22.3304 11.3735 19.977 10.8346 17.8921 10.9537C17.232 10.9915 17.228 12.023 17.8921 11.9848C19.396 11.8986 21.0205 12.1897 22.3769 12.8398C25.177 14.1828 25.9422 17.3119 26.3831 20.1363C26.3952 20.2135 26.4054 20.2922 26.4169 20.3697C24.8949 20.3102 23.2934 20.6063 21.7786 20.7061C20.4043 20.7966 19.0284 20.8651 17.6522 20.9194C17.5325 18.1936 17.4718 15.4685 17.2687 12.7462C17.2544 12.5546 16.9906 12.5568 16.9726 12.7462C16.7113 15.4853 16.7482 18.2089 16.8756 20.9519C13.6928 21.0614 10.3932 20.7702 7.23177 21.151C7.38647 19.8064 7.60287 18.4559 7.99319 17.1864C9.19329 13.2881 12.9523 11.3635 16.8624 11.6226C17.0499 11.635 17.049 11.3821 16.9033 11.3216C13.9571 10.1029 10.2219 11.9283 8.45317 14.3865C7.47625 15.7444 7.03355 17.3354 6.75235 18.9624C6.41008 20.9407 6.15183 22.9385 6.05604 24.9447C5.88397 28.5326 6.01263 32.8106 7.83369 36.0179C9.23561 38.486 11.7158 40.1049 14.4632 40.6989C16.8672 41.2185 19.4785 41.1243 21.6822 39.9505C23.5814 38.9389 24.9768 37.2024 25.887 35.2815C27.9022 31.0289 28.0981 25.925 27.5751 21.3202C27.2263 18.2587 26.6525 14.5942 24.0142 12.628L24.0138 12.6284ZM25.8777 32.3827C24.7622 36.3349 22.1586 39.7325 17.7878 40.0059C15.1759 40.169 12.3934 39.4758 10.386 37.7419C7.92189 35.6139 7.26498 32.3134 6.9918 29.2132C6.81261 27.1844 6.85446 25.1416 7.03675 23.1143C7.08698 22.5575 7.13999 21.9911 7.20199 21.4231C10.323 22.0184 13.7252 21.7685 16.8823 21.7052C16.9254 21.7043 16.9682 21.7024 17.0107 21.7018C17.1728 21.8655 17.4648 21.8596 17.6009 21.6851C19.0655 21.6491 20.5294 21.5958 21.9924 21.518C23.4666 21.4392 25.0744 21.4802 26.5269 21.1624C26.9953 24.8749 26.8915 28.7921 25.8777 32.3824L25.8777 32.3827Z" fill="#E5CFA9"/>
<path d="M38.0021 21.1104C38.0052 19.453 37.919 17.8002 37.8911 16.1444C37.8827 15.6521 37.1169 15.6505 37.1253 16.1444C37.1492 17.5535 37.0956 18.9663 37.1092 20.3759C37.1247 21.9883 37.3278 23.788 36.8916 25.3596C36.2796 27.5644 34.3364 29.7746 31.9346 28.2391C30.4418 27.2845 30.2003 25.2511 30.1194 23.6364C29.9021 19.3212 29.6345 14.9871 29.2929 10.6799C29.1475 8.84636 29.1645 6.86252 28.6595 5.08328C27.9787 2.68491 25.9155 1.40235 23.5177 1.061C18.3301 0.322825 16.3056 6.4483 17.0425 10.581C17.0804 10.794 17.4474 10.7478 17.4236 10.5295C17.2004 8.49759 17.4357 6.15914 18.5022 4.39038C19.2251 3.19092 20.2423 2.10796 21.6381 1.74677C23.0688 1.37597 24.6252 1.81559 25.8981 2.48648C28.2199 3.7092 28.2754 6.53107 28.3982 8.84571C28.5225 11.1938 28.6158 13.5441 28.7346 15.8926C28.8502 18.1787 29.004 20.4623 29.1295 22.7478C29.2046 24.1135 29.2226 25.4795 29.7121 26.7791C30.3129 28.3748 31.5549 29.4782 33.3018 29.5699C35.3055 29.6747 36.6504 28.2539 37.3824 26.5196C38.1106 24.7918 37.9984 22.9474 38.0021 21.1096L38.0021 21.1104Z" fill="#E5CFA9"/>
</svg>
