<svg width="220" height="220" viewBox="0 0 220 220" fill="none" xmlns="http://www.w3.org/2000/svg">
<path d="M219.628 101.323C219.626 101.218 219.618 101.112 219.604 101.009C218.409 86.4234 214.31 72.2232 207.55 59.2421C200.79 46.2611 191.508 34.7628 180.242 25.4182C180.117 25.2889 179.978 25.1691 179.828 25.0685C161.349 9.83071 138.391 1.05891 114.456 0.0887643C90.5256 -0.878991 66.9324 6.01279 47.2817 19.7076C47.0589 19.8225 46.8529 19.9687 46.6733 20.1411C28.5109 32.9186 14.6437 50.8988 6.89911 71.711C-0.843056 92.525 -2.10326 115.196 3.29154 136.739C8.68376 158.282 20.4764 177.685 37.113 192.396C53.7496 207.103 74.4514 216.429 96.4919 219.141C96.6835 219.191 96.8799 219.22 97.0787 219.227L97.1266 219.222H97.1242C117.757 221.692 138.666 218.259 157.423 209.32C176.182 200.38 192.018 186.304 203.095 168.724C214.172 151.143 220.034 130.779 220 110.001C220 107.079 219.851 104.192 219.626 101.325L219.628 101.323ZM213.627 95.6507L211.991 94.4338C211.505 94.0577 210.901 93.8708 210.286 93.9044L205.528 94.084L201.41 90.5291C200.824 90.0213 200.045 89.7937 199.276 89.9039C198.507 90.0141 197.824 90.4525 197.403 91.104L195.235 94.4529L191.323 97.1358L190.451 91.8993L190.454 91.8969C190.324 91.128 189.869 90.4548 189.205 90.0476L185.181 87.5875C184.415 87.1156 183.459 87.0629 182.644 87.4485L172.135 92.3664C171.342 92.7353 170.782 93.4707 170.628 94.3307C170.478 95.193 170.758 96.0746 171.376 96.6927L178.248 103.565L176.574 108.555L173.251 108.021C171.939 107.808 170.669 108.593 170.271 109.863L169.344 112.79L166.12 113.83L159.669 97.6053V97.6077C159.475 97.1166 159.139 96.695 158.708 96.3931L154.504 93.4683L153.565 87.6593V87.6617C153.366 86.428 152.341 85.4937 151.093 85.4099L145.382 85.0338L140.294 79.9339C139.597 79.2296 138.567 78.9709 137.619 79.2607L123.533 83.5079C122.79 83.7331 122.182 84.2673 121.861 84.9763L118.383 92.7086L116.337 93.1853L116.478 86.7224L118.385 80.3649C118.658 79.4522 118.428 78.4653 117.779 77.7682L113.726 73.3989L119.053 68.0761C119.679 67.4485 119.957 66.555 119.791 65.6855C119.628 64.8135 119.046 64.0805 118.237 63.7236L114.248 61.9677V58.6692L125.797 50.9724C126.364 50.5939 126.767 50.0142 126.92 49.3507L128.487 42.643H128.489C128.702 41.7303 128.422 40.7722 127.754 40.1158C127.083 39.4595 126.118 39.2007 125.21 39.4331L118.1 41.2561L125.749 31.7772L133.227 30.5962H133.225C133.735 30.5148 134.209 30.2896 134.595 29.947L137.865 27.0198L139.494 27.3168L140.196 34.6855V34.6831C140.327 36.0605 141.484 37.1121 142.867 37.1121H154.94C155.779 37.1121 156.569 36.7217 157.075 36.0533L163.324 27.8414L167.466 30.7998C168.024 31.2046 168.716 31.3747 169.397 31.2741L177.498 30.1362H177.5C197.211 46.7704 210.076 70.1048 213.626 95.6487L213.627 95.6507ZM5.36468 109.999C5.36947 93.4491 9.30523 77.1357 16.8439 62.4014C24.3849 47.6671 35.3178 34.935 48.7398 25.25L60.384 31.8448V31.8472C60.9182 32.1467 61.541 32.2569 62.1471 32.1586L75.983 29.8542L77.6503 34.8535L77.6479 34.8511C77.0131 36.8034 76.0405 38.6288 74.7733 40.2434H64.3887C63.4928 40.2434 62.6544 40.6913 62.1561 41.4387L56.7903 49.4875C56.2417 50.3091 56.1914 51.3679 56.6561 52.2423C57.1233 53.1142 58.0335 53.658 59.0229 53.658H70.5046L72.1143 58.4873L63.1003 69.7556H53.3222C52.4886 69.7556 51.7005 70.1436 51.195 70.8071L46.4664 76.9659H36.3859C35.0708 76.9659 33.9497 77.9193 33.7365 79.2201L32.007 89.9064L23.0813 100.748C22.5806 101.355 22.3723 102.15 22.5088 102.924C22.9184 105.218 23.3639 107.882 23.5604 109.223C22.5279 110.51 20.9781 112.668 18.4101 116.283L13.4443 111.432C12.7089 110.716 11.6309 110.481 10.6656 110.829C9.69781 111.173 9.01509 112.041 8.9025 113.059L7.39337 126.809C7.3215 127.446 7.482 128.086 7.84372 128.613L12.97 136.146L15.3679 144.296V144.293C15.5093 144.784 15.7895 145.223 16.1752 145.556L21.5411 150.251C22.1734 150.802 23.0239 151.024 23.8431 150.859L36.1392 148.341L42.9756 157.027L46.7006 164.966C47.1413 165.907 48.0899 166.508 49.1295 166.508H58.8549C59.2957 166.508 59.7293 166.401 60.1173 166.195L66.0198 163.045L72.5956 168.849L77.741 186.31L75.9875 197.451L75.9899 197.449C75.93 197.841 75.9564 198.242 76.069 198.622C78.4956 206.872 79.2334 208.712 80.9006 209.038C81.5665 209.431 83.0086 210.362 84.8076 211.548C62.1417 205.895 42.0151 192.832 27.6229 174.435C13.2308 156.038 5.39543 133.358 5.36415 110.002L5.36468 109.999ZM109.996 214.63C105.983 214.623 101.976 214.386 97.9922 213.921C89.1407 207.916 85.3729 205.432 83.5952 204.428C83.1089 203.224 82.1627 200.296 81.3817 197.683L83.1352 186.541C83.1951 186.149 83.1688 185.748 83.0562 185.368L77.5227 166.587C77.3813 166.103 77.1035 165.667 76.7274 165.332L68.1733 157.786H68.1709C67.3324 157.051 66.1228 156.909 65.1358 157.429L58.1817 161.14H50.8326L47.6993 154.466C47.6131 154.281 47.5053 154.106 47.3783 153.948L39.3295 143.719C38.6995 142.924 37.6791 142.55 36.6849 142.749L24.0706 145.332L20.2929 142.026L17.998 134.224H17.9956C17.9166 133.955 17.7968 133.701 17.6387 133.471L12.831 126.407L13.6335 119.117L16.9009 122.31V122.313C17.4614 122.859 18.2352 123.134 19.0161 123.065C19.797 122.993 20.5085 122.586 20.9636 121.946C23.5842 118.255 27.4652 112.838 28.2097 111.905C28.2696 111.845 28.327 111.785 28.3821 111.718C29.2732 110.654 29.3164 110.601 28.0061 103.199L36.608 92.7526C36.9122 92.3861 37.111 91.9453 37.1877 91.4758L38.6681 82.3275H47.7852C48.6188 82.3275 49.4069 81.9394 49.9124 81.2759L54.641 75.1171H64.386C65.2004 75.1171 65.9718 74.7482 66.4821 74.1111L77.2138 60.6964C77.7815 59.9849 77.9516 59.034 77.6617 58.1716L74.9788 50.1228C74.6147 49.0257 73.5894 48.2879 72.4348 48.2879H64.0316L65.821 45.6049H75.1178C78.9338 45.6049 81.5255 40.2319 83.0273 35.7213C83.2142 35.1728 83.2142 34.5739 83.0273 34.0254L80.3444 25.9766C79.9252 24.7261 78.6604 23.9644 77.3596 24.1776L62.196 26.7024L53.6775 21.8779C71.4112 10.4992 92.1749 4.75747 113.236 5.41118C134.295 6.06275 154.664 13.0791 171.66 25.5328L169.71 25.8059L164.32 21.9588C163.139 21.1156 161.503 21.3623 160.626 22.517L153.602 31.7419H145.3L144.636 24.7804H144.639C144.524 23.5827 143.63 22.6077 142.447 22.3922L137.527 21.4987C136.712 21.3525 135.874 21.5897 135.258 22.1407L131.6 25.4153L123.884 26.6346C123.228 26.7376 122.632 27.0825 122.215 27.5999L111.931 40.3437C111.466 40.9186 111.26 41.6588 111.361 42.3918C111.461 43.1224 111.859 43.7811 112.46 44.2099L115.591 46.4449C116.235 46.9048 117.05 47.0581 117.816 46.8617L122.253 45.7238L121.934 47.0917L110.072 54.9969C109.324 55.4952 108.876 56.3336 108.876 57.2295V63.7139C108.876 64.7775 109.506 65.7405 110.479 66.1693L112.479 67.0508L108.098 71.4297C107.077 72.4502 107.046 74.0959 108.031 75.1523L112.8 80.2881L111.226 85.5247C111.157 85.757 111.119 85.9966 111.114 86.2385L110.889 96.5226C110.872 97.3514 111.238 98.1419 111.883 98.6641C112.525 99.1864 113.375 99.3804 114.182 99.1911L120.89 97.6269V97.6293C121.704 97.4376 122.382 96.8795 122.727 96.1153L126.249 88.2867L137.625 84.8539L142.294 89.5323C142.754 89.9922 143.364 90.2701 144.014 90.3156L148.601 90.6198L149.379 95.4443V95.4419C149.497 96.1606 149.899 96.8026 150.496 97.2193L154.973 100.333L162.052 118.139H162.054C162.459 119.162 163.448 119.832 164.548 119.832C164.828 119.832 165.106 119.789 165.372 119.703L172.304 117.463H172.307C173.133 117.197 173.778 116.548 174.039 115.719L174.683 113.681L177.963 114.208C179.256 114.412 180.509 113.652 180.93 112.411L183.86 103.692C184.184 102.726 183.932 101.663 183.213 100.942L177.871 95.5997L183.609 92.9144L185.357 93.9828L186.72 102.163H186.718C186.869 103.067 187.47 103.831 188.313 104.19C189.157 104.549 190.124 104.453 190.881 103.936L198.708 98.5702C199 98.369 199.251 98.1127 199.445 97.8132L200.231 96.6011L202.818 98.8337H202.816C203.324 99.2888 203.992 99.5236 204.672 99.4828L209.54 99.296L214.362 102.887C214.52 105.239 214.63 107.603 214.63 109.994C214.599 137.736 203.566 164.33 183.949 183.945C164.333 203.559 137.738 214.595 109.998 214.626L109.996 214.63Z" fill="#25366F"/>
<path d="M180.958 162.408L176.598 161.234C175.568 160.961 174.474 161.318 173.805 162.149C173.491 162.544 171.896 164.027 170.602 165.167C170.265 165.469 170.006 165.85 169.855 166.279L166.501 175.669C166.207 176.491 166.331 177.403 166.834 178.115C167.335 178.829 168.154 179.253 169.026 179.253H173.553C174.32 179.253 175.048 178.924 175.558 178.352L182.266 170.806C182.702 170.315 182.944 169.68 182.944 169.024V164.999C182.944 163.787 182.13 162.724 180.958 162.407L180.958 162.408ZM177.578 168.004L173.158 172.974L174.675 168.727C175.235 168.227 176.035 167.501 176.732 166.828L177.578 167.055L177.578 168.004Z" fill="#25366F"/>
<path d="M93.0062 55.6735C93.1259 55.6735 93.2457 55.6663 93.3655 55.6496C94.2303 55.5322 94.9824 55.0028 95.3849 54.2291L99.0452 47.1909L103.338 45.1212V45.1236C104.445 44.587 105.046 43.3701 104.799 42.1676L103.506 35.8555L113.897 32.7558H113.895C114.659 32.5282 115.281 31.9749 115.593 31.2418L119.617 21.8519C120.142 20.6326 119.694 19.2144 118.568 18.5174L107.389 11.5871C106.61 11.1033 105.642 11.0506 104.818 11.4434L96.6524 15.3432L94.2761 15.0079H94.2737C93.7707 14.936 93.2581 15.0079 92.7933 15.2211L85.8631 18.352C85.1109 18.6921 84.5576 19.3581 84.3635 20.1606C84.1671 20.963 84.3515 21.811 84.8642 22.4602L87.6405 25.9744V36.4786L85.99 47.9124C85.8751 48.7149 86.129 49.527 86.6823 50.1211L91.0421 54.8162C91.5475 55.3624 92.2614 55.6737 93.0064 55.6737L93.0062 55.6735ZM94.2949 20.4288L96.7024 20.7689C97.2246 20.8456 97.7588 20.7617 98.2331 20.5342L105.805 16.9194L113.778 21.8613L111.157 27.9769L99.6182 31.4169C98.2839 31.8145 97.4766 33.1656 97.7569 34.5262L99.1247 41.1976L95.9124 42.7498C95.3926 42.999 94.9661 43.4134 94.7002 43.926L92.3838 48.3768L91.4856 47.4091L92.9827 37.0508L92.9803 37.0532C92.9971 36.9262 93.0067 36.7969 93.0067 36.6699V25.0423C93.0067 24.4386 92.8031 23.8541 92.4294 23.3775L91.2029 21.8276L94.2949 20.4288Z" fill="#25366F"/>
<path d="M126.655 23.7788C127.124 24.1453 127.704 24.3442 128.301 24.3442C128.478 24.3442 128.657 24.325 128.832 24.2915C129.596 24.1358 130.258 23.6543 130.639 22.974L135.144 14.954H135.147C135.554 14.2306 135.602 13.3562 135.279 12.5921C134.953 11.8279 134.292 11.2554 133.487 11.0446L129.24 9.92833C128.794 9.80856 128.324 9.80856 127.879 9.92833L123.629 11.0446C122.448 11.3536 121.627 12.4196 121.627 13.6389V18.5592C121.627 19.3881 122.01 20.169 122.664 20.6768L126.655 23.7788ZM126.993 15.7086L128.559 15.2966L128.765 15.3517L127.486 17.6322L126.99 17.2465L126.993 15.7086Z" fill="#25366F"/>
<path d="M167.453 131.096L161.307 121.874L153.119 104.394V104.391C152.92 103.965 152.611 103.598 152.223 103.328L144.845 98.187C144.498 97.9451 144.1 97.7894 143.681 97.7319L136.262 96.6994L133.205 94.5986H133.203C132.317 93.9854 131.15 93.9662 130.242 94.5459L122.991 99.1668L116.08 103.055L107.174 105.879V105.881C106.992 105.939 106.815 106.015 106.649 106.111L95.7428 112.371C94.9091 112.847 94.3941 113.736 94.3965 114.697V121.974C94.3965 122.417 94.5043 122.851 94.7127 123.241L95.8577 125.385L91.5555 130.94C90.892 131.8 90.8105 132.972 91.3495 133.915L96.7153 143.305C97.0986 143.979 97.7573 144.453 98.5167 144.604C102.29 145.502 106.11 146.189 109.96 146.669H109.969C110.551 146.688 114.609 147.107 118.761 147.56L121.69 160.452H121.688C121.736 160.651 121.803 160.842 121.892 161.027L131.643 181.173C133.263 185.363 135.047 190.163 135.296 191.109L135.294 191.107C135.402 191.787 135.752 192.405 136.279 192.846C136.875 193.38 137.67 193.629 138.463 193.531C141.786 193.296 145.082 192.784 148.318 191.998C148.986 191.861 149.578 191.476 149.971 190.918L157.126 180.802C157.713 179.975 157.783 178.89 157.308 177.997L155.258 174.13L155.828 170.144L164.662 165.849C165.584 165.401 166.171 164.465 166.171 163.437V140.273L167.831 133.197C168.001 132.473 167.865 131.714 167.453 131.096L167.453 131.096ZM160.878 139.348H160.875C160.83 139.55 160.806 139.756 160.806 139.962V161.758L152.199 165.943C151.399 166.333 150.843 167.095 150.716 167.974L149.82 174.234C149.741 174.797 149.842 175.369 150.105 175.872L151.792 179.053L146.205 186.951C143.932 187.399 141.486 187.826 139.925 188.036C139.364 186.41 138.36 183.696 136.559 179.039L126.855 158.965L123.568 144.509H123.571C123.315 143.395 122.385 142.563 121.25 142.437C118.186 142.099 110.973 141.308 110.12 141.308H110.116C109.407 141.251 105.009 140.422 100.771 139.584L96.8953 132.809L101.166 127.295C101.813 126.456 101.909 125.318 101.411 124.387L99.7626 121.304V116.252L109.072 110.91L117.966 108.088V108.085C118.141 108.03 118.311 107.958 118.469 107.867L125.746 103.769L131.625 100.027L133.742 101.481H133.745C134.087 101.718 134.48 101.869 134.895 101.927L142.306 102.957L148.566 107.319L156.533 124.331C156.59 124.454 156.655 124.571 156.729 124.681L162.344 133.101L160.878 139.348Z" fill="#25366F"/>
</svg>
