<svg width="130" height="122" viewBox="0 0 130 122" fill="none" xmlns="http://www.w3.org/2000/svg">
<path d="M48.4458 92.9795C48.9738 93.0679 49.3303 93.5665 49.2419 94.0945C49.1536 94.6226 48.655 94.979 48.1269 94.8906C39.4417 93.4142 32.6887 88.8089 27.7485 83.3833C22.6213 77.7526 19.4431 71.1855 18.0811 66.3102C17.7166 66.3244 17.3561 66.3204 16.9997 66.298C15.2033 66.1884 13.1094 65.3669 11.0248 64.0589C8.2445 62.3144 5.43045 59.6753 3.35909 56.707C1.24591 53.6798 -0.107721 50.2912 0.0862085 47.1088C0.1776 45.6201 0.603085 44.1812 1.43981 42.8468C1.67134 42.4782 1.92217 42.1197 2.19125 41.7704C1.94856 41.3977 1.72312 41.0129 1.51801 40.6168C0.148158 37.9788 -0.359595 34.8754 0.263917 31.6654C0.503568 30.4337 0.909759 29.1867 1.49669 27.9477C3.95614 22.7608 7.52644 18.6836 11.6239 15.9194C15.9122 13.0264 20.7823 11.5672 25.5733 11.7682C27.6225 11.8545 29.6037 12.3196 31.459 13.069C34.0058 8.79082 37.0786 5.77191 40.3982 3.71954C45.3242 0.674117 50.7631 -0.226641 55.8151 0.0496959C62.4919 0.41525 68.5664 3.45152 72.7408 7.15594C76.1923 4.73405 79.9099 3.33168 83.6133 2.79642C87.2995 2.2633 90.9714 2.59333 94.3527 3.63521C97.7382 4.67808 100.832 6.43574 103.359 8.75614C106.753 11.8725 109.126 16.0046 109.817 20.7894C110.109 22.8071 110.397 25.9613 110.336 29.1863C112.151 29.43 113.982 29.8504 115.741 30.4689C118.365 31.3929 120.664 32.6775 122.578 34.3844C124.503 36.1015 126.037 38.2401 127.118 40.862C128.128 43.3133 128.609 45.9557 128.408 48.4211C128.286 49.9128 127.917 51.3436 127.269 52.6363C127.739 53.3005 128.158 54.0103 128.5 54.7465C129.308 56.487 129.835 59.0896 129.827 61.8587C129.82 64.24 129.421 66.7623 128.472 68.9922C127.71 70.7794 126.784 72.1656 125.729 73.2054C124.078 74.8301 122.134 75.5948 120.014 75.7024C117.974 75.806 115.791 75.2881 113.569 74.3417C109.373 72.5535 104.997 69.2106 101.225 65.6757C100.768 65.8697 100.303 66.0464 99.8306 66.2068C95.463 67.6863 90.4975 67.7046 86.7707 65.8158L86.592 65.7255C84.0655 64.445 81.4355 63.1126 78.8471 61.8596C78.5059 62.0394 78.1586 62.2231 77.8042 62.41C75.4615 63.6489 72.8468 65.0299 69.8286 66.3897C66.1466 68.048 63.1123 67.1635 61.1361 65.3082C59.7866 64.0409 58.9468 62.3096 58.7437 60.6238C58.5305 58.8558 59.0087 57.1185 60.3156 55.9466C61.8561 54.5645 64.5085 54.0334 68.4576 55.3353C71.5313 56.3487 75.118 57.9268 78.8091 59.6927C86.9601 55.4481 92.0405 53.6752 100.424 62.1918C100.808 62.5817 101.202 62.9737 101.603 63.3636C102.911 62.6944 104.104 61.8688 105.102 60.9062C106.641 59.4226 107.715 57.6099 108.027 55.5445C108.385 53.1663 107.736 50.4145 105.624 47.3862C103.059 43.7052 98.8767 41.8387 94.5052 41.2224C91.6295 40.8172 88.6733 40.9522 86.0321 41.4701C85.0796 41.657 84.1697 41.8926 83.3238 42.1698C83.5452 43.5549 83.6488 45.0954 83.6203 46.8012C83.6061 47.6705 83.3665 48.3955 82.9806 48.9794C82.5643 49.608 81.9875 50.0629 81.3406 50.3553C80.7222 50.6346 80.0348 50.7636 79.3655 50.7524C78.5542 50.7392 77.7601 50.5168 77.1366 50.1035C76.5212 49.6963 76.1049 49.1094 75.8632 48.4402C75.6154 47.7537 75.5586 46.985 75.6622 46.2518C75.8673 44.7926 76.8899 43.4614 78.4739 42.3584C79.2243 41.8355 80.1098 41.3572 81.0979 40.9368C80.8552 39.9924 80.5414 39.1506 80.1637 38.4042C78.7796 35.6686 76.4949 34.2194 73.687 33.7291C70.7422 33.2142 67.2216 33.72 63.5354 34.8959C56.1671 37.2457 48.2139 42.2337 42.7782 47.1444C41.5414 48.2614 40.4406 49.3875 39.4679 50.5186C38.4829 51.6641 37.637 52.8105 36.9221 53.9529C36.4469 54.7135 36.0356 55.4599 35.6863 56.189C33.4076 60.9535 33.4147 65.5993 35.1948 69.8033C37.0003 74.0682 40.6305 77.9088 45.5627 80.9917C46.8554 81.8 48.2221 82.5494 49.655 83.2349C60.4129 88.3792 72.6299 82.9119 83.9046 77.8662C85.505 77.1503 87.087 76.4425 88.4102 75.8718C89.444 75.426 90.4198 75.1386 91.3407 74.9904C93.6814 74.6147 95.6046 75.1569 97.1726 76.3166C97.918 76.868 98.574 77.5565 99.1498 78.3475C101.086 78.0571 103.304 77.9748 105.604 78.1058C110.432 78.381 115.692 79.5854 119.511 81.7687C124.531 84.6394 127.164 89.1125 123.624 95.3019C118.812 103.717 111.357 106.058 103.183 105.407C97.3969 104.946 91.2644 102.966 85.4855 100.605L83.7907 121.107C83.7471 121.641 83.2779 122.038 82.7448 121.994C82.2107 121.951 81.8136 121.481 81.8573 120.948L83.6039 99.8196C82.0858 99.1717 80.5983 98.5056 79.1542 97.8425C72.6653 94.8631 71.3656 91.6308 72.4662 89.2324C72.9912 88.09 74.0717 87.1801 75.4069 86.6013C76.6742 86.052 78.1871 85.79 79.6577 85.9119C83.1651 86.2023 86.4827 88.546 86.0226 94.1066L85.6529 98.5828C91.4401 100.98 97.5939 103.016 103.335 103.473C110.797 104.067 117.587 101.953 121.942 94.339C124.774 89.3865 122.622 85.7816 118.548 83.4521C114.997 81.4212 110.057 80.2991 105.498 80.0391C103.628 79.9325 101.832 79.968 100.239 80.1437C100.395 80.4504 100.542 80.7652 100.682 81.0881C101.475 82.9271 102.014 85.0332 102.355 87.1587C102.397 87.4176 102.433 87.7131 102.467 88.038C104.413 88.7824 106.312 89.5288 107.689 90.2467C108.854 90.8539 109.58 91.6115 109.965 92.4178C110.331 93.1844 110.384 93.9765 110.206 94.7239C110.037 95.4327 109.658 96.0937 109.141 96.6411C108.412 97.4149 107.393 97.9724 106.31 98.1196C102.482 98.6405 101.351 94.8743 100.875 91.3708C100.783 90.7026 100.716 90.0365 100.659 89.4231C97.3207 88.1508 94.1058 86.8977 93.2344 85.6792C91.5579 83.3355 92.0595 81.4702 93.9544 80.1145C94.7282 79.5611 95.7761 79.1163 97.018 78.7832C96.7083 78.439 96.3762 78.1333 96.0218 77.8703C94.8632 77.0133 93.4222 76.6152 91.6462 76.9006C90.8947 77.0214 90.0742 77.2661 89.1786 77.653C87.5457 78.3567 86.1293 78.9914 84.6964 79.6322C73.0307 84.8527 60.3902 90.5099 48.8247 84.9785C47.3015 84.2504 45.8718 83.4675 44.5424 82.6368C39.2792 79.3468 35.384 75.2007 33.4169 70.5539C31.4235 65.8474 31.4103 60.6594 33.947 55.3544C34.3389 54.5349 34.7827 53.7256 35.2813 52.9285C36.0449 51.7079 36.9487 50.4822 38.0018 49.2586C39.0172 48.0776 40.1769 46.8936 41.4868 45.7097C47.0993 40.6405 55.3236 35.486 62.9568 33.052C66.9303 31.7847 70.7626 31.2455 74.0263 31.8172C77.4271 32.4123 80.2035 34.1822 81.8982 37.5311C82.3104 38.3465 82.6557 39.2553 82.9268 40.2627C83.793 39.9875 84.712 39.753 85.6676 39.5651C88.5016 39.0097 91.6781 38.8655 94.7773 39.3021C99.6362 39.9865 104.309 42.0967 107.223 46.2763C109.645 49.7522 110.38 52.9835 109.951 55.8298C109.573 58.3441 108.287 60.5283 106.451 62.2983C105.471 63.2437 104.333 64.0693 103.094 64.7629C106.594 67.9747 110.561 70.9502 114.333 72.5575C116.298 73.3953 118.199 73.8542 119.929 73.7669C121.579 73.6836 123.093 73.0886 124.378 71.8233C125.255 70.9591 126.037 69.7792 126.696 68.2327C127.54 66.2526 127.894 63.9962 127.9 61.8578C127.908 59.3719 127.451 57.0688 126.748 55.5569C126.565 55.1639 126.358 54.78 126.133 54.4104C126.061 54.4977 125.989 54.583 125.915 54.6683C124.874 55.8615 123.708 56.7307 122.586 57.1654C121.743 57.4934 120.911 57.5837 120.149 57.3979C119.341 57.2009 118.644 56.7125 118.132 55.893C117.666 55.1486 117.36 54.122 117.277 52.7805C117.168 51.0268 117.503 49.8032 118.13 49.0233C118.701 48.3115 119.474 47.9784 120.365 47.9591C121.127 47.9418 121.967 48.1723 122.817 48.5998C123.843 49.1147 124.917 49.9382 125.895 50.9608C126.212 50.1159 126.403 49.2091 126.48 48.2689C126.656 46.1029 126.23 43.7703 125.334 41.5973C124.372 39.2638 123.008 37.3597 121.295 35.8325C119.571 34.295 117.491 33.1343 115.11 32.2957C113.528 31.7393 111.887 31.3544 110.261 31.1229C110.194 32.1231 110.087 33.1101 109.928 34.0516C109.568 36.184 108.943 38.1022 107.928 39.4701C106.81 40.9771 105.271 41.8179 103.178 41.5935C101.99 41.4655 100.637 40.9801 99.0981 40.054C96.4366 38.4516 95.0932 36.8534 94.7539 35.3717C94.4767 34.1623 94.828 33.0726 95.6648 32.1344C96.3969 31.3149 97.5109 30.6305 98.8919 30.1116C101.357 29.1835 104.781 28.7448 108.408 28.9915C108.454 25.9524 108.179 22.9779 107.903 21.0628C107.279 16.7451 105.128 13.0093 102.051 10.1822C99.7345 8.0548 96.8964 6.44321 93.787 5.48578C90.6745 4.52617 87.2901 4.22355 83.8893 4.71506C80.591 5.1913 77.2757 6.41901 74.1733 8.52502C74.6029 8.97079 75.005 9.42167 75.3767 9.87558C76.7323 11.5298 77.7061 13.2358 78.2048 14.8473C78.7359 16.5634 78.7308 18.1831 78.086 19.5531C77.3477 21.122 75.8103 22.2969 73.3316 22.8309C71.2031 23.2889 69.3529 23.1426 67.9364 22.5374C66.8427 22.0703 66.0019 21.3331 65.4769 20.3847C64.954 19.4413 64.7529 18.3121 64.9347 17.058C65.1845 15.3307 66.1715 13.3444 68.0643 11.2819C69.0615 10.1954 70.0993 9.21952 71.1685 8.34934C67.3027 5.01666 61.7796 2.31543 55.7202 1.98346C51.0136 1.72553 45.9626 2.55516 41.4183 5.36501C38.3963 7.23346 35.5853 9.98526 33.2306 13.8867C35.4159 15.0291 37.3788 16.5583 39.0087 18.2928C40.5918 19.9784 41.8662 21.8651 42.7274 23.7844C43.6038 25.7371 44.0557 27.7327 43.9775 29.5979C43.8861 31.7649 43.094 33.7492 41.4429 35.2988C40.398 36.2807 39.1073 36.9702 37.7273 37.3754C36.2843 37.7988 34.7357 37.9126 33.2643 37.7237C30.5509 37.3764 28.7657 36.2472 27.6599 34.6377C26.3855 32.7845 26.0727 30.3484 26.3011 27.7753C26.4626 25.9556 26.8942 24.0639 27.4415 22.2725C28.1686 19.8933 29.0947 17.6938 29.8614 16.0803C30.0736 15.6325 30.2909 15.1968 30.5133 14.7713C28.9231 14.1549 27.2383 13.7731 25.5031 13.701C21.1275 13.5172 16.6624 14.8617 12.7134 17.5263C8.89017 20.1056 5.55541 23.9166 3.25322 28.7737C2.73634 29.8633 2.38093 30.9549 2.17174 32.0292C1.63354 34.7972 2.06816 37.467 3.24305 39.7294C3.33546 39.9071 3.43193 40.0818 3.53348 40.2544C4.34484 39.4461 5.24149 38.7261 6.17154 38.1219C8.08063 36.8831 10.1562 36.1215 11.9678 36.0809C14.5238 36.024 16.1862 37.6629 16.9344 39.7528C17.2816 40.7236 17.4248 41.7969 17.3609 42.8338C17.2959 43.8879 17.0136 44.9135 16.5109 45.7706C15.5635 47.3851 13.8991 48.3884 11.5036 47.9223C10.2353 47.6756 9.04209 47.2805 7.93825 46.7566C6.17947 45.9229 4.65029 44.7663 3.41626 43.3729C3.29949 43.5385 3.18778 43.707 3.08115 43.8776C2.4272 44.9195 2.09513 46.0487 2.02304 47.2225C1.85752 49.9378 3.06592 52.905 4.94654 55.6002C6.86881 58.3542 9.47866 60.8025 12.0588 62.421C13.8775 63.5624 15.6535 64.2753 17.1157 64.3646C17.2823 64.3748 17.4508 64.3799 17.6204 64.3809C17.3442 62.9846 17.2538 61.7996 17.3432 60.913C17.5717 58.6516 18.0693 56.6349 18.9436 55.1583C19.7965 53.7174 20.9897 52.774 22.6103 52.5628C23.5049 52.446 24.5305 52.5658 25.4922 52.9263C26.3777 53.2573 27.2185 53.7915 27.8694 54.5307C28.7234 55.5005 29.2453 56.8399 29.2849 58.1429C29.3225 59.3909 28.9255 60.6186 27.9709 61.5041C26.0212 63.3127 24.1386 64.5535 22.3249 65.3232C21.5298 65.6603 20.7499 65.9061 19.9852 66.0696C21.2881 70.5905 24.3151 76.73 29.1854 82.0784C33.8699 87.2227 40.2571 91.5861 48.4489 92.9795L48.4458 92.9795ZM78.7726 106.838C78.8 106.504 79.0925 106.256 79.4266 106.283C79.7606 106.311 80.0084 106.603 79.981 106.937L79.3829 114.168C79.3555 114.502 79.063 114.75 78.7289 114.723C78.3948 114.695 78.1471 114.403 78.1745 114.069L78.7726 106.838ZM118.396 28.2391C118.08 28.1294 117.913 27.7841 118.024 27.4694C118.134 27.1536 118.479 26.987 118.794 27.0977C121.372 28.0055 123.63 29.2667 125.509 30.9422C127.395 32.6239 128.896 34.7187 129.955 37.2858C130.082 37.5945 129.934 37.9478 129.626 38.0748C129.317 38.2017 128.964 38.0545 128.837 37.7458C127.853 35.3574 126.456 33.4097 124.704 31.847C122.944 30.2781 120.823 29.0941 118.397 28.2391H118.396ZM42.0976 52.1176C42.2743 51.8333 42.648 51.747 42.9313 51.9237C43.2156 52.1003 43.3019 52.474 43.1252 52.7573C42.3342 54.0236 41.7005 55.2859 41.2161 56.5338C40.7175 57.8193 40.3753 59.0917 40.1804 60.3377C40.1296 60.6678 39.8209 60.8932 39.4909 60.8424C39.1609 60.7917 38.9354 60.483 38.9862 60.1529C39.1954 58.8176 39.5599 57.4618 40.089 56.0971C40.6028 54.7719 41.27 53.4405 42.0976 52.1166V52.1176ZM39.4169 67.3881C39.3245 67.0672 39.5083 66.7321 39.8292 66.6397C40.15 66.5473 40.4851 66.7311 40.5776 67.052C41.4488 70.0405 43.2575 72.7051 45.8358 74.8113C48.3612 76.8727 51.6269 78.3989 55.4815 79.1708C55.8095 79.2358 56.0228 79.5556 55.9578 79.8836C55.8928 80.2116 55.5729 80.4249 55.2449 80.3599C51.1953 79.5485 47.7498 77.9339 45.073 75.7487C42.3029 73.4873 40.3581 70.6156 39.4168 67.3884L39.4169 67.3881ZM30.4137 39.6297C30.7448 39.6713 30.9794 39.9739 30.9377 40.305C30.8961 40.636 30.5935 40.8706 30.2624 40.829C27.0699 40.4197 24.978 39.1057 23.6925 37.2353C22.1937 35.0551 21.8281 32.1518 22.1012 29.071C22.1297 28.739 22.4232 28.4922 22.7552 28.5216C23.0872 28.5501 23.334 28.8436 23.3046 29.1756C23.0537 31.9995 23.3685 34.6306 24.6876 36.5478C25.7843 38.1431 27.6041 39.2693 30.4137 39.6296V39.6297ZM107.861 100.564C107.527 100.574 107.248 100.312 107.237 99.9792C107.227 99.6451 107.489 99.3669 107.822 99.3557C109.046 99.3151 110.161 98.721 110.983 97.8335C111.577 97.1928 112.017 96.3987 112.232 95.5487C112.444 94.7099 112.436 93.8204 112.141 92.9755C111.76 91.889 110.896 90.8593 109.4 90.0804C109.103 89.926 108.988 89.5604 109.142 89.2629C109.297 88.9654 109.662 88.8506 109.96 89.005C111.754 89.9402 112.806 91.2136 113.283 92.5773C113.662 93.6588 113.675 94.787 113.408 95.8429C113.144 96.8868 112.603 97.8637 111.871 98.6536C110.84 99.7666 109.425 100.512 107.862 100.564L107.861 100.564ZM71.2767 24.1491C71.6016 24.0709 71.9276 24.27 72.0068 24.5949C72.085 24.9199 71.886 25.2458 71.561 25.325C69.2244 25.8937 67.1773 25.7911 65.5555 25.1615C64.1785 24.6274 63.1092 23.7186 62.4248 22.5214C61.7475 21.3374 61.452 19.8781 61.6134 18.2269C61.847 15.8426 63.0401 13.0449 65.4317 10.1C65.6419 9.8411 66.0237 9.8015 66.2826 10.0127C66.5416 10.2229 66.5812 10.6047 66.37 10.8637C64.139 13.6114 63.029 16.1816 62.8179 18.3416C62.6818 19.7339 62.9225 20.9493 63.4769 21.9202C64.0243 22.8768 64.8823 23.6039 65.9912 24.0344C67.3916 24.5777 69.1911 24.6589 71.2767 24.1512L71.2767 24.1491ZM19.2641 61.0997C19.1849 61.8877 19.2682 62.9407 19.517 64.1857C20.1851 64.0486 20.8695 63.8353 21.5692 63.5388C23.1736 62.8585 24.8655 61.7364 26.6465 60.0832C27.1572 59.609 27.3684 58.9164 27.3461 58.1934C27.3207 57.3354 26.9745 56.4519 26.4078 55.8091C25.9742 55.3166 25.4086 54.9592 24.8115 54.7358C24.1454 54.486 23.4498 54.4017 22.8547 54.4788C21.8931 54.6037 21.1579 55.209 20.6065 56.1412C19.8845 57.3607 19.4651 59.1062 19.264 61.0996L19.2641 61.0997ZM7.21969 39.7415C6.30781 40.3335 5.4345 41.0504 4.66175 41.8567C5.75641 43.1585 7.14557 44.238 8.75922 45.0027C9.71883 45.4576 10.7577 45.8019 11.8626 46.0161C13.3056 46.2964 14.2906 45.7217 14.8378 44.7894C15.1811 44.2045 15.375 43.4795 15.4227 42.7169C15.4715 41.938 15.3628 41.1307 15.1019 40.4016C14.6154 39.0429 13.5716 37.9767 12.0005 38.0112C10.5555 38.0437 8.84048 38.6885 7.21964 39.7416L7.21969 39.7415ZM37.5933 19.616C36.0914 18.0166 34.283 16.6093 32.2753 15.5684C32.0478 16.001 31.8244 16.4458 31.6071 16.9037C30.8658 18.4645 29.9743 20.5767 29.2858 22.8311C28.773 24.5106 28.3688 26.2703 28.2205 27.9398C28.0286 30.1017 28.2601 32.1022 29.2462 33.5359C30.0504 34.7057 31.401 35.5333 33.5009 35.8025C34.7113 35.9578 35.9868 35.8644 37.176 35.5151C38.2767 35.1921 39.2973 34.6499 40.1106 33.8863C41.3647 32.7083 41.9679 31.1882 42.038 29.5197C42.104 27.9569 41.712 26.258 40.9545 24.5704C40.1817 22.8492 39.0302 21.1483 37.5922 19.6169L37.5933 19.616ZM73.8706 11.1002C73.4796 10.623 73.0521 10.1487 72.5931 9.68164C71.5218 10.5357 70.4819 11.5034 69.4848 12.589C67.8742 14.3437 67.0446 15.9643 66.8475 17.3263C66.7277 18.1518 66.8455 18.8677 67.1623 19.4394C67.4771 20.0061 67.998 20.4549 68.6895 20.7504C69.7527 21.2043 71.2008 21.3008 72.925 20.9301C74.7508 20.5372 75.8465 19.7481 76.33 18.7215C76.7575 17.8137 76.7402 16.6703 76.3503 15.4112C75.9279 14.0484 75.0738 12.5678 73.8705 11.0995L73.8706 11.1002ZM108.011 33.7289C108.163 32.8271 108.265 31.8777 108.328 30.913C104.976 30.6744 101.826 31.0694 99.5695 31.9183C98.4708 32.3316 97.6168 32.8404 97.0999 33.4182C96.6887 33.8782 96.5109 34.391 96.6358 34.9342C96.8613 35.9182 97.9245 37.083 100.093 38.3878C101.38 39.1626 102.466 39.5647 103.377 39.6622C104.688 39.8033 105.658 39.2682 106.367 38.3116C107.18 37.216 107.698 35.5821 108.01 33.7278L108.011 33.7289ZM124.451 53.3914C124.624 53.1934 124.785 52.9872 124.936 52.774C124.007 51.6915 122.946 50.8274 121.946 50.3247C121.371 50.0363 120.838 49.8789 120.396 49.8891C120.081 49.8962 119.816 50.0038 119.632 50.2333C119.298 50.6496 119.127 51.4295 119.203 52.6643C119.265 53.6605 119.467 54.3835 119.77 54.8669C119.996 55.2284 120.281 55.4386 120.598 55.5158C120.962 55.6041 121.402 55.5452 121.882 55.3584C122.715 55.0344 123.616 54.351 124.452 53.3924L124.451 53.3914ZM99.6912 64.195C99.4719 63.9777 99.2556 63.7604 99.0424 63.5441C92.0944 56.4857 87.6062 57.4393 80.9924 60.7475C83.1665 61.8148 85.3498 62.9216 87.462 63.9918L87.6407 64.0822C90.8943 65.7313 95.2962 65.6917 99.2068 64.3675C99.3692 64.3127 99.5307 64.2548 99.6922 64.1959L99.6912 64.195ZM69.0291 64.6175C71.9079 63.3217 74.412 62.0046 76.6633 60.8156C73.5071 59.3371 70.4781 58.0392 67.8481 57.172C64.6646 56.123 62.6611 56.4297 61.601 57.3812C60.8069 58.093 60.5246 59.2161 60.6658 60.3899C60.8171 61.6471 61.4467 62.9408 62.4591 63.8913C63.9163 65.2592 66.1981 65.8918 69.0282 64.6164L69.0291 64.6175ZM81.4746 42.8826C80.7658 43.2065 80.1281 43.5629 79.5787 43.9468C78.4323 44.746 77.7032 45.6284 77.5783 46.5139C77.5163 46.9566 77.5448 47.4055 77.6808 47.7842C77.7854 48.0736 77.956 48.3214 78.2028 48.4849C78.5196 48.6941 78.9441 48.8078 79.3929 48.8149C79.7828 48.821 80.1829 48.7469 80.5414 48.5844C80.8714 48.4351 81.1618 48.2107 81.3629 47.9061C81.5569 47.6136 81.6767 47.2359 81.6848 46.7667C81.7082 45.342 81.6351 44.0504 81.4736 42.8827L81.4746 42.8826ZM98.8971 81.8478C98.6869 81.3604 98.4584 80.8963 98.2096 80.4607C96.8956 80.7461 95.8141 81.1553 95.0719 81.6864C94.1387 82.3535 93.9183 83.3091 94.8069 84.5519C95.2862 85.2231 97.702 86.2081 100.407 87.2479C100.09 85.3531 99.6019 83.4845 98.8962 81.8486L98.8971 81.8478ZM102.678 90.192C102.71 90.4905 102.747 90.7972 102.789 91.1079C103.142 93.6953 103.873 96.4919 106.048 96.1953C106.683 96.109 107.287 95.7739 107.726 95.3078C108.016 95.0011 108.225 94.6427 108.314 94.27C108.394 93.9359 108.371 93.5835 108.21 93.2454C107.998 92.7996 107.549 92.3558 106.79 91.9608C105.707 91.3962 104.238 90.7971 102.678 90.1909L102.678 90.192ZM79.9546 96.0767C81.1965 96.6463 82.471 97.2191 83.7688 97.7796L84.0866 93.94C84.4298 89.7898 82.0333 88.0473 79.4957 87.838C78.333 87.7415 77.15 87.9436 76.1701 88.3681C75.2572 88.7641 74.5382 89.3409 74.2234 90.0284C73.5451 91.5069 74.7667 93.6933 79.9558 96.0755L79.9546 96.0767Z" fill="#E5CFA9"/>
</svg>
