<svg width="40" height="40" viewBox="0 0 40 40" fill="none" xmlns="http://www.w3.org/2000/svg">
<path d="M24.3157 39.9998C30.9211 39.9998 36.3209 34.6001 36.3209 27.9946C36.3209 23.1716 33.4901 18.8727 29.0339 16.9855V10.3798H29.8204C30.1349 10.3798 30.3448 10.1703 30.3448 9.85545C30.3448 9.54096 30.1353 9.33105 29.8204 9.33105L18.8113 9.33142C18.4968 9.33142 18.2869 9.54096 18.2869 9.85581C18.2869 10.1703 18.4965 10.3802 18.8113 10.3802H19.5975V16.9333C15.1413 18.8205 12.3105 23.1192 12.3105 27.9424C12.3632 34.6 17.7103 40 24.3157 40L24.3157 39.9998ZM20.3312 17.8243C20.5408 17.7193 20.6457 17.5621 20.6457 17.3526V15.8324H23.1097C23.4242 15.8324 23.6341 15.6229 23.6341 15.308C23.6341 14.9936 23.4245 14.7837 23.1097 14.7837H20.6457V13.1586H23.1097C23.4242 13.1586 23.6341 12.9491 23.6341 12.6342C23.6341 12.3197 23.4245 12.1098 23.1097 12.1098H20.6457L20.6461 10.3801H27.9853V17.3003C27.9853 17.5098 28.1426 17.7197 28.2998 17.772C32.4938 19.4498 35.22 23.4339 35.22 27.9424C35.22 33.971 30.292 38.8991 24.2633 38.8991C18.2347 38.8991 13.3066 33.9711 13.3066 27.9424C13.4112 23.4861 16.1373 19.4493 20.331 17.8244L20.3312 17.8243Z" fill="#E5CFA9"/>
<path d="M24.316 37.5361C29.5061 37.5361 33.7524 33.2898 33.7524 28.0997C33.7524 26.9986 33.5428 25.8978 33.1757 24.7968C33.1234 24.5873 32.9135 24.4297 32.7039 24.4297L15.9805 24.4301C15.771 24.4301 15.5611 24.5873 15.5088 24.7972C15.0894 25.8456 14.9321 26.9467 14.9321 28.1C14.8795 33.2899 19.1258 37.5364 24.3161 37.5364L24.316 37.5361ZM16.3474 25.5309H32.2844C32.5466 26.3697 32.7038 27.2609 32.7038 28.0998C32.7038 32.7132 28.9293 36.4879 24.3157 36.4879C19.7022 36.4879 15.9276 32.7133 15.9276 28.0998C15.928 27.2609 16.0852 26.3698 16.3474 25.5309H16.3474Z" fill="#E5CFA9"/>
<path d="M32.4939 3.82678C32.4939 2.51617 31.4455 1.46777 30.1349 1.46777C28.8242 1.46777 27.7231 2.51617 27.7231 3.82678C27.7231 5.13739 28.7715 6.18578 30.0821 6.18578C31.3928 6.18578 32.4939 5.13739 32.4939 3.82678ZM28.7715 3.82678C28.7715 3.09285 29.3482 2.51617 30.0821 2.51617C30.8161 2.51617 31.3928 3.09285 31.3928 3.82678C31.3928 4.5607 30.8161 5.13739 30.0821 5.13739C29.3482 5.13739 28.7715 4.5607 28.7715 3.82678Z" fill="#E5CFA9"/>
<path d="M20.6984 8.07348C22.009 8.07348 23.0574 7.02508 23.0574 5.71447C23.0574 4.40386 22.009 3.35547 20.6984 3.35547C19.3878 3.35547 18.3394 4.40386 18.3394 5.71447C18.3394 7.02508 19.3878 8.07348 20.6984 8.07348ZM20.6984 4.40386C21.4323 4.40386 22.009 4.98055 22.009 5.71447C22.009 6.4484 21.4323 7.02508 20.6984 7.02508C19.9644 7.02508 19.3878 6.4484 19.3878 5.71447C19.3878 4.98055 19.9644 4.40386 20.6984 4.40386V4.40386Z" fill="#E5CFA9"/>
<path d="M11 15.2555C11 16.5661 12.0484 17.6145 13.359 17.6145C14.6696 17.6145 15.718 16.5661 15.718 15.2555C15.718 13.9449 14.6696 12.8965 13.359 12.8965C12.0488 12.8961 11 13.9449 11 15.2555V15.2555ZM14.67 15.2555C14.67 15.9894 14.0933 16.5661 13.3594 16.5661C12.6255 16.5661 12.0488 15.9894 12.0488 15.2555C12.0488 14.5216 12.6255 13.9449 13.3594 13.9449C14.0933 13.9449 14.67 14.5216 14.67 15.2555Z" fill="#E5CFA9"/>
<path d="M35.5347 0C34.4863 0 33.6475 0.838875 33.6475 1.88728C33.6475 2.93568 34.4863 3.77456 35.5347 3.77456C36.5831 3.77456 37.422 2.93568 37.422 1.88728C37.422 0.838875 36.5831 0 35.5347 0ZM35.5347 2.67355C35.063 2.67355 34.6959 2.3064 34.6959 1.83468C34.6959 1.36294 35.063 0.995802 35.5347 0.995802C36.0065 0.995802 36.3736 1.36295 36.3736 1.83468C36.3736 2.30678 36.0065 2.67355 35.5347 2.67355Z" fill="#E5CFA9"/>
<path d="M18.025 2.30671C18.025 1.25832 17.1862 0.419434 16.1378 0.419434C15.0894 0.419434 14.2505 1.25831 14.2505 2.30671C14.2505 3.35511 15.0894 4.19399 16.1378 4.19399C17.1862 4.19399 18.025 3.35512 18.025 2.30671ZM15.2989 2.30671C15.2989 1.83498 15.666 1.46784 16.1378 1.46784C16.6095 1.46784 16.9766 1.83499 16.9766 2.30671C16.9766 2.77845 16.6095 3.14559 16.1378 3.14559C15.6657 3.14559 15.2989 2.77844 15.2989 2.30671Z" fill="#E5CFA9"/>
<path d="M38.2609 8.17831C38.2609 6.50054 36.898 5.1377 35.2203 5.1377C33.5426 5.1377 32.1797 6.50064 32.1797 8.17831C32.1797 9.85608 33.5426 11.2189 35.2203 11.2189C36.8977 11.2189 38.2609 9.85599 38.2609 8.17831ZM35.2203 10.1705C34.1192 10.1705 33.2281 9.27936 33.2281 8.17831C33.2281 7.07721 34.1193 6.18609 35.2203 6.18609C36.3214 6.18609 37.2125 7.07726 37.2125 8.17831C37.2122 9.27941 36.321 10.1705 35.2203 10.1705Z" fill="#E5CFA9"/>
</svg>
