<svg width="41" height="35" viewBox="0 0 41 35" fill="none" xmlns="http://www.w3.org/2000/svg">
<path d="M40.0312 26.67C39.6007 26.2557 39.0796 25.9166 38.4825 25.6615L36.061 24.6267C35.8101 24.5199 35.5543 24.4289 35.2901 24.3359C32.1732 23.2324 31.1462 20.7654 31.1429 20.7585L26.0061 6.11796C25.9677 6.0083 25.889 5.92179 25.7892 5.87955C25.6894 5.83771 25.5786 5.8434 25.4829 5.8962C24.9038 6.21624 24.3384 6.48796 23.8022 6.70362C22.2317 7.33558 20.5127 7.0322 19.2043 5.89294C17.9394 4.79103 17.2986 3.08928 17.4908 1.34003C17.5207 1.06953 17.558 0.909918 17.558 0.909513C17.6068 0.707252 17.5111 0.496455 17.3341 0.417664C14.9953 -0.624467 12.3857 0.292572 9.78769 3.06817C8.11187 4.85891 6.96372 6.84741 6.67113 7.37695L6.45495 7.46224C4.90372 8.07512 3.71717 9.48568 3.28031 11.2354C2.84242 12.9887 3.192 14.7941 4.23888 16.1888C4.28951 16.2562 4.32166 16.2956 4.3224 16.2964C5.59134 17.9336 11.9401 21.5629 12.1815 21.6986C15.5287 24.0344 17.9564 28.779 17.9805 28.8269C17.9897 28.8448 18.0001 28.8623 18.0115 28.8785C20.0361 31.7683 22.5197 32.9794 23.8201 33.444C24.1264 33.5537 24.5277 33.7015 24.9146 33.877C26.9219 34.7876 29.3153 35 31.1104 35C32.6137 35 33.6979 34.8509 33.7836 34.8384C39.2009 34.4261 40.6848 29.8488 40.8345 29.335C41.0643 28.8257 41.2395 27.8335 40.0311 26.6703L40.0312 26.67ZM16.7599 1.0716C16.7529 1.12318 16.7458 1.17924 16.7392 1.24015C16.5153 3.27898 17.261 5.26228 18.7339 6.54491C20.2508 7.86569 22.243 8.21743 24.0621 7.48474C24.5088 7.30522 24.9733 7.08915 25.4481 6.84099L26.4185 9.60649L24.1223 10.6731C23.9298 10.7624 23.8397 11.0061 23.921 11.2181C23.9819 11.3769 24.1223 11.4724 24.2694 11.4724C24.3186 11.4724 24.3685 11.4618 24.4165 11.4395L26.6905 10.3831L27.5944 12.9588L25.2191 14.1976C25.0303 14.2959 24.9497 14.544 25.0395 14.7516C25.1042 14.9014 25.2402 14.9892 25.3817 14.9892C25.4364 14.9892 25.4915 14.9766 25.5439 14.949L27.8679 13.737L28.7636 16.2901L26.5749 17.3526C26.3835 17.4452 26.2973 17.6909 26.3816 17.9009C26.444 18.0565 26.5826 18.1491 26.7279 18.1491C26.7788 18.1491 26.8309 18.1377 26.8805 18.1133L29.0363 17.0671L30.4427 21.0754C30.463 21.1266 30.6976 21.6956 31.2564 22.4186C30.0502 22.3264 28.2251 22.4105 27.5234 23.6196C27.3065 23.9928 27.0471 24.416 26.7079 24.713C26.182 25.174 25.3329 25.669 24.2738 25.4152L21.0272 24.5891C17.612 18.4103 12.9198 15.3569 12.724 15.2314C12.2229 14.898 11.7588 14.5134 11.3294 14.0999C13.1822 11.9749 14.0986 9.74963 14.0503 7.48008C13.9941 4.83197 12.6464 2.90481 12.009 2.13675C13.442 1.07227 15.0827 0.464645 16.7601 1.07185L16.7599 1.0716ZM11.3933 2.63246C11.9251 3.26402 13.2454 5.07221 13.2934 7.50832C13.3341 9.54756 12.486 11.5722 10.7762 13.5311C8.73205 11.2904 7.61532 8.48671 7.34703 7.75817C7.72913 7.07909 9.28479 4.45086 11.3933 2.63256V2.63246ZM33.7091 34.0108C33.6593 34.0181 28.7028 34.6955 25.2034 33.1079C24.7925 32.9215 24.3734 32.7667 24.0542 32.6526C23.0772 32.3033 20.5962 31.1908 18.6281 28.3946C18.4016 27.9531 15.9997 23.3774 12.559 20.9783C10.3186 19.7014 5.8344 16.9664 4.88993 15.7455C4.8866 15.7418 4.86295 15.7122 4.82341 15.6594C3.93507 14.4763 3.63875 12.9443 4.01083 11.4557C4.38812 9.9453 5.37182 8.77559 6.7102 8.24595C7.1976 9.53668 8.97537 13.7078 12.3377 15.9462C12.3865 15.9774 17.2317 19.1328 20.5412 25.3083C20.5867 25.4094 21.6875 27.8061 24.7416 29.5326C26.9325 30.7714 29.3736 31.2344 31.8002 31.2344C34.6427 31.2344 37.4603 30.5975 39.8322 29.8291C39.2377 31.1413 37.5881 33.7151 33.7092 34.0108L33.7091 34.0108ZM40.2014 28.836C27.9196 33.0538 22.9475 27.5847 21.607 25.5896L24.108 26.226C24.3686 26.2886 24.618 26.3162 24.856 26.3162C25.8559 26.3162 26.6518 25.826 27.1799 25.363C27.61 24.9865 27.9123 24.4963 28.1617 24.0665C28.7795 23.0024 31.1401 23.1856 32.1219 23.3643C32.8251 24.0186 33.7836 24.6765 35.0667 25.131C35.3083 25.2163 35.55 25.3016 35.7869 25.4027L38.2084 26.4376C38.7232 26.6577 39.1692 26.9469 39.5332 27.2966C40.1152 27.8575 40.3373 28.3741 40.2013 28.8359L40.2014 28.836Z" fill="#E5CFA9"/>
<path d="M0 16.5C0 16.7764 0.154126 17 0.344589 17H2.3849C2.57537 17 2.72949 16.7764 2.72949 16.5C2.72949 16.2236 2.57537 16 2.3849 16H0.344589C0.154462 16 0 16.2236 0 16.5Z" fill="#E5CFA9"/>
<path d="M0 21.5C0 21.7764 0.117696 22 0.263139 22H4.28601C4.43146 22 4.54915 21.7764 4.54915 21.5C4.54915 21.2236 4.43146 21 4.28601 21H0.263139C0.117696 21 0 21.2241 0 21.5V21.5Z" fill="#E5CFA9"/>
<path d="M8.78049 21H6.6863C6.51073 21 6.36865 21.2236 6.36865 21.5C6.36865 21.7764 6.51073 22 6.6863 22H8.78049C8.95607 22 9.09814 21.7764 9.09814 21.5C9.09814 21.2241 8.95607 21 8.78049 21Z" fill="#E5CFA9"/>
<path d="M14.2117 26H4.89505C4.70395 26 4.54932 26.2236 4.54932 26.5C4.54932 26.7764 4.70395 27 4.89505 27H14.2117C14.4028 27 14.5575 26.7764 14.5575 26.5C14.5575 26.2236 14.4025 26 14.2117 26Z" fill="#E5CFA9"/>
<path d="M2.72949 26.5C2.72949 26.2236 2.60415 26 2.44926 26H0.280228C0.125339 26 0 26.2236 0 26.5C0 26.7764 0.125339 27 0.280228 27H2.44926C2.60388 27 2.72949 26.7759 2.72949 26.5Z" fill="#E5CFA9"/>
<path d="M18.1966 31.5C18.1966 31.2236 18.065 31 17.9023 31H5.75331C5.59063 31 5.45898 31.2236 5.45898 31.5C5.45898 31.7764 5.59063 32 5.75331 32H17.9023C18.065 32 18.1966 31.7764 18.1966 31.5Z" fill="#E5CFA9"/>
<path d="M3.63932 31.5C3.63932 31.2236 3.46357 31 3.24638 31H0.392941C0.175753 31 0 31.2236 0 31.5C0 31.7764 0.175753 32 0.392941 32H3.24638C3.46319 32 3.63932 31.7764 3.63932 31.5Z" fill="#E5CFA9"/>
</svg>
