<svg width="23" height="23" viewBox="0 0 23 23" fill="none" xmlns="http://www.w3.org/2000/svg">
<path d="M21.5 21.5004L16.4375 16.4379L21.5 21.5004ZM16.4375 16.4379C17.25 15.6254 17.8946 14.6607 18.3343 13.5991C18.7741 12.5374 19.0004 11.3996 19.0004 10.2504C19.0004 9.10132 18.7741 7.96345 18.3343 6.9018C17.8946 5.84014 17.25 4.8755 16.4375 4.06295C15.6249 3.25039 14.6603 2.60584 13.5986 2.16609C12.537 1.72634 11.3991 1.5 10.25 1.5C9.10083 1.5 7.96296 1.72634 6.90131 2.16609C5.83965 2.60584 4.87501 3.25039 4.06246 4.06295C2.42143 5.70397 1.49951 7.92968 1.49951 10.2504C1.49951 12.5712 2.42143 14.7969 4.06246 16.4379C5.70349 18.079 7.9292 19.0009 10.25 19.0009C12.5707 19.0009 14.7964 18.079 16.4375 16.4379V16.4379Z" stroke="#25366F" stroke-width="2" stroke-linecap="round" stroke-linejoin="round"/>
</svg>
