<svg width="70" height="70" viewBox="0 0 70 70" fill="none" xmlns="http://www.w3.org/2000/svg">
<rect x="17" y="17" width="35" height="35" rx="17.5" fill="#25366F"/>
<path d="M37.5546 43.9999H29.6828C28.1763 43.9982 26.7319 43.396 25.6663 42.3255C24.6011 41.255 24.0018 39.8035 24 38.2896V30.3793C24.0018 28.8654 24.6011 27.414 25.6663 26.3433C26.7317 25.2729 28.1762 24.6708 29.6828 24.6691H33.1893V26.1792L29.6828 26.1794C28.5747 26.1806 27.5124 26.6234 26.7288 27.4108C25.9452 28.1982 25.5044 29.2657 25.503 30.3792V38.2894C25.5044 39.403 25.9451 40.4706 26.7287 41.2578C27.5123 42.0452 28.5747 42.4882 29.6829 42.4894H37.5547C38.6628 42.4882 39.7253 42.0452 40.5089 41.2578C41.2925 40.4704 41.7332 39.4029 41.7345 38.2894V34.3335H43.2374V38.2894H43.2375C43.2358 39.8033 42.6365 41.2547 41.5712 42.3254C40.5058 43.396 39.0614 43.998 37.5547 43.9998L37.5546 43.9999Z" fill="#FBFBFB"/>
<path d="M41.0828 24L31.2697 33.8607L30.4736 37.5919L34.1869 36.7926L44 26.9315L41.0828 24ZM31.2588 36.1604L31.6826 34.1734L33.8758 36.3774L31.8759 36.8081L31.2588 36.1604Z" fill="#FBFBFB"/>
</svg>
